<svg width="24" height="24" viewBox="0 0 24 24" fill="none" xmlns="http://www.w3.org/2000/svg">
<path d="M20.0996 18.2002C20.5966 18.2002 21 18.6036 21 19.1006C20.9997 19.5972 20.5972 19.9997 20.1006 20H3.90039C3.40355 20 3.00026 19.5974 3 19.1006C3 18.6037 3.40264 18.2005 3.89941 18.2002H20.0996Z" fill="#8E97A5"/>
<path d="M18 12C18.1989 12 18.3896 12.0791 18.5303 12.2197C18.6709 12.3604 18.75 12.5511 18.75 12.75V14.25H20.25C20.4489 14.25 20.6396 14.3291 20.7803 14.4697C20.9209 14.6104 21 14.8011 21 15C21 15.1989 20.9209 15.3896 20.7803 15.5303C20.6396 15.6709 20.4489 15.75 20.25 15.75H18.75V17.25C18.75 17.4489 18.6709 17.6396 18.5303 17.7803C18.3896 17.9209 18.1989 18 18 18C17.8011 18 17.6104 17.9209 17.4697 17.7803C17.3291 17.6396 17.25 17.4489 17.25 17.25V15.75H15.75C15.5511 15.75 15.3604 15.6709 15.2197 15.5303C15.0791 15.3896 15 15.1989 15 15C15 14.8011 15.0791 14.6104 15.2197 14.4697C15.3604 14.3291 15.5511 14.25 15.75 14.25H17.25V12.75C17.25 12.5511 17.3291 12.3604 17.4697 12.2197C17.6104 12.0791 17.8011 12 18 12Z" fill="#8E97A5"/>
<path d="M12.6006 13.7998C13.0974 13.8001 13.5 14.2034 13.5 14.7002C13.4997 15.1968 13.0972 15.5993 12.6006 15.5996H3.89941C3.4028 15.5993 3.00026 15.1968 3 14.7002C3 14.2034 3.40264 13.8001 3.89941 13.7998H12.6006Z" fill="#8E97A5"/>
<path d="M17.0996 9.40039C17.5966 9.40039 18 9.80378 18 10.3008C17.9997 10.7976 17.5964 11.2002 17.0996 11.2002H3.90039C3.40355 11.2002 3.00026 10.7976 3 10.3008C3 9.80378 3.40339 9.40039 3.90039 9.40039H17.0996Z" fill="#8E97A5"/>
<path d="M20.0996 5C20.5966 5 21 5.40339 21 5.90039C20.9997 6.39701 20.5972 6.79954 20.1006 6.7998H3.90039C3.40355 6.7998 3.00026 6.39717 3 5.90039C3 5.40355 3.40264 5.00026 3.89941 5H20.0996Z" fill="#8E97A5"/>
</svg>
