<svg width="24" height="24" viewBox="0 0 24 24" fill="none" xmlns="http://www.w3.org/2000/svg">
<path d="M13.9797 7.06886H8.13641C7.78663 7.06886 7.46808 6.98479 7.23572 6.70827C6.97026 6.3919 6.8953 6.03381 7.0602 5.64395C7.2326 5.23603 7.55989 5.04422 7.98775 5.00436C8.06521 5 8.14328 5 8.22136 5H19.931C20.5556 5.02429 20.9829 5.43594 20.9866 6.01637C20.9897 6.61423 20.5681 7.03772 19.9397 7.06575H19.7061L13.9797 7.06886ZM13.9791 13.0338H8.13579C7.58176 13.0338 7.19325 12.7847 7.03522 12.3351C6.80536 11.683 7.26445 11.0272 7.98838 10.9699C8.04272 10.9656 8.09769 10.9699 8.15203 10.9699H19.8148C20.3045 10.9699 20.708 11.1269 20.9123 11.6033C21.2146 12.307 20.7018 13.0288 19.8917 13.0357C18.871 13.0444 17.8504 13.0357 16.831 13.0357L13.9791 13.0338ZM13.9965 16.9349H19.7224C19.808 16.9349 19.8942 16.9349 19.9797 16.938C20.5781 16.9828 20.9829 17.392 20.986 17.9544C20.986 18.5348 20.59 18.9508 19.9835 19H8.1108C7.76914 19 7.45996 18.9085 7.23634 18.6388C6.97151 18.3212 6.89718 17.9625 7.0627 17.5732C7.23634 17.1659 7.56239 16.9747 7.99213 16.9361C8.07707 16.928 8.16327 16.9324 8.24884 16.9324L13.9965 16.9349ZM3.00021 6.01886C3.0002 5.88463 3.02691 5.75174 3.07878 5.62788C3.13066 5.50401 3.20667 5.39165 3.30241 5.29728C3.39815 5.20292 3.51173 5.12844 3.63655 5.07816C3.76137 5.02788 3.89496 5.00279 4.02957 5.00436C4.30111 5.01421 4.55819 5.12881 4.74662 5.324C4.93504 5.51919 5.04008 5.77971 5.03958 6.05062C5.03127 6.31717 4.92132 6.57052 4.73214 6.75903C4.54296 6.94754 4.28879 7.05701 4.02145 7.06512C3.44868 7.07073 3.00021 6.60738 3.00021 6.01886ZM3.00021 11.9994C2.99839 11.8651 3.02332 11.7318 3.07356 11.6072C3.12381 11.4826 3.19835 11.3692 3.29289 11.2736C3.38742 11.1779 3.50005 11.102 3.62426 11.05C3.74847 10.9981 3.88178 10.9713 4.01646 10.9712C4.28788 10.9778 4.54616 11.0891 4.73697 11.2816C4.92779 11.4742 5.03626 11.7331 5.03958 12.0037C5.03833 12.5586 4.56174 13.0338 4.01208 13.0338C3.87722 13.0332 3.74382 13.0058 3.61967 12.9533C3.49551 12.9007 3.38308 12.8241 3.28891 12.7278C3.19474 12.6316 3.12072 12.5176 3.07115 12.3925C3.02159 12.2675 2.99747 12.1338 3.00021 11.9994ZM3.00021 17.9488C3.00103 17.6815 3.10769 17.4254 3.29697 17.2363C3.48625 17.0471 3.74282 16.9401 4.01084 16.9386C4.56924 16.933 5.04957 17.4231 5.03958 17.9886C5.02999 18.2551 4.91892 18.508 4.72897 18.6958C4.53902 18.8835 4.28446 18.9921 4.01708 18.9994C3.44244 19.0006 2.99584 18.5391 3.00021 17.9488Z" fill="#8E97A5"/>
</svg>
