<svg width="24" height="24" viewBox="0 0 24 24" fill="none" xmlns="http://www.w3.org/2000/svg">
<g id="icon">
<path id="Union" fill-rule="evenodd" clip-rule="evenodd" d="M11.9053 5.31747C12.089 5.31754 12.2656 5.39188 12.3955 5.52548C12.5255 5.65917 12.5977 5.84129 12.5977 6.03036C12.5976 6.21926 12.5253 6.40066 12.3955 6.53427C12.2656 6.6679 12.089 6.74318 11.9053 6.74325H3.4502V17.2569L8.59473 13.462C8.78556 13.3238 9.0137 13.2491 9.24707 13.2491C9.48033 13.2491 9.70768 13.3239 9.89844 13.462L12.1328 15.1085L15.1074 12.7667C15.2904 12.6229 15.5121 12.54 15.7422 12.5304C15.9722 12.5207 16.1998 12.5841 16.3936 12.712L19.3926 14.6964V13.0128C19.3927 12.8151 19.4686 12.6252 19.6045 12.4854C19.7404 12.3457 19.925 12.2677 20.1172 12.2677C20.3093 12.2677 20.4939 12.3458 20.6299 12.4854C20.7658 12.6252 20.8427 12.8151 20.8428 13.0128V20.2872C20.8428 20.6806 20.5172 21.0001 20.1172 21.0001H2.72559C2.32559 21.0001 2 20.6806 2 20.2872V6.02938C2.00002 5.63599 2.3256 5.31747 2.72559 5.31747H11.9053ZM12.1611 16.9122L9.24902 14.7638L3.44922 19.0392V19.5743H19.3926V16.4142L15.8076 14.044L12.1611 16.9122ZM7.70605 8.16903C8.90601 8.16903 9.88083 9.12781 9.88086 10.3067C9.88086 11.4855 8.90655 12.4462 7.70801 12.4464C6.50803 12.4464 5.53223 11.4857 5.53223 10.3067C5.53226 9.12791 6.50749 8.1692 7.70605 8.16903ZM7.70801 9.59481C7.30804 9.59481 6.98246 9.91463 6.98242 10.3067C6.98668 10.5 7.06548 10.6837 7.20117 10.8175C7.33711 10.9513 7.51991 11.0247 7.70801 11.0206C8.10782 11.0204 8.43262 10.7 8.43262 10.3067C8.43258 9.91476 8.1078 9.59503 7.70801 9.59481ZM18.126 3.29208C18.1923 2.90265 18.7616 2.90263 18.8291 3.29208L18.8945 3.68466C19.0996 4.89949 20.0676 5.85361 21.3037 6.05673L21.7031 6.12216C21.7849 6.13245 21.8604 6.17304 21.915 6.23642C21.9697 6.29989 22 6.38212 22 6.46688C21.9999 6.55152 21.9696 6.633 21.915 6.69638C21.8604 6.75984 21.7849 6.80034 21.7031 6.81063L21.3037 6.87704C20.0675 7.08018 19.0995 8.03288 18.8945 9.24911L18.8291 9.64071C18.7616 10.029 18.1922 10.029 18.126 9.64071L18.0596 9.24325C17.852 8.02988 16.8851 7.07833 15.6504 6.87509L15.25 6.81063C15.1682 6.80033 15.0927 6.75984 15.0381 6.69638C14.9837 6.63302 14.9532 6.55143 14.9531 6.46688C14.9531 6.38215 14.9835 6.29988 15.0381 6.23642C15.0927 6.17294 15.1682 6.13246 15.25 6.12216H15.251L15.6514 6.05478C16.885 5.85286 17.852 4.90309 18.0596 3.68954L18.126 3.29208Z" fill="white"/>
</g>
</svg>
