<svg width="20" height="18" viewBox="0 0 20 18" fill="none" xmlns="http://www.w3.org/2000/svg">
<path fill-rule="evenodd" clip-rule="evenodd" d="M9.90527 2.31747C10.089 2.31754 10.2656 2.39188 10.3955 2.52548C10.5255 2.65917 10.5977 2.84129 10.5977 3.03036C10.5976 3.21926 10.5253 3.40066 10.3955 3.53427C10.2656 3.6679 10.089 3.74318 9.90527 3.74325H1.4502V14.2569L6.59473 10.462C6.78556 10.3238 7.0137 10.2491 7.24707 10.2491C7.48033 10.2491 7.70768 10.3239 7.89844 10.462L10.1328 12.1085L13.1074 9.76669C13.2904 9.62292 13.5121 9.54004 13.7422 9.53036C13.9722 9.5207 14.1998 9.58413 14.3936 9.712L17.3926 11.6964V10.0128C17.3927 9.81514 17.4686 9.6252 17.6045 9.48544C17.7404 9.3457 17.925 9.26771 18.1172 9.26767C18.3093 9.26767 18.4939 9.34576 18.6299 9.48544C18.7658 9.6252 18.8427 9.81514 18.8428 10.0128V17.2872C18.8428 17.6806 18.5172 18.0001 18.1172 18.0001H0.725586C0.325593 18.0001 0 17.6806 0 17.2872V3.02938C1.56764e-05 2.63599 0.325603 2.31747 0.725586 2.31747H9.90527ZM10.1611 13.9122L7.24902 11.7638L1.44922 16.0392V16.5743H17.3926V13.4142L13.8076 11.044L10.1611 13.9122ZM5.70605 5.16903C6.90601 5.16903 7.88083 6.12781 7.88086 7.30673C7.88086 8.48555 6.90655 9.44616 5.70801 9.44638C4.50803 9.44638 3.53223 8.48568 3.53223 7.30673C3.53226 6.12791 4.50749 5.1692 5.70605 5.16903ZM5.70801 6.59481C5.30804 6.59481 4.98246 6.91463 4.98242 7.30673C4.98668 7.50001 5.06548 7.68371 5.20117 7.81747C5.33711 7.95126 5.51991 8.02473 5.70801 8.0206C6.10782 8.02038 6.43262 7.70001 6.43262 7.30673C6.43258 6.91476 6.1078 6.59503 5.70801 6.59481ZM16.126 0.29208C16.1923 -0.0973454 16.7616 -0.0973748 16.8291 0.29208L16.8945 0.684658C17.0996 1.89949 18.0676 2.85361 19.3037 3.05673L19.7031 3.12216C19.7849 3.13245 19.8604 3.17304 19.915 3.23642C19.9697 3.29989 20 3.38212 20 3.46688C19.9999 3.55152 19.9696 3.633 19.915 3.69638C19.8604 3.75984 19.7849 3.80034 19.7031 3.81063L19.3037 3.87704C18.0675 4.08018 17.0995 5.03288 16.8945 6.24911L16.8291 6.64071C16.7616 7.02898 16.1922 7.02898 16.126 6.64071L16.0596 6.24325C15.852 5.02988 14.8851 4.07833 13.6504 3.87509L13.25 3.81063C13.1682 3.80033 13.0927 3.75984 13.0381 3.69638C12.9837 3.63302 12.9532 3.55143 12.9531 3.46688C12.9531 3.38215 12.9835 3.29988 13.0381 3.23642C13.0927 3.17294 13.1682 3.13246 13.25 3.12216H13.251L13.6514 3.05478C14.885 2.85286 15.852 1.90309 16.0596 0.689541L16.126 0.29208Z" fill="white"/>
</svg>
