<svg width="24" height="24" viewBox="0 0 24 24" fill="none" xmlns="http://www.w3.org/2000/svg">
<path d="M20.6143 6.91044C20.4984 6.84823 20.3689 6.82231 20.2402 6.8356C20.1115 6.84888 19.9888 6.90085 19.8859 6.98563L16.5759 9.71281V5.75168C16.5759 5.55232 16.5028 5.36113 16.3726 5.22016C16.2425 5.07919 16.066 5 15.8819 5H3.69398C3.50992 5 3.33341 5.07919 3.20326 5.22016C3.07312 5.36113 3 5.55232 3 5.75168V18.2483C3 18.4477 3.07312 18.6389 3.20326 18.7798C3.33341 18.9208 3.50992 19 3.69398 19H15.8819C16.066 19 16.2425 18.9208 16.3726 18.7798C16.5028 18.6389 16.5759 18.4477 16.5759 18.2483V14.2618L19.8834 17.0123C19.9862 17.0978 20.1089 17.1504 20.2379 17.1641C20.3668 17.1779 20.4967 17.1523 20.6129 17.0903C20.7291 17.0283 20.8269 16.9322 20.8953 16.8131C20.9637 16.6939 21 16.5564 21 16.4161V7.58389C21 7.44386 20.9639 7.30662 20.8957 7.18763C20.8276 7.06864 20.7301 6.97263 20.6143 6.91044ZM15.188 17.4966H4.38795V6.50336H15.188V17.4966ZM19.612 14.8913L16.5759 12.3664V11.6017L19.612 9.10012V14.8913Z" fill="#8E97A5"/>
</svg>
