<svg width="24" height="24" viewBox="0 0 24 24" fill="none" xmlns="http://www.w3.org/2000/svg">
<path d="M9.92307 4.38463V9.92307H4.38463V4.38463H9.92307ZM9.92309 3.00002H4.38463C4.01741 3.00002 3.66522 3.1459 3.40555 3.40556C3.14589 3.66522 3 4.01741 3 4.38463L3 9.92307C3 10.2903 3.14588 10.6425 3.40555 10.9022C3.66522 11.1618 4.0174 11.3077 4.38463 11.3077H9.92307C10.2903 11.3077 10.6425 11.1618 10.9022 10.9022C11.1618 10.6425 11.3077 10.2903 11.3077 9.92307V4.38463C11.3077 4.2028 11.2719 4.02274 11.2023 3.85475C11.1327 3.68676 11.0307 3.53412 10.9021 3.40554C10.7736 3.27697 10.6209 3.17498 10.4529 3.10539C10.2849 3.03581 10.1049 3.00002 9.92309 3.00002ZM9.92309 14.0769V19.6154H4.38463V14.0769L9.92309 14.0769ZM9.92309 12.6923H4.38463C4.2028 12.6923 4.02274 12.7281 3.85475 12.7977C3.68676 12.8673 3.53412 12.9693 3.40554 13.0979C3.27697 13.2264 3.17498 13.3791 3.10539 13.5471C3.03581 13.7151 3 13.8951 3 14.0769V19.6154C3 19.9826 3.14588 20.3348 3.40555 20.5945C3.66522 20.8541 4.0174 21 4.38463 21H9.92307C10.2903 21 10.6425 20.8541 10.9022 20.5945C11.1618 20.3348 11.3077 19.9826 11.3077 19.6154V14.0769C11.3077 13.7097 11.1618 13.3575 10.9022 13.0979C10.6425 12.8382 10.2903 12.6923 9.92309 12.6923ZM19.6154 4.38463V12.6923H14.0769V4.38461L19.6154 4.38463ZM19.6154 3H14.0769C13.7097 3 13.3575 3.14588 13.0978 3.40555C12.8382 3.66522 12.6923 4.0174 12.6923 4.38463V12.6923C12.6923 13.0595 12.8382 13.4117 13.0979 13.6714C13.3575 13.931 13.7097 14.0769 14.0769 14.0769H19.6154C19.9826 14.0769 20.3348 13.931 20.5944 13.6714C20.8541 13.4117 21 13.0595 21 12.6923V4.38463C21 4.01741 20.8541 3.66522 20.5944 3.40555C20.3348 3.14589 19.9826 3 19.6154 3ZM19.6154 16.8461V19.6154H14.0769V16.8461H19.6154ZM19.6154 15.4615H14.0769C13.7097 15.4615 13.3575 15.6074 13.0978 15.8671C12.8382 16.1268 12.6923 16.4789 12.6923 16.8462V19.6154C12.6923 19.9826 12.8382 20.3348 13.0979 20.5944C13.3575 20.8541 13.7097 21 14.0769 21H19.6154C19.9826 21 20.3348 20.8541 20.5944 20.5944C20.8541 20.3348 21 19.9826 21 19.6154V16.8462C21 16.4789 20.8541 16.1268 20.5944 15.8671C20.3348 15.6074 19.9826 15.4615 19.6154 15.4615Z" fill="#4AE7FD"/>
</svg>
