<svg width="24" height="24" viewBox="0 0 24 24" fill="none" xmlns="http://www.w3.org/2000/svg">
<path d="M12.7399 10.4599C12.7864 10.4964 12.8219 10.5382 12.852 10.5929L18.5397 19.9816C18.7367 20.3049 18.6135 20.7142 18.2878 20.9019L18.2605 20.9098C17.9348 21.0975 17.5023 20.9802 17.308 20.67L11.6176 11.2708C11.5903 11.2161 11.5602 11.1639 11.552 11.1091L12.7399 10.4599Z" fill="#4AE7FD"/>
<path d="M7.54498 3.14655C7.92542 2.93797 8.38804 2.9537 8.7548 3.18313L12.844 5.78513L17.4119 4.05131C17.8197 3.89749 18.2741 3.97315 18.5998 4.25473C18.9255 4.5337 19.0542 4.95866 18.9338 5.36018L17.6009 9.86812L20.7347 13.4557C21.0166 13.779 21.0795 14.2196 20.8962 14.6029C20.7155 14.9861 20.3242 15.2312 19.8836 15.2417L17.6829 15.2938L17.6473 13.9588L19.3169 13.9198L16.4431 10.6216C16.2022 10.3453 16.1201 9.97504 16.2213 9.6283L17.4503 5.47231L13.2407 7.07057C12.8904 7.20351 12.4936 7.16429 12.1816 6.96356L8.41278 4.56754L8.70832 8.87481C8.73293 9.23457 8.57142 9.57866 8.27586 9.80026L4.71766 12.4754L9.11063 13.5392C9.47737 13.6278 9.77297 13.8806 9.90162 14.2169L11.4454 18.1982L12.2692 16.8372L12.3184 16.7591L13.4708 17.5177C13.473 17.5155 13.4746 17.5132 13.4762 17.511L12.3841 19.3141C12.1761 19.6634 11.8039 19.8669 11.3933 19.8669C11.3605 19.8669 11.3275 19.8642 11.292 19.8616C10.8459 19.8251 10.4709 19.554 10.3149 19.1525L8.62901 14.801L3.86387 13.6486C3.43963 13.5469 3.11654 13.2262 3.02622 12.8195C2.93316 12.4102 3.09194 11.9956 3.43679 11.7375L7.29592 8.83823L6.97579 4.16345C6.94842 3.7463 7.16729 3.35774 7.54498 3.14655Z" fill="#4AE7FD"/>
</svg>
