<svg width="16" height="16" viewBox="0 0 16 16" fill="none" xmlns="http://www.w3.org/2000/svg">
<path fill-rule="evenodd" clip-rule="evenodd" d="M10.7863 8.68395C12.6969 9.68643 14 11.6856 14 14H2C2 11.6856 3.30309 9.68811 5.21373 8.68562C5.96296 9.3266 6.93618 9.70903 8 9.70903C9.06384 9.70903 10.037 9.32492 10.7863 8.68395ZM10.8432 9.71182C10.0064 10.2655 9.01717 10.5652 8 10.5652C6.98201 10.5652 5.99283 10.2662 5.15681 9.71349C4.53754 10.1244 4.01219 10.6656 3.61998 11.3004C3.27127 11.8649 3.03722 12.4909 2.92801 13.1438H13.072C12.9628 12.4906 12.7288 11.8642 12.38 11.2993C11.9885 10.6655 11.4642 10.124 10.8432 9.71182Z" fill="white"/>
<path fill-rule="evenodd" clip-rule="evenodd" d="M8 2C9.89356 2 11.4286 3.53331 11.4286 5.42475C11.4286 7.31619 9.89356 8.8495 8 8.8495C6.10645 8.8495 4.57143 7.31619 4.57143 5.42475C4.57143 3.53331 6.10645 2 8 2ZM8 2.85619C7.31315 2.85619 6.66761 3.12357 6.18192 3.6087C5.69625 4.09385 5.42857 4.73866 5.42857 5.42475C5.42857 6.11084 5.69625 6.75565 6.18192 7.2408C6.66761 7.72593 7.31315 7.99331 8 7.99331C8.68685 7.99331 9.3324 7.72593 9.81808 7.2408C10.3037 6.75565 10.5714 6.11084 10.5714 5.42475C10.5714 4.73866 10.3037 4.09385 9.81808 3.6087C9.3324 3.12357 8.68685 2.85619 8 2.85619Z" fill="white"/>
</svg>
