<svg width="24" height="24" viewBox="0 0 24 24" fill="none" xmlns="http://www.w3.org/2000/svg">
<path d="M18.5461 4.63524H5.45532C5.22936 4.63524 5.03712 4.71528 4.87656 4.87524C4.71696 5.03532 4.6368 5.2278 4.6368 5.4528V14.454C4.6368 14.6816 4.71708 14.8741 4.87656 15.0342C5.03712 15.1942 5.22936 15.2742 5.45532 15.2742H7.91016V17.8246L11.4766 15.2742H18.5466C18.7727 15.2742 18.9649 15.1942 19.1257 15.0342C19.2852 14.8741 19.3655 14.6816 19.3655 14.4541V5.4528C19.3655 5.22768 19.2851 5.0352 19.1257 4.87512C18.9649 4.71516 18.7722 4.63524 18.5461 4.63524ZM5.45484 3H18.5456C19.2227 3 19.8017 3.2376 20.2812 3.7176C20.7605 4.1976 21 4.77528 21 5.4528V14.454C21 15.1316 20.7605 15.7117 20.2812 16.1893C19.8017 16.6693 19.2227 16.9093 18.5456 16.9093H11.9996L6.27288 21V16.9094H5.45484C4.77732 16.9094 4.1988 16.6694 3.71928 16.1894C3.23976 15.7117 3 15.1315 3 14.454V5.4528C3 4.77516 3.23976 4.1976 3.71928 3.7176C4.1988 3.2376 4.77732 3 5.45484 3Z" fill="#8E97A5"/>
</svg>
