<svg width="24" height="24" viewBox="0 0 24 24" fill="none" xmlns="http://www.w3.org/2000/svg">
<path d="M13.3928 12.0016L20.7221 4.67062C21.0926 4.30004 21.0926 3.69172 20.7221 3.32114L20.682 3.28101C20.3115 2.91045 19.7033 2.91045 19.3328 3.28101L12.0035 10.6212L4.67412 3.27792C4.30364 2.90736 3.69543 2.90736 3.32495 3.27792L3.2848 3.31806C2.90507 3.68862 2.90507 4.29696 3.2848 4.66752L10.6142 12.0016L3.2848 19.3325C2.91432 19.703 2.91432 20.3114 3.2848 20.6819L3.32495 20.7221C3.69543 21.0926 4.30364 21.0926 4.67412 20.7221L12.0035 13.3911L19.3328 20.7221C19.7033 21.0926 20.3115 21.0926 20.682 20.7221L20.7221 20.6819C21.0926 20.3114 21.0926 19.703 20.7221 19.3325L13.3928 12.0016Z" fill="white"/>
</svg>
