<svg width="18" height="18" viewBox="0 0 18 18" fill="none" xmlns="http://www.w3.org/2000/svg">
<path d="M14.0484 15.5212C14.0484 16.1409 13.5562 16.6453 12.9521 16.6453H5.04844C4.75767 16.6449 4.47893 16.5263 4.27332 16.3156C4.06772 16.1049 3.95201 15.8192 3.95156 15.5212V3.58847H14.0484V15.5212ZM6.14531 1.57086C6.14531 1.44115 6.24375 1.34027 6.37031 1.34027H11.6438C11.7703 1.34027 11.8682 1.44115 11.8682 1.57086V2.2482H6.14531V1.57086ZM17.3391 2.2482H13.1766V1.57086C13.1766 0.706165 12.4875 0 11.6438 0H6.37031C5.96406 0.000913689 5.5747 0.166708 5.28744 0.461103C5.00017 0.755497 4.83839 1.15452 4.8375 1.57086V2.2482H0.660937C0.295312 2.2482 0 2.55084 0 2.92554C0 3.30024 0.295312 3.60288 0.660937 3.60288H2.62969V15.5212C2.62969 16.1786 2.88452 16.8091 3.33812 17.274C3.79173 17.7388 4.40695 18 5.04844 18H12.9516C13.5931 18 14.2083 17.7388 14.6619 17.274C15.1155 16.8091 15.3703 16.1786 15.3703 15.5212V3.58847H17.3391C17.7047 3.58847 18 3.28583 18 2.91113C18 2.53643 17.7047 2.2482 17.3391 2.2482ZM9 14.6133C9.36563 14.6133 9.66094 14.3106 9.66094 13.9359V6.73018C9.66094 6.35548 9.36619 6.05284 9 6.05284C8.63437 6.05284 8.33906 6.35548 8.33906 6.73018V13.9359C8.33906 14.3106 8.63437 14.6133 9 14.6133ZM5.92031 14.6133C6.28594 14.6133 6.58125 14.3106 6.58125 13.9359V6.73018C6.58125 6.35548 6.28594 6.05284 5.92031 6.05284C5.55469 6.05284 5.25938 6.35548 5.25938 6.73018V13.9359C5.27344 14.3106 5.56875 14.6133 5.92031 14.6133ZM12.0797 14.6133C12.4453 14.6133 12.7412 14.3106 12.7412 13.9359V6.73018C12.7412 6.35548 12.4459 6.05284 12.0797 6.05284C11.7146 6.05284 11.4187 6.35548 11.4187 6.73018V13.9359C11.4187 14.3106 11.7141 14.6133 12.0797 14.6133Z" fill="#8E97A5"/>
</svg>
