<svg width="24" height="24" viewBox="0 0 24 24" fill="none" xmlns="http://www.w3.org/2000/svg">
<rect x="3" y="3" width="18" height="18" rx="4" fill="#4AE7FD"/>
<path d="M17.4481 8.44285C17.603 8.30413 17.8118 8.22388 18.0313 8.21871C18.2507 8.21354 18.464 8.28385 18.6269 8.41508C18.7898 8.54632 18.8899 8.72842 18.9065 8.92368C18.9231 9.11895 18.8549 9.31243 18.716 9.46405L18.6572 9.52203L11.4013 15.9951C11.2516 16.1285 11.0518 16.2078 10.8405 16.2174C10.6291 16.2271 10.4213 16.1665 10.2571 16.0474L10.1921 15.9951L6.1611 12.3995C6.0054 12.2614 5.91523 12.0751 5.90928 11.8793C5.90333 11.6835 5.98204 11.4931 6.12912 11.3476C6.2762 11.2022 6.48036 11.1128 6.69932 11.0979C6.91827 11.0831 7.13523 11.144 7.30525 11.2679L7.37024 11.3203L10.7964 14.3763L17.4481 8.44336V8.44285Z" fill="#121212"/>
</svg>
