<svg width="24" height="24" viewBox="0 0 24 24" fill="none" xmlns="http://www.w3.org/2000/svg">
<path d="M20.1066 8.02478C19.8657 7.77863 19.5391 7.64035 19.1986 7.64035C18.8581 7.64035 18.5315 7.77863 18.2906 8.02478L13.3542 13.0731V4.29253C13.3489 3.94786 13.2113 3.61916 12.9711 3.37734C12.7308 3.13553 12.4073 3 12.0702 3C11.7332 3 11.4096 3.13553 11.1694 3.37734C10.9292 3.61916 10.7915 3.94786 10.7862 4.29253V13.0731L5.8498 8.02478C5.60893 7.77863 5.28235 7.64035 4.94184 7.64035C4.60132 7.64035 4.27474 7.77863 4.03388 8.02478C3.79309 8.27109 3.65783 8.60512 3.65783 8.95341C3.65783 9.3017 3.79309 9.63573 4.03388 9.88204L11.113 17.1217C11.2321 17.2438 11.3736 17.3406 11.5294 17.4066C11.6853 17.4726 11.8523 17.5065 12.0209 17.5062C12.0375 17.5062 12.0537 17.5046 12.0702 17.504C12.0868 17.5046 12.103 17.5062 12.1195 17.5062C12.2882 17.5065 12.4552 17.4726 12.611 17.4066C12.7668 17.3406 12.9084 17.2438 13.0275 17.1217L20.1066 9.88204C20.3474 9.63573 20.4826 9.3017 20.4826 8.95341C20.4826 8.60512 20.3474 8.27109 20.1066 8.02478ZM19.7161 21H4.26388C3.92685 20.9946 3.60543 20.8538 3.36898 20.6081C3.13253 20.3625 3 20.0316 3 19.6869C3 19.3422 3.13253 19.0113 3.36898 18.7656C3.60543 18.5199 3.92685 18.3792 4.26388 18.3737H19.7159C19.8845 18.3737 20.0515 18.4077 20.2073 18.4737C20.3631 18.5396 20.5046 18.6364 20.6239 18.7583C20.7431 18.8802 20.8377 19.025 20.9022 19.1843C20.9668 19.3436 21 19.5143 21 19.6868C21 19.8592 20.9668 20.03 20.9023 20.1893C20.8378 20.3486 20.7432 20.4934 20.624 20.6153C20.5048 20.7373 20.3632 20.834 20.2074 20.9C20.0516 20.966 19.8847 21 19.7161 21Z" fill="white"/>
</svg>
