<svg width="24" height="24" viewBox="0 0 24 24" fill="none" xmlns="http://www.w3.org/2000/svg">
<path d="M4.50641 17.2823V5.99892C4.50641 5.75398 4.70171 5.49058 5.02015 5.49058H18.9572C19.2757 5.49058 19.471 5.75398 19.471 5.99892V14.2629H20.9774V5.37364C20.9774 4.61666 20.3554 4 19.5892 4H4.38823C3.62197 4 3 4.61543 3 5.37364V17.9088C3 18.6657 3.62197 19.2812 4.38823 19.2812H15.2727V17.7906H5.0214C4.88514 17.7906 4.75447 17.737 4.65813 17.6417C4.56178 17.5464 4.50765 17.4171 4.50765 17.2823H4.50641ZM5.30502 15.2698C5.19013 15.4218 5.13454 15.6097 5.14848 15.7989C5.16242 15.9882 5.24495 16.1661 5.3809 16.3C5.44944 16.37 5.5315 16.4257 5.62221 16.4637C5.71293 16.5017 5.81043 16.5213 5.90895 16.5213C6.00746 16.5213 6.10497 16.5017 6.19568 16.4637C6.28639 16.4257 6.36846 16.37 6.437 16.3L9.01195 13.7509L11.1478 15.8618C11.2187 15.9332 11.2523 15.9566 11.3282 15.9603C11.4643 16.0308 11.6183 16.0605 11.7712 16.0456C11.9241 16.0308 12.0693 15.972 12.189 15.8766L12.1927 15.8717L18.4721 9.65828C18.5427 9.59043 18.5988 9.50931 18.6373 9.41969C18.6757 9.33007 18.6957 9.23375 18.696 9.13639C18.6932 8.94016 18.6128 8.75283 18.4721 8.61451C18.4039 8.54406 18.3221 8.488 18.2314 8.4497C18.1408 8.4114 18.0432 8.39166 17.9447 8.39166C17.8461 8.39166 17.7486 8.4114 17.6579 8.4497C17.5673 8.488 17.4854 8.54406 17.4172 8.61451L11.6702 14.2962L9.53565 12.1225L9.47345 12.0609L9.46101 12.0523C9.1463 11.8172 8.76067 11.8504 8.48079 12.1274L5.31372 15.2599L5.30377 15.2698H5.30502ZM9.92998 9.31487C10.2534 8.61328 10.0967 7.7529 9.53192 7.12393L9.52694 7.11901C8.95597 6.55404 8.04292 6.37064 7.25427 6.65251L7.24431 6.65744C6.52283 6.98238 6.0377 7.7529 6.0377 8.57758C6.0377 9.63982 6.91218 10.51 7.99068 10.51C8.82412 10.51 9.60282 10.03 9.93122 9.3161L9.92998 9.31487ZM7.40229 8.53943C7.40251 8.40789 7.43945 8.27897 7.50903 8.1669C7.57862 8.05482 7.67814 7.96394 7.79662 7.9043C7.9238 7.86067 8.06047 7.85159 8.1924 7.878C8.32433 7.90441 8.44669 7.96535 8.54672 8.05447C8.63592 8.1482 8.69592 8.2654 8.71953 8.39202C8.74313 8.51864 8.72935 8.6493 8.67982 8.76837C8.62037 8.88609 8.52893 8.98509 8.41577 9.05423C8.3026 9.12337 8.17219 9.15993 8.03919 9.15978C7.95584 9.16176 7.87295 9.14715 7.79542 9.1168C7.7179 9.08645 7.64733 9.04099 7.58792 8.98312C7.52851 8.92525 7.48146 8.85615 7.44957 8.77993C7.41768 8.7037 7.4016 8.62192 7.40229 8.53943ZM20.9625 16.2471C20.9413 16.2036 20.9114 16.1648 20.8746 16.1331C20.8378 16.1013 20.7949 16.0773 20.7485 16.0625L15.8524 14.45C15.8167 14.4397 15.78 14.4335 15.7429 14.4316C15.6837 14.4314 15.6254 14.4452 15.5726 14.4716C15.5199 14.4981 15.4742 14.5366 15.4393 14.5839C15.4045 14.6312 15.3815 14.6861 15.3722 14.7439C15.3629 14.8017 15.3676 14.8609 15.3859 14.9165L17.0117 19.7366C17.0345 19.8127 17.0816 19.8795 17.146 19.927C17.2103 19.9745 17.2885 20.0001 17.3687 20C17.5056 20 17.6349 19.9249 17.6959 19.8031L18.3863 18.4996L19.6601 19.76L19.6787 19.7748C19.7481 19.8417 19.8415 19.8788 19.9385 19.8779C20.0354 19.877 20.1281 19.8381 20.1962 19.7698L20.7771 19.1913C20.812 19.1577 20.8398 19.1175 20.8587 19.0731C20.8777 19.0287 20.8874 18.981 20.8874 18.9328C20.8874 18.8846 20.8777 18.8369 20.8587 18.7926C20.8398 18.7482 20.812 18.708 20.7771 18.6744L19.4884 17.4041L20.8057 16.7173C20.888 16.6725 20.9502 16.5987 20.9799 16.5105C20.9957 16.4678 21.0023 16.4223 20.9993 16.377C20.9963 16.3316 20.9837 16.2874 20.9625 16.2471ZM18.0666 17.1025L17.4919 18.1894L16.6559 15.7055L19.1699 16.5339L18.0678 17.1025H18.0666Z" fill="white"/>
</svg>
