<svg width="24" height="24" viewBox="0 0 24 24" fill="none" xmlns="http://www.w3.org/2000/svg">
<path d="M16.8238 11.2129C16.7238 11.2113 16.6276 11.1746 16.5525 11.1095C16.4774 11.0444 16.4282 10.955 16.4137 10.8574C15.9463 8.21942 15.569 7.96858 13.0502 7.53168C12.8287 7.49101 12.6645 7.32077 12.6645 7.10232C12.6645 6.89216 12.8287 6.72192 13.0502 6.69781C15.6591 6.35809 16.0692 5.95358 16.4145 3.3804C16.4389 3.14538 16.6107 3 16.8246 3C17.0461 3 17.2019 3.14538 17.2508 3.3804C17.7021 5.99426 18.0634 6.37391 20.6067 6.69781C20.8358 6.72192 21 6.89216 21 7.10232C21 7.32077 20.8358 7.49929 20.6067 7.53168C17.9565 7.85559 17.612 8.26763 17.2508 10.8574C17.235 10.9573 17.1832 11.0482 17.1049 11.1135C17.0266 11.1788 16.9271 11.2141 16.8246 11.2129H16.8238ZM17.7021 20.5271L5.86329 8.76102C5.5557 8.44913 5.3836 8.03119 5.3836 7.59609C5.3836 7.16099 5.5557 6.74305 5.86329 6.43115C6.51171 5.79991 7.5947 5.79991 8.22632 6.43115L20.0568 18.2048C20.3644 18.5151 20.5367 18.9319 20.5367 19.366C20.5367 19.8 20.3644 20.2168 20.0568 20.5271C19.4168 21.1576 18.3254 21.1576 17.7021 20.5271ZM10.4496 11.7063L11.1713 10.9621L7.49618 7.31324C7.39824 7.21454 7.26457 7.15827 7.12456 7.15678C6.98455 7.1553 6.84968 7.20873 6.74962 7.30533C6.64955 7.40192 6.59249 7.53376 6.59099 7.67185C6.58949 7.80994 6.64366 7.94296 6.7416 8.04165L10.4496 11.7071V11.7063ZM5.48523 17.9291C5.31339 17.9291 5.18203 17.8003 5.14919 17.63C4.96054 16.1084 4.9445 16.1084 3.28717 15.8094C3.10692 15.7687 3 15.6392 3 15.478C3 15.2911 3.10692 15.1699 3.32001 15.1458C4.9277 14.8866 4.9529 14.8467 5.14919 13.3251C5.18203 13.139 5.31339 13.0095 5.48523 13.0095C5.65784 13.0095 5.79837 13.139 5.82205 13.3168C6.0359 14.8309 6.0359 14.8384 7.68483 15.1458C7.76862 15.1526 7.8466 15.1907 7.90293 15.2523C7.95925 15.3139 7.98968 15.3943 7.98803 15.4772C7.98803 15.6392 7.86583 15.777 7.68483 15.8086C6.06034 16.0271 6.0275 16.0519 5.82205 17.63C5.81337 17.712 5.77424 17.7879 5.71219 17.8432C5.65014 17.8984 5.56957 17.929 5.486 17.9291H5.48523ZM8.42337 20.4865C8.30881 20.4865 8.21792 20.4051 8.20188 20.2838C8.03768 19.3859 8.04532 19.3859 7.05321 19.1758C6.93865 19.1509 6.86456 19.0861 6.86456 18.9731C6.86456 18.8601 6.93788 18.7871 7.06925 18.7547C8.04532 18.5528 8.03768 18.5528 8.20112 17.63C8.20716 17.5764 8.23314 17.5268 8.27404 17.4909C8.31494 17.4551 8.36786 17.4354 8.42261 17.4357C8.52953 17.4357 8.61965 17.5163 8.63646 17.63C8.8167 18.5521 8.8083 18.5521 9.78513 18.7547C9.83719 18.7628 9.88438 18.7896 9.91764 18.8299C9.9509 18.8702 9.9679 18.9212 9.96538 18.9731C9.96538 19.0861 9.89129 19.1509 9.77673 19.1758C8.8083 19.3859 8.8167 19.3859 8.63646 20.2921C8.61965 20.4051 8.53793 20.4865 8.42261 20.4865H8.42337Z" fill="#4AE7FD"/>
</svg>
