<svg width="24" height="24" viewBox="0 0 24 24" fill="none" xmlns="http://www.w3.org/2000/svg">
<path d="M11.9963 10.6989C11.2613 10.6989 10.6673 11.3034 10.6673 12.0379C10.6673 12.7784 11.2613 13.3768 11.9963 13.3768C12.1708 13.377 12.3436 13.3426 12.5049 13.2754C12.6662 13.2082 12.8127 13.1097 12.9362 12.9854C13.0596 12.8611 13.1575 12.7135 13.2243 12.551C13.291 12.3886 13.3253 12.2145 13.3253 12.0386C13.3254 11.8628 13.2912 11.6886 13.2245 11.526C13.1578 11.3635 13.0599 11.2158 12.9364 11.0914C12.813 10.9671 12.6664 10.8684 12.5051 10.8012C12.3437 10.734 12.1708 10.6995 11.9963 10.6997V10.6989ZM17.2965 10.2229H17.2343C16.8463 10.2243 16.4737 10.0704 16.1983 9.79514C15.9229 9.51982 15.7673 9.14561 15.7658 8.75476C15.7658 8.49408 15.8903 8.19939 15.8962 8.19334C16.0433 7.86465 15.93 7.46795 15.6352 7.26394L14.1323 6.42445C14.0262 6.37996 13.9126 6.35661 13.7978 6.35571C13.5652 6.35571 13.338 6.44638 13.1902 6.60506C13.0267 6.77506 12.465 7.25716 12.0278 7.25716C11.5928 7.25791 11.025 6.7645 10.86 6.59448C10.7445 6.472 10.5951 6.38749 10.4311 6.35203C10.2672 6.31657 10.0964 6.33181 9.94125 6.39575L8.38124 7.25261C8.07 7.46796 7.95675 7.86466 8.10375 8.19334C8.10375 8.1994 8.23425 8.48804 8.23425 8.75477C8.23357 8.94836 8.19504 9.13993 8.12086 9.31852C8.04669 9.49711 7.93833 9.65924 7.80197 9.79564C7.6656 9.93204 7.50391 10.04 7.32611 10.1135C7.14832 10.1869 6.95791 10.2244 6.76575 10.2237H6.70349C6.426 10.2237 6.19875 10.4617 6.1245 10.8357C6.12 10.8584 6 11.5044 6 12.0092C6 12.5139 6.11925 13.1547 6.1245 13.1834C6.19275 13.5514 6.42 13.7954 6.70349 13.7954H6.76575C7.5765 13.7954 8.23425 14.4528 8.23425 15.2636C8.23425 15.525 8.10975 15.8197 8.10375 15.825C7.95675 16.1537 8.07 16.5504 8.36475 16.7544L9.84525 17.5826C9.95775 17.634 10.0665 17.6506 10.1738 17.6506C10.4063 17.6506 10.6335 17.5546 10.7865 17.3959C10.9965 17.1692 11.5575 16.7038 11.9715 16.7038C12.42 16.7038 12.9982 17.2252 13.1685 17.4065C13.2844 17.5284 13.4338 17.6124 13.5976 17.6479C13.7614 17.6833 13.9319 17.6684 14.0873 17.6052L15.618 16.7605C15.93 16.5451 16.038 16.1424 15.8955 15.8197C15.8955 15.8137 15.7658 15.519 15.7658 15.2583C15.7658 14.4475 16.4235 13.7894 17.2343 13.7894H17.2965C17.574 13.7894 17.8013 13.5514 17.8755 13.1774C17.8755 13.1721 18 12.52 18 12.0039C18 11.5052 17.8807 10.8584 17.8755 10.8357C17.8072 10.467 17.58 10.2237 17.2965 10.2237V10.2229ZM12.0375 14.6848C11.3414 14.6846 10.6738 14.4059 10.1816 13.91C9.68931 13.4141 9.41269 12.7415 9.41249 12.0402C9.41249 10.5803 10.5885 9.39552 12.0375 9.39552C13.4865 9.39552 14.6625 10.5803 14.6625 12.0402C14.6625 13.5 13.4865 14.6848 12.0375 14.6848Z" fill="#4AE7FD"/>
<path d="M12 0.5C18.3513 0.5 23.5 5.64873 23.5 12C23.5 18.3513 18.3513 23.5 12 23.5C5.64873 23.5 0.5 18.3513 0.5 12C0.5 5.64873 5.64873 0.5 12 0.5Z" fill="url(#paint0_linear_367_184)" stroke="url(#paint1_linear_367_184)"/>
<defs>
<linearGradient id="paint0_linear_367_184" x1="12" y1="0" x2="12" y2="24" gradientUnits="userSpaceOnUse">
<stop stop-color="#0E59FA"/>
<stop offset="1" stop-color="#00ABD8" stop-opacity="0"/>
</linearGradient>
<linearGradient id="paint1_linear_367_184" x1="12" y1="0" x2="12" y2="24" gradientUnits="userSpaceOnUse">
<stop stop-color="#4AE7FD"/>
<stop offset="1" stop-color="#4AE7FD" stop-opacity="0"/>
</linearGradient>
</defs>
</svg>
