<svg width="24" height="24" viewBox="0 0 24 24" fill="none" xmlns="http://www.w3.org/2000/svg">
<path d="M12 0.5C18.3513 0.5 23.5 5.64873 23.5 12C23.5 18.3513 18.3513 23.5 12 23.5C5.64873 23.5 0.5 18.3513 0.5 12C0.5 5.64873 5.64873 0.5 12 0.5Z" fill="#121212" stroke="url(#paint0_linear_367_233)"/>
<path d="M15.3357 11.8133C15.3945 11.7543 15.4334 11.6786 15.4469 11.5966C15.4602 11.515 15.4473 11.4312 15.41 11.3573C15.3727 11.2834 15.3129 11.223 15.2392 11.1849L12.7371 9.89963L13.1688 7.10333C13.1845 7.02478 13.1738 6.94326 13.1384 6.87134C13.103 6.79943 13.0447 6.74111 12.9726 6.70539C12.8182 6.62857 12.6637 6.68695 12.5471 6.80756L10.625 8.745L8.0419 7.49896C7.88745 7.42214 7.68049 7.42214 7.56002 7.54582L7.56697 7.5535C7.50957 7.61768 7.47332 7.69781 7.46311 7.78311C7.45289 7.8684 7.4692 7.95477 7.50983 8.03056L8.75159 10.6609L6.8264 12.5684C6.7067 12.689 6.64801 12.845 6.72446 12.9978C6.75755 13.0667 6.81345 13.1222 6.88277 13.1549C6.95209 13.1876 7.03062 13.1956 7.10518 13.1776L9.89218 12.7466L11.1764 15.2771C11.2138 15.351 11.2739 15.4111 11.3478 15.4488C11.4218 15.4864 11.5059 15.4998 11.588 15.4869C11.6702 15.4741 11.746 15.4353 11.8042 15.3762C11.8629 15.3171 11.9013 15.241 11.9139 15.1588L12.3548 12.371L15.1195 11.9239C15.2015 11.9107 15.2772 11.872 15.3357 11.8133ZM13.514 12.6399L13.1031 12.7251C12.9953 12.7389 12.8946 12.786 12.8151 12.8597C12.7356 12.9334 12.6813 13.0301 12.6599 13.1361L12.6043 13.4841L16.0747 17.4474C16.1666 17.5535 16.2913 17.6263 16.4294 17.6541C16.5674 17.6819 16.7108 17.6632 16.8369 17.601C16.9827 17.5325 17.1167 17.4415 17.2338 17.3314C17.377 17.1782 17.4975 17.0053 17.5914 16.8182C17.6606 16.6859 17.6829 16.5343 17.6549 16.3878C17.6269 16.2414 17.5501 16.1086 17.4369 16.0108L13.514 12.6399ZM16.0878 8.56831C16.0903 8.55227 16.0876 8.53587 16.0801 8.52145C16.0729 8.5077 16.0616 8.49645 16.0479 8.48918C16.0341 8.48191 16.0184 8.47897 16.0029 8.48074L15.4623 8.57216L15.2137 8.0805C15.2074 8.066 15.1963 8.05409 15.1822 8.04681C15.1682 8.03953 15.152 8.03732 15.1365 8.04055C15.1212 8.04404 15.1075 8.05238 15.0975 8.06431C15.0875 8.07623 15.0816 8.09109 15.0808 8.10662L14.9974 8.63822L14.4484 8.74577C14.4316 8.74821 14.416 8.75559 14.4034 8.76695C14.3909 8.77831 14.3821 8.79314 14.3781 8.80953C14.3762 8.82596 14.3794 8.84258 14.3872 8.85715C14.3951 8.87171 14.4073 8.88352 14.4221 8.89096L14.9171 9.15984L14.8299 9.68684C14.8263 9.70141 14.8275 9.71674 14.8333 9.73058C14.8392 9.74441 14.8493 9.75601 14.8623 9.76366C14.8751 9.76988 14.8896 9.77174 14.9035 9.76897C14.9175 9.76619 14.9301 9.75893 14.9395 9.74829L15.3295 9.35266L15.8191 9.60003C15.8336 9.60686 15.8498 9.60906 15.8656 9.6063C15.8814 9.60355 15.8959 9.59599 15.9071 9.58466C15.9191 9.5732 15.9267 9.55802 15.9288 9.54164C15.9311 9.52568 15.9287 9.5094 15.9218 9.49478L15.6747 9.00389L16.0608 8.60826C16.0735 8.59784 16.0829 8.58396 16.0878 8.56831ZM11.2714 6.78221C11.2733 6.76858 11.2711 6.7547 11.2652 6.74227C11.2592 6.73016 11.2494 6.72028 11.2373 6.71407C11.2252 6.70786 11.2115 6.70562 11.198 6.7077L10.7401 6.78452L10.5293 6.36814C10.5241 6.35609 10.5149 6.34617 10.5032 6.34002C10.4916 6.33388 10.4781 6.33187 10.4652 6.33434C10.4522 6.33721 10.4406 6.34427 10.432 6.35441C10.4235 6.36455 10.4186 6.37722 10.4181 6.39042L10.347 6.8406L9.88369 6.93125C9.86968 6.93398 9.8567 6.94053 9.8462 6.95015C9.83571 6.95978 9.8281 6.97212 9.82423 6.98579C9.82271 6.99977 9.82553 7.01389 9.83229 7.02624C9.83905 7.03859 9.84944 7.0486 9.86207 7.05493L10.2814 7.28539L10.2042 7.73173C10.2007 7.74483 10.2017 7.75873 10.2072 7.77115C10.2127 7.78357 10.2222 7.79377 10.2343 7.8001C10.2455 7.80594 10.2584 7.80775 10.2707 7.80523C10.2831 7.80271 10.2943 7.79601 10.3022 7.78627L10.6335 7.45133L11.0475 7.66105C11.06 7.66754 11.0743 7.66978 11.0883 7.66743C11.1022 7.66507 11.115 7.65824 11.1247 7.64799C11.1337 7.63774 11.1398 7.62528 11.1424 7.61189C11.1451 7.59826 11.1429 7.58414 11.1363 7.57194L10.9293 7.15326L11.2552 6.81832C11.264 6.80813 11.2697 6.79557 11.2714 6.78221ZM7.33299 9.57698C7.32644 9.5687 7.31757 9.56255 7.3075 9.55931C7.29756 9.5566 7.287 9.55716 7.2774 9.56089C7.2678 9.56463 7.25967 9.57135 7.25422 9.58005L7.06039 9.87889L6.72446 9.78363C6.71493 9.78048 6.7046 9.78066 6.69519 9.78416C6.68578 9.78765 6.67785 9.79424 6.67272 9.80284C6.66778 9.81158 6.66578 9.82168 6.66703 9.83163C6.66828 9.84159 6.67271 9.85088 6.67967 9.85815L6.88895 10.1301L6.69898 10.4374C6.69297 10.4465 6.68976 10.4572 6.68976 10.4681C6.68976 10.479 6.69297 10.4897 6.69898 10.4988C6.70576 10.5069 6.71497 10.5126 6.72526 10.5151C6.73555 10.5176 6.74637 10.5168 6.75612 10.5127L7.09668 10.3936L7.29978 10.6678C7.30497 10.6762 7.31278 10.6826 7.32199 10.686C7.3312 10.6895 7.34131 10.6899 7.35075 10.6871C7.35938 10.6835 7.36661 10.6772 7.37134 10.6691C7.37608 10.6611 7.37807 10.6518 7.377 10.6425L7.36465 10.283L7.69285 10.1562C7.70265 10.1524 7.71097 10.1455 7.71666 10.1367C7.72234 10.1279 7.72509 10.1175 7.72451 10.1071C7.72375 10.0965 7.72 10.0864 7.7137 10.0779C7.70735 10.0699 7.69874 10.064 7.68899 10.061L7.35384 9.96493L7.33916 9.60771C7.3398 9.59692 7.3371 9.5862 7.33144 9.57698H7.33299Z" fill="#8E97A5"/>
<defs>
<linearGradient id="paint0_linear_367_233" x1="12" y1="0" x2="12" y2="24" gradientUnits="userSpaceOnUse">
<stop stop-color="#8E97A5"/>
<stop offset="1" stop-color="#8E97A5" stop-opacity="0"/>
</linearGradient>
</defs>
</svg>
