<svg width="24" height="24" viewBox="0 0 24 24" fill="none" xmlns="http://www.w3.org/2000/svg">
<path d="M12 0.5C18.3513 0.5 23.5 5.64873 23.5 12C23.5 18.3513 18.3513 23.5 12 23.5C5.64873 23.5 0.5 18.3513 0.5 12C0.5 5.64873 5.64873 0.5 12 0.5Z" fill="#121212" stroke="url(#paint0_linear_367_249)"/>
<path d="M12.8272 8.50653C12.6948 8.78995 12.68 9.11418 12.786 9.40847C12.8921 9.70276 13.1103 9.94322 13.3932 10.0774L13.8301 10.276C14.1906 10.4434 14.4753 10.7395 14.6282 11.1059L14.7669 11.4321C14.837 11.5999 14.9456 11.749 15.0839 11.8672C15.2222 11.9854 15.3865 12.0695 15.5633 12.1127C15.7402 12.1559 15.9247 12.157 16.1021 12.1159C16.2794 12.0748 16.4446 11.9926 16.5844 11.876L16.5836 16.2296C16.5872 16.5008 16.4855 16.7629 16.2997 16.9607L16.2515 17.0092C16.1468 17.1139 16.0221 17.1966 15.8848 17.2523C15.7475 17.3079 15.6004 17.3355 15.4523 17.3332H7.13143C6.98327 17.3355 6.83617 17.3079 6.69887 17.2523C6.56157 17.1966 6.43688 17.1139 6.33219 17.0092C6.22567 16.9094 6.14112 16.7886 6.08395 16.6543C6.02677 16.5201 5.99821 16.3755 6.00009 16.2296V9.61014C6.00009 9.30653 6.11103 9.0474 6.33219 8.8309C6.43579 8.72693 6.55915 8.64467 6.69502 8.58897C6.83089 8.53327 6.97653 8.50524 7.1234 8.50653H7.33434L8.46569 10.7134H9.75031L8.61897 8.50653H10.1627L11.294 10.7134H12.5787L11.4473 8.50653H12.8272ZM15.857 6.66669C15.9683 6.66669 16.068 6.73594 16.1088 6.84163L16.2439 7.17621C16.4682 7.73803 16.8998 8.19251 17.4497 8.44602L17.8339 8.6206C17.935 8.66726 18 8.77004 18 8.88339C18.0003 8.93849 17.9849 8.99255 17.9554 9.03917C17.926 9.08579 17.8839 9.12304 17.8339 9.14653L17.427 9.33132C16.8909 9.57895 16.467 10.018 16.2387 10.5621L16.1063 10.8708C16.0862 10.9206 16.0517 10.9633 16.0073 10.9935C15.9628 11.0236 15.9104 11.0399 15.8566 11.0403C15.8028 11.04 15.7503 11.0237 15.7058 10.9936C15.6613 10.9634 15.6268 10.9207 15.6067 10.8708L15.4753 10.5621C15.2471 10.0179 14.823 9.57876 14.2866 9.33132L13.8804 9.14653C13.8309 9.12268 13.7892 9.08529 13.7602 9.03871C13.7311 8.99213 13.7159 8.93827 13.7162 8.88339C13.7162 8.7704 13.7801 8.66835 13.8804 8.6206L14.264 8.44602C14.8137 8.19219 15.2451 7.73744 15.4691 7.17549L15.6048 6.84163C15.6242 6.79049 15.6586 6.74641 15.7036 6.71518C15.7485 6.68395 15.8019 6.66705 15.8566 6.66669H15.857Z" fill="#8E97A5"/>
<defs>
<linearGradient id="paint0_linear_367_249" x1="12" y1="0" x2="12" y2="24" gradientUnits="userSpaceOnUse">
<stop stop-color="#8E97A5"/>
<stop offset="1" stop-color="#8E97A5" stop-opacity="0"/>
</linearGradient>
</defs>
</svg>
