<svg width="24" height="24" viewBox="0 0 24 24" fill="none" xmlns="http://www.w3.org/2000/svg">
<path d="M12 0.5C18.3513 0.5 23.5 5.64873 23.5 12C23.5 18.3513 18.3513 23.5 12 23.5C5.64873 23.5 0.5 18.3513 0.5 12C0.5 5.64873 5.64873 0.5 12 0.5Z" fill="#121212" stroke="url(#paint0_linear_367_195)"/>
<path d="M16.5455 6.33334C16.666 6.33334 16.7816 6.37927 16.8669 6.46101C16.9521 6.54276 17 6.65363 17 6.76924V9.38463C17 9.50023 16.9521 9.61111 16.8669 9.69285C16.7816 9.7746 16.666 9.82052 16.5455 9.82052H15.1818V17.6667H7.45455C7.33399 17.6667 7.21838 17.6208 7.13313 17.539C7.04789 17.4573 7 17.3464 7 17.2308V6.76924C7 6.65363 7.04789 6.54276 7.13313 6.46101C7.21838 6.37927 7.33399 6.33334 7.45455 6.33334H16.5455ZM16.5455 14.1795C16.6051 14.1795 16.6643 14.1908 16.7194 14.2127C16.7746 14.2346 16.8247 14.2667 16.8669 14.3072C16.9091 14.3476 16.9426 14.3957 16.9654 14.4486C16.9882 14.5015 17 14.5582 17 14.6154V17.2308C17 17.3464 16.9521 17.4573 16.8669 17.539C16.7816 17.6208 16.666 17.6667 16.5455 17.6667H15.6364V14.1795H16.5455ZM13.5909 15.0513H8.59091C8.56106 15.0513 8.5315 15.0569 8.50392 15.0679C8.47634 15.0788 8.45128 15.0949 8.43017 15.1151C8.40906 15.1354 8.39231 15.1594 8.38089 15.1858C8.36947 15.2123 8.36359 15.2406 8.36359 15.2692C8.36359 15.2979 8.36947 15.3262 8.38089 15.3527C8.39231 15.3791 8.40906 15.4031 8.43017 15.4234C8.45128 15.4436 8.47634 15.4597 8.50392 15.4706C8.5315 15.4816 8.56106 15.4872 8.59091 15.4872H13.5909C13.6512 15.4872 13.709 15.4642 13.7516 15.4234C13.7942 15.3825 13.8182 15.327 13.8182 15.2692C13.8182 15.2114 13.7942 15.156 13.7516 15.1151C13.709 15.0743 13.6512 15.0513 13.5909 15.0513ZM13.5909 13.7436H8.59091C8.56106 13.7436 8.5315 13.7492 8.50392 13.7602C8.47634 13.7711 8.45128 13.7872 8.43017 13.8074C8.40906 13.8277 8.39231 13.8517 8.38089 13.8781C8.36947 13.9046 8.36359 13.9329 8.36359 13.9615C8.36359 13.9902 8.36947 14.0185 8.38089 14.045C8.39231 14.0714 8.40906 14.0954 8.43017 14.1157C8.45128 14.1359 8.47634 14.152 8.50392 14.1629C8.5315 14.1739 8.56106 14.1795 8.59091 14.1795H13.5909C13.6512 14.1795 13.709 14.1565 13.7516 14.1157C13.7942 14.0748 13.8182 14.0194 13.8182 13.9615C13.8182 13.9037 13.7942 13.8483 13.7516 13.8074C13.709 13.7666 13.6512 13.7436 13.5909 13.7436ZM16.5455 10.2564C16.6051 10.2564 16.6643 10.2677 16.7194 10.2896C16.7746 10.3115 16.8247 10.3436 16.8669 10.3841C16.9091 10.4246 16.9426 10.4726 16.9654 10.5255C16.9882 10.5784 17 10.6351 17 10.6923V13.3077C17 13.3649 16.9882 13.4216 16.9654 13.4745C16.9426 13.5274 16.9091 13.5755 16.8669 13.6159C16.8247 13.6564 16.7746 13.6885 16.7194 13.7104C16.6643 13.7323 16.6051 13.7436 16.5455 13.7436H15.6364V10.2564H16.5455ZM13.5909 12.4359H8.59091C8.53063 12.4359 8.47282 12.4589 8.4302 12.4997C8.38758 12.5406 8.36364 12.5961 8.36364 12.6539C8.36364 12.7117 8.38758 12.7671 8.4302 12.808C8.47282 12.8488 8.53063 12.8718 8.59091 12.8718H13.5909C13.6512 12.8718 13.709 12.8488 13.7516 12.808C13.7942 12.7671 13.8182 12.7117 13.8182 12.6539C13.8182 12.5961 13.7942 12.5406 13.7516 12.4997C13.709 12.4589 13.6512 12.4359 13.5909 12.4359ZM9.57591 8.51196C9.50318 8.51196 9.44273 8.52504 9.39273 8.5525C9.34422 8.57828 9.30278 8.61473 9.27182 8.65886C9.24091 8.70245 9.21273 8.75693 9.18545 8.82319L9.11636 8.99319L8.44091 10.6352C8.41364 10.7015 8.39409 10.7529 8.38182 10.7895C8.37005 10.8243 8.36392 10.8606 8.36364 10.8972C8.36412 10.9276 8.37125 10.9576 8.38456 10.9852C8.39787 11.0129 8.41706 11.0375 8.44091 11.0576C8.49273 11.1042 8.55182 11.1273 8.61909 11.1273C8.69818 11.1273 8.75545 11.1055 8.79 11.0611C8.82591 11.0179 8.86727 10.9321 8.91591 10.8061L9.04182 10.4813H10.1145L10.2405 10.7978C10.2577 10.8375 10.2768 10.8824 10.3009 10.9334C10.3236 10.9848 10.3464 11.0232 10.3668 11.048C10.389 11.0737 10.4171 11.0943 10.4488 11.108C10.4806 11.1218 10.5152 11.1284 10.55 11.1273C10.6227 11.1273 10.6827 11.1042 10.7345 11.0545C10.7578 11.034 10.7766 11.0092 10.7896 10.9816C10.8027 10.9539 10.8097 10.924 10.8105 10.8937C10.8105 10.8357 10.7845 10.7464 10.7295 10.6221L10.0405 8.99014C10.0091 8.90732 9.98136 8.84324 9.96091 8.79398C9.94039 8.74559 9.91432 8.69954 9.88318 8.65668C9.85163 8.61362 9.81028 8.57799 9.76227 8.5525C9.70499 8.52341 9.64068 8.50942 9.57591 8.51196ZM9.57318 9.0516L9.97227 10.0951H9.18318L9.57318 9.0516Z" fill="#8E97A5"/>
<defs>
<linearGradient id="paint0_linear_367_195" x1="12" y1="0" x2="12" y2="24" gradientUnits="userSpaceOnUse">
<stop stop-color="#8E97A5"/>
<stop offset="1" stop-color="#8E97A5" stop-opacity="0"/>
</linearGradient>
</defs>
</svg>
