<svg width="24" height="24" viewBox="0 0 24 24" fill="none" xmlns="http://www.w3.org/2000/svg">
<path d="M15.77 13.8417V15.25C15.77 15.8459 15.2805 16.3334 14.6822 16.3334H7.42113C6.82284 16.3334 6.33333 15.8459 6.33333 15.25V8.75002C6.33333 8.15419 6.82284 7.66669 7.42113 7.66669H14.6822C15.2805 7.66669 15.77 8.15419 15.77 8.75002V9.99585L17.4561 8.53335C17.5649 8.47919 17.7009 8.47919 17.8096 8.53335C17.9184 8.58752 18 8.69585 18 8.83127V15.0063C18 15.1146 17.9184 15.25 17.8096 15.3042C17.7009 15.3584 17.5649 15.3584 17.4561 15.3042L15.77 13.8417ZM12.4794 12.1896C13.0505 11.8646 12.8057 11.7292 12.4794 11.5396C11.9083 11.2146 11.0109 10.7 10.467 10.375C9.8143 9.99585 9.8143 10.5646 9.8143 10.5646V13.1646C9.8143 13.1646 9.8143 13.7334 10.3854 13.3813C11.0925 13.0021 11.7995 12.5959 12.4794 12.1896Z" fill="#4AE7FD"/>
<path d="M12 0.5C18.3513 0.5 23.5 5.64873 23.5 12C23.5 18.3513 18.3513 23.5 12 23.5C5.64873 23.5 0.5 18.3513 0.5 12C0.5 5.64873 5.64873 0.5 12 0.5Z" fill="url(#paint0_linear_367_278)" stroke="url(#paint1_linear_367_278)"/>
<defs>
<linearGradient id="paint0_linear_367_278" x1="12" y1="0" x2="12" y2="24" gradientUnits="userSpaceOnUse">
<stop stop-color="#0E59FA"/>
<stop offset="1" stop-color="#00ABD8" stop-opacity="0"/>
</linearGradient>
<linearGradient id="paint1_linear_367_278" x1="12" y1="0" x2="12" y2="24" gradientUnits="userSpaceOnUse">
<stop stop-color="#4AE7FD"/>
<stop offset="1" stop-color="#4AE7FD" stop-opacity="0"/>
</linearGradient>
</defs>
</svg>
