<svg width="24" height="24" viewBox="0 0 24 24" fill="none" xmlns="http://www.w3.org/2000/svg">
<path d="M11.325 8.82104L9.75087 7H7.96331L9.53743 8.8158H11.325V8.82104ZM15.962 8.82104L14.3879 7.00523H12.6003L14.1798 8.82104H15.962ZM13.6462 8.82104L12.072 7.00523H10.2845L11.8586 8.82104H13.6462ZM16.6343 7H14.9215L16.5009 8.8158H17.3333V7.68551C17.328 7.29827 17.0292 7 16.6343 7ZM7.42971 7H7.36035C6.96548 7 6.66667 7.29304 6.66667 7.68027V8.8158H9.00917L7.42971 7ZM6.66667 16.3197C6.66667 16.707 6.96548 17 7.36035 17H16.6343C17.0292 17 17.328 16.707 17.328 16.3197V9.2763H6.66667V16.3197ZM10.3752 11.3223C10.3752 10.9351 10.7007 10.752 11.0689 10.752C11.1863 10.752 11.325 10.7729 11.4424 10.8409L14.0837 12.3428C14.4039 12.5102 14.5266 12.8974 14.3558 13.2114C14.2971 13.3265 14.2011 13.4155 14.0837 13.4783L11.4424 14.9801C11.325 15.0481 11.2129 15.0691 11.0689 15.0691C10.6953 15.0691 10.3752 14.8859 10.3752 14.4987V11.3223Z" fill="#4AE7FD"/>
<path d="M12 0.5C18.3513 0.5 23.5 5.64873 23.5 12C23.5 18.3513 18.3513 23.5 12 23.5C5.64873 23.5 0.5 18.3513 0.5 12C0.5 5.64873 5.64873 0.5 12 0.5Z" fill="url(#paint0_linear_367_259)" stroke="url(#paint1_linear_367_259)"/>
<defs>
<linearGradient id="paint0_linear_367_259" x1="12" y1="0" x2="12" y2="24" gradientUnits="userSpaceOnUse">
<stop stop-color="#0E59FA"/>
<stop offset="1" stop-color="#00ABD8" stop-opacity="0"/>
</linearGradient>
<linearGradient id="paint1_linear_367_259" x1="12" y1="0" x2="12" y2="24" gradientUnits="userSpaceOnUse">
<stop stop-color="#4AE7FD"/>
<stop offset="1" stop-color="#4AE7FD" stop-opacity="0"/>
</linearGradient>
</defs>
</svg>
