<svg width="24" height="24" viewBox="0 0 24 24" fill="none" xmlns="http://www.w3.org/2000/svg">
<path d="M12 0.5C18.3513 0.5 23.5 5.64873 23.5 12C23.5 18.3513 18.3513 23.5 12 23.5C5.64873 23.5 0.5 18.3513 0.5 12C0.5 5.64873 5.64873 0.5 12 0.5Z" fill="#121212" stroke="url(#paint0_linear_367_263)"/>
<path d="M15.0846 11.3704C15.1346 11.3678 15.1845 11.3752 15.2315 11.392C15.2785 11.4089 15.3217 11.4348 15.3584 11.4683C15.3951 11.5019 15.4246 11.5423 15.4452 11.5873C15.4658 11.6322 15.4771 11.6808 15.4784 11.7301V13.3492C15.4784 13.381 15.4742 13.4127 15.466 13.4435C15.2427 14.2002 14.7684 14.8611 14.1192 15.3201C13.5833 15.7024 12.9573 15.9432 12.3006 16.0195C12.278 16.0217 12.2569 16.0319 12.2414 16.0484C12.226 16.0648 12.2172 16.0863 12.2167 16.1088V16.7672C12.2167 16.8665 12.3035 16.9471 12.4085 16.9471H13.3681C13.7911 16.9471 14.136 17.2702 14.136 17.6666H9.53042C9.53042 17.2702 9.87459 16.9471 10.2982 16.9471H11.2571C11.3068 16.9482 11.3549 16.93 11.391 16.8963C11.427 16.8626 11.4481 16.8162 11.4496 16.7672V16.1095C11.449 16.0871 11.44 16.0656 11.4244 16.0493C11.4088 16.033 11.3877 16.0229 11.365 16.021C9.86876 15.844 8.60362 14.8344 8.20038 13.4435C8.19191 13.413 8.1875 13.3815 8.18725 13.3499V11.7373C8.18913 11.6405 8.22901 11.5481 8.29851 11.4796C8.368 11.4112 8.4617 11.372 8.55987 11.3704C8.60993 11.3676 8.66004 11.3749 8.70722 11.3916C8.7544 11.4083 8.79769 11.4343 8.83455 11.4678C8.8714 11.5014 8.90105 11.5419 8.92176 11.5869C8.94246 11.632 8.9538 11.6807 8.95509 11.7301V13.1887C8.95509 13.2664 8.96821 13.3441 8.99446 13.4175C9.40208 14.5509 10.5447 15.328 11.8332 15.328C13.1209 15.328 14.2643 14.5509 14.6719 13.4183C14.6982 13.3448 14.7115 13.2674 14.7113 13.1894V11.7381C14.7132 11.6411 14.7531 11.5486 14.8228 11.4801C14.8925 11.4116 14.9863 11.3725 15.0846 11.3711V11.3704ZM11.8325 6.33331C12.4126 6.33331 12.969 6.56075 13.3793 6.96559C13.7895 7.37043 14.02 7.91951 14.02 8.49204V12.4497C14.02 13.0222 13.7895 13.5713 13.3793 13.9762C12.969 14.381 12.4126 14.6084 11.8325 14.6084C11.2523 14.6084 10.6959 14.381 10.2856 13.9762C9.87537 13.5713 9.6449 13.0222 9.6449 12.4497V8.49204C9.6449 7.91951 9.87537 7.37043 10.2856 6.96559C10.6959 6.56075 11.2523 6.33331 11.8325 6.33331ZM16.0071 9.96933L17.4654 10.6889C17.5511 10.7321 17.616 10.807 17.646 10.8972C17.676 10.9874 17.6686 11.0856 17.6255 11.1705C17.5824 11.2554 17.5071 11.32 17.4159 11.3503C17.3247 11.3806 17.2251 11.3741 17.1387 11.3322L15.6804 10.6126C15.5947 10.5694 15.5298 10.4946 15.4998 10.4044C15.4698 10.3142 15.4772 10.2159 15.5203 10.131C15.5634 10.0462 15.6387 9.98154 15.7299 9.95125C15.8211 9.92096 15.9207 9.92746 16.0071 9.96933ZM8.14861 10.1298C8.19192 10.2151 8.19913 10.3139 8.16863 10.4045C8.13814 10.495 8.07244 10.5699 7.986 10.6126L6.52763 11.3322C6.44128 11.3741 6.34167 11.3806 6.25049 11.3503C6.15931 11.32 6.08396 11.2554 6.04086 11.1705C5.99775 11.0856 5.9904 10.9874 6.02038 10.8972C6.05037 10.807 6.11527 10.7321 6.20095 10.6889L7.65932 9.96933C7.74577 9.92659 7.84588 9.91948 7.93764 9.94957C8.0294 9.97967 8.10529 10.0445 8.14861 10.1298ZM17.628 7.97107C17.6714 8.05638 17.6786 8.15517 17.6481 8.24572C17.6176 8.33627 17.5519 8.41115 17.4654 8.45391L16.0071 9.17348C15.9642 9.19508 15.9174 9.2081 15.8695 9.21178C15.8215 9.21547 15.7733 9.20974 15.7275 9.19494C15.6818 9.18014 15.6395 9.15656 15.6031 9.12555C15.5666 9.09454 15.5368 9.05672 15.5152 9.01427C15.4937 8.97182 15.4808 8.92558 15.4775 8.87821C15.4741 8.83084 15.4803 8.78329 15.4957 8.73829C15.511 8.69329 15.5352 8.65173 15.5669 8.61601C15.5986 8.5803 15.6372 8.55112 15.6804 8.53018L17.1387 7.8106C17.2252 7.76786 17.3253 7.76075 17.4171 7.79084C17.5088 7.82094 17.5847 7.88576 17.628 7.97107ZM6.03834 7.97107C6.08166 7.88595 6.15742 7.82126 6.24901 7.79118C6.34059 7.7611 6.44052 7.76809 6.5269 7.8106L7.98527 8.53018C8.06866 8.57456 8.13127 8.64923 8.15984 8.73837C8.18841 8.82752 8.18069 8.92414 8.13832 9.00776C8.09595 9.09139 8.02225 9.15545 7.93284 9.18639C7.84344 9.21732 7.74533 9.21269 7.65932 9.17348L6.20095 8.45391C6.1147 8.41115 6.04914 8.33639 6.01866 8.24602C5.98818 8.15564 5.99525 8.05702 6.03834 7.97179V7.97107Z" fill="#8E97A5"/>
<defs>
<linearGradient id="paint0_linear_367_263" x1="12" y1="0" x2="12" y2="24" gradientUnits="userSpaceOnUse">
<stop stop-color="#8E97A5"/>
<stop offset="1" stop-color="#8E97A5" stop-opacity="0"/>
</linearGradient>
</defs>
</svg>
