<svg width="24" height="24" viewBox="0 0 24 24" fill="none" xmlns="http://www.w3.org/2000/svg">
<path d="M12.8836 10.8849L15.4586 12.6233C15.4971 12.6505 15.5424 12.6641 15.5899 12.6641C15.6057 12.6641 15.6216 12.6618 15.6351 12.6595C15.6962 12.6482 15.7505 12.6119 15.7845 12.5598L16.357 11.7031C16.3909 11.651 16.4045 11.5875 16.3932 11.5263C16.3819 11.4651 16.3456 11.4107 16.2936 11.3767L14.6282 10.2639L16.2936 9.1511C16.3456 9.1171 16.3819 9.06271 16.3932 9.00151C16.4045 8.94032 16.3932 8.87686 16.357 8.82473L15.7845 7.96802C15.7676 7.94216 15.7457 7.92 15.72 7.90286C15.6943 7.88572 15.6655 7.87396 15.6351 7.8683C15.6193 7.86603 15.6057 7.86376 15.5899 7.86376C15.5424 7.86376 15.4971 7.87736 15.4586 7.90456L12.8836 9.64065C12.6754 9.78116 12.551 10.0123 12.551 10.2639C12.5532 10.5132 12.6754 10.7467 12.8836 10.8849ZM8.89661 8.28985H7.86705C7.73807 8.28985 7.63172 8.39637 7.63172 8.52556V12C7.63172 12.1292 7.73807 12.2357 7.86705 12.2357H8.89661C9.02559 12.2357 9.13194 12.1292 9.13194 12V8.52556C9.13194 8.39637 9.02559 8.28985 8.89661 8.28985ZM16.4497 13.7588L15.522 13.3055C15.4938 13.2912 15.463 13.2829 15.4315 13.281C15.4 13.279 15.3684 13.2835 15.3387 13.2941C15.2799 13.3145 15.2301 13.3599 15.2052 13.4165C14.5241 14.8874 13.0986 15.8892 11.4852 16.0274C11.3562 16.0388 11.2612 16.1521 11.2703 16.2813L11.3585 17.3125C11.3698 17.4326 11.4716 17.5278 11.5916 17.5278H11.6119C13.757 17.3465 15.651 16.0207 16.5583 14.067C16.6127 13.9537 16.5651 13.8131 16.4497 13.7588ZM20.6585 9.54092C20.3892 8.58902 19.9683 7.69605 19.4094 6.88693C18.8641 6.09595 18.1989 5.40015 17.4295 4.81994C16.6624 4.23974 15.8116 3.78872 14.9043 3.47822C13.972 3.16092 13.0013 3 12.0124 3H11.9853C10.2792 3 8.61829 3.48502 7.1769 4.39839C5.73552 5.31176 4.59056 6.61043 3.86195 8.15613C3.13333 9.69957 2.85954 11.4107 3.06771 13.106C3.27815 14.8013 3.95924 16.3923 5.04311 17.7137C5.04537 17.7182 5.0499 17.7205 5.05216 17.725L5.87129 18.5953C5.89618 18.6225 5.92785 18.6429 5.95953 18.6542C7.61814 20.166 9.76551 21 12.0124 21C13.6711 21 15.298 20.5399 16.7122 19.6696C17.5562 19.1506 18.3029 18.5024 18.932 17.7431C19.5452 17.002 20.034 16.168 20.3847 15.2705C20.7354 14.3707 20.9368 13.4279 20.9866 12.4646C21.0409 11.4765 20.93 10.4928 20.6585 9.54092ZM19.2895 13.6454C19.1017 14.484 18.7736 15.2773 18.3165 16.0025C17.8708 16.7074 17.3141 17.3306 16.6624 17.8542C16.0108 18.3777 15.2821 18.7834 14.497 19.0645C13.6914 19.3523 12.8474 19.4974 11.9876 19.4974C10.1185 19.4974 8.32865 18.8038 6.9461 17.5437L6.1745 16.7323C5.63369 16.0682 5.21508 15.3226 4.92771 14.518C4.64713 13.7316 4.50231 12.9088 4.49326 12.0725C4.48421 11.2362 4.61545 10.4112 4.88019 9.62025C5.15172 8.80886 5.55902 8.05188 6.08851 7.37421C6.80581 6.45857 7.69734 5.74238 8.74048 5.2415C9.74741 4.75875 10.8675 4.50264 11.9853 4.50264C13.1008 4.50264 14.1802 4.74742 15.1939 5.2279C15.97 5.59733 16.6715 6.09141 17.2756 6.69655C17.8662 7.28582 18.3505 7.96575 18.7148 8.71821C19.0813 9.47066 19.3167 10.2707 19.4162 11.1002C19.5203 11.9501 19.4773 12.8068 19.2895 13.6454Z" fill="#4AE7FD"/>
</svg>
