<svg width="24" height="24" viewBox="0 0 24 24" fill="none" xmlns="http://www.w3.org/2000/svg">
<path d="M15.8072 3C14.3924 3 13.0359 3.56372 12.0026 4.56404C10.9692 3.56057 9.6101 3.00186 8.19811 3C5.27848 3 3 5.3433 3 8.33323C3 11.8261 5.86665 14.5065 10.217 18.5741L11.6105 19.8508C11.8384 20.0497 12.1775 20.0497 12.3895 19.8508L13.5923 18.751L13.783 18.5741C18.128 14.5176 21 11.8261 21 8.33323C21.0053 5.3433 18.7215 3 15.8072 3ZM8.35178 4.14954C9.62349 4.18823 10.8263 4.84038 11.6529 5.8407L12.0026 6.2552L12.3524 5.8407C13.1949 4.84038 14.3818 4.18823 15.6535 4.14954C18.0645 4.07217 19.9031 5.9015 19.9031 8.33323C19.9031 9.04616 19.7442 9.737 19.4474 10.4389H14.811L14.3924 9.5104C14.2864 9.28381 14.0692 9.14564 13.8254 9.13459C13.587 9.13459 13.3591 9.28381 13.2585 9.5104L12.2146 11.7376L10.8952 8.85826C10.7892 8.62061 10.572 8.44376 10.3176 8.4327C10.0792 8.42165 9.86193 8.54324 9.74006 8.74772L8.71739 10.4389H4.54725C4.24522 9.74805 4.09155 9.05169 4.09155 8.33323C4.09155 5.89044 5.92493 4.06112 8.35178 4.14954ZM13.0571 17.723L12.3948 18.3365C12.1669 18.5465 11.8278 18.5465 11.6052 18.3365L10.9429 17.723C8.36238 15.3079 6.32234 13.4012 5.15661 11.5884H9.32146L10.2328 10.0741L11.5999 13.064C11.7059 13.3127 11.9497 13.462 12.2093 13.462C12.4742 13.462 12.7127 13.3127 12.8187 13.0475L13.8254 10.9308L14.101 11.5332H18.854C17.7147 13.368 15.6641 15.2858 13.0571 17.723Z" fill="#4AE7FD"/>
</svg>
