<svg width="40" height="40" viewBox="0 0 40 40" fill="none" xmlns="http://www.w3.org/2000/svg">
<g id="empty/fail">
<path id="Vector" opacity="0.3" d="M30.5767 7H26.0689L23.7983 9.39265H30.5767C31.4119 9.39381 32.2126 9.74492 32.8033 10.369C33.394 10.9931 33.7265 11.8393 33.728 12.7221V23.4603L26.4974 15.8471C26.0937 15.4267 25.5497 15.191 24.983 15.191C24.4162 15.191 23.8722 15.4267 23.4685 15.8471L20.672 18.8059L25.7642 24.1676L18.3165 32H30.5781C32.0143 31.9988 33.3915 31.3959 34.4078 30.3233C35.4241 29.2507 35.9967 27.796 36 26.2779V12.7206C35.9963 11.2026 35.4234 9.74798 34.4068 8.67566C33.3902 7.60335 32.0129 7.00077 30.5767 7ZM16.7513 22.9206C16.3479 23.3468 15.8009 23.5862 15.2306 23.5862C14.6603 23.5862 14.1133 23.3468 13.7099 22.9206L12.537 21.6735C12.1337 21.2473 11.5867 21.0079 11.0163 21.0079C10.446 21.0079 9.89901 21.2473 9.49565 21.6735L6.272 25.0809V12.7221C6.27347 11.8393 6.606 10.9931 7.19671 10.369C7.78741 9.74492 8.58811 9.39381 9.4233 9.39265H20.3423L22.6143 7H9.4233C7.98687 7.00077 6.60933 7.60355 5.5927 8.67619C4.57607 9.74882 4.00331 11.2038 4 12.7221V26.2779C4.00331 27.7962 4.57607 29.2512 5.5927 30.3238C6.60933 31.3964 7.98687 31.9992 9.4233 32H14.8577L22.3082 24.1676L18.937 20.6191L16.7513 22.9206Z" fill="#8E97A5"/>
<path id="Vector_2" opacity="0.3" d="M18 14.995C18 15.0948 18 15.2061 17.9886 15.3059C17.9744 15.3687 17.9744 15.43 17.9503 15.4927C17.8331 16.1942 17.4718 16.8313 16.9305 17.2904C16.3892 17.7495 15.7031 18.001 14.9943 18C14.2003 17.9989 13.4391 17.6817 12.8778 17.1181C12.3164 16.5545 12.0008 15.7905 12 14.9936C12 13.3478 13.3472 12 14.9943 12C15.7546 12 16.4666 12.2881 16.9896 12.7744C17.6149 13.3107 18 14.1079 18 14.9936" fill="#8E97A5"/>
</g>
</svg>
