<svg width="68" height="64" viewBox="0 0 68 64" fill="none" xmlns="http://www.w3.org/2000/svg">
<path opacity="0.3" d="M38.6875 11.039C37.9371 12.7396 37.8532 14.685 38.4541 16.4507C39.055 18.2164 40.2919 19.6592 41.895 20.4642L44.3705 21.656C46.4132 22.6604 48.0265 24.4366 48.8933 26.6354L49.6791 28.5926C50.0763 29.5995 50.6916 30.4936 51.4755 31.2029C52.2594 31.9122 53.19 32.4168 54.1921 32.676C55.1943 32.9352 56.2401 32.9417 57.2451 32.6951C58.2501 32.4485 59.1862 31.9555 59.978 31.2561L59.9739 57.3776C59.9943 59.0048 59.4176 60.5772 58.3649 61.7643L58.092 62.0552C57.4987 62.6836 56.7921 63.1795 56.0141 63.5134C55.2361 63.8474 54.4025 64.0126 53.5629 63.9992H6.41144C5.57185 64.0126 4.73829 63.8474 3.96027 63.5134C3.18225 63.1795 2.47564 62.6836 1.88242 62.0552C1.27878 61.4564 0.799701 60.7312 0.475691 59.9259C0.151681 59.1206 -0.0101545 58.2527 0.000493291 57.3776V17.6607C0.000493291 15.8391 0.629179 14.2843 1.88242 12.9853C2.46947 12.3614 3.1685 11.8679 3.93843 11.5337C4.70836 11.1995 5.53369 11.0313 6.36594 11.039H7.56128L13.9722 24.2802H21.2518L14.8408 11.039H23.5886L29.9996 24.2802H37.2791L30.8682 11.039H38.6875ZM55.8564 0C56.4872 0 57.0517 0.415493 57.2834 1.04967L58.0485 3.05716C59.3198 6.42805 61.7654 9.15493 64.8814 10.676L67.059 11.7235C67.6319 12.0034 68 12.6201 68 13.3002C68.0018 13.6308 67.9142 13.9552 67.7475 14.2349C67.5808 14.5146 67.3419 14.7381 67.059 14.8791L64.7531 15.9878C61.7151 17.4736 59.313 20.1081 58.0196 23.3727L57.2689 25.2249C57.1549 25.5235 56.9596 25.7796 56.7078 25.9607C56.4559 26.1417 56.1589 26.2396 55.8543 26.2417C55.5494 26.24 55.2519 26.1424 54.9997 25.9613C54.7474 25.7802 54.5518 25.5239 54.4377 25.2249L53.6932 23.3727C52.4 20.1072 49.9969 17.4725 46.9576 15.9878L44.6558 14.8791C44.3754 14.7359 44.1391 14.5116 43.9743 14.2321C43.8096 13.9527 43.7232 13.6295 43.7252 13.3002C43.7252 12.6223 44.0871 12.01 44.6558 11.7235L46.8294 10.676C49.9445 9.15299 52.3886 6.42453 53.6581 3.05279L54.4274 1.04967C54.5372 0.742821 54.7323 0.478317 54.987 0.290958C55.2417 0.103599 55.5441 0.00216449 55.8543 0H55.8564Z" fill="#8E97A5"/>
</svg>
