<svg width="64" height="68" viewBox="0 0 64 68" fill="none" xmlns="http://www.w3.org/2000/svg">
<path opacity="0.3" d="M32.0001 0C36.9042 0.00019252 41.4141 3.68863 44.6994 10.3857C44.9274 10.8507 45.1476 11.3279 45.3605 11.8145C45.9064 11.7479 46.4475 11.6916 46.9816 11.6484C54.6747 11.0275 60.2609 12.9284 62.713 17C65.1651 21.0716 64.0889 26.6602 59.6818 32.7363C59.3757 33.1583 59.0539 33.5799 58.7208 34C59.054 34.4201 59.3757 34.8417 59.6818 35.2637C64.0889 41.3398 65.165 46.9285 62.713 51C60.5655 54.5656 56.0134 56.4668 49.7492 56.4668C48.8601 56.4668 47.9376 56.4278 46.9816 56.3506C46.4475 56.3074 45.9064 56.2521 45.3605 56.1855C45.1476 56.6721 44.9275 57.1493 44.6994 57.6143C41.414 64.3114 36.9042 67.9998 32.0001 68C27.0959 68 22.5852 64.3116 19.2999 57.6143C19.0719 57.1494 18.8527 56.6719 18.6398 56.1855C18.0937 56.2521 17.5519 56.3074 17.0177 56.3506C16.0624 56.4276 15.1387 56.4668 14.2501 56.4668C7.98529 56.4667 3.43375 54.5658 1.28628 51C-1.16577 46.9284 -0.0886631 41.3399 4.3185 35.2637C4.62455 34.8417 4.94537 34.4201 5.27846 34C4.94537 33.5799 4.62447 33.1582 4.3185 32.7363C-0.0887378 26.6601 -1.16584 21.0717 1.28628 17C3.7384 12.9284 9.32534 11.0274 17.0177 11.6484C17.5519 11.6916 18.0937 11.7479 18.6398 11.8145C18.8527 11.328 19.0719 10.8506 19.2999 10.3857C22.5852 3.68845 27.0959 0 32.0001 0ZM32.0001 52.6699C28.55 54.0194 25.1288 55.0339 21.8566 55.6729C21.9579 55.8915 22.0604 56.1087 22.1652 56.3223C24.8594 61.8142 28.4445 64.9639 32.0001 64.9639C35.5556 64.9636 39.14 61.8141 41.8341 56.3223C41.9389 56.1087 42.0414 55.8916 42.1427 55.6729C38.8707 55.0339 35.4503 54.0193 32.0001 52.6699ZM6.91811 36.9961C3.30403 41.9788 2.25061 46.5303 4.02846 49.4824C5.80651 52.4343 10.4448 53.8353 16.7521 53.3262C16.9972 53.3064 17.2444 53.2829 17.4923 53.2578C16.4335 50.2216 15.64 46.8742 15.1339 43.335C12.1898 41.1452 9.56305 38.8122 7.34975 36.415C7.20299 36.6084 7.05857 36.8024 6.91811 36.9961ZM56.6496 36.415C54.4362 38.8122 51.8095 41.1452 48.8654 43.335C48.3594 46.8742 47.5658 50.2216 46.507 53.2578C46.755 53.283 47.0021 53.3064 47.2472 53.3262C53.5549 53.8359 58.1927 52.4342 59.9708 49.4824C61.7486 46.5303 60.6962 41.9789 57.0822 36.9961C56.9416 36.8023 56.7964 36.6085 56.6496 36.415ZM18.7667 45.8594C19.2529 48.3215 19.8917 50.6534 20.6749 52.8037C23.0092 52.3788 25.436 51.7436 27.9035 50.916C26.3423 50.1891 24.7842 49.398 23.2414 48.5439C21.6984 47.6899 20.204 46.7921 18.7667 45.8594ZM45.2326 45.8594C43.7953 46.7921 42.301 47.6899 40.758 48.5439C39.2152 49.3978 37.6578 50.1892 36.0968 50.916C38.5641 51.7435 40.9902 52.3789 43.3244 52.8037C44.1077 50.6534 44.7464 48.3215 45.2326 45.8594ZM32.0001 18.6191C29.6066 19.6106 27.1995 20.7703 24.8244 22.085C22.4492 23.3997 20.1981 24.818 18.1056 26.3096C17.8044 28.7926 17.6496 31.3707 17.6496 34C17.6496 36.6294 17.8045 39.2074 18.1056 41.6904C20.198 43.1819 22.4492 44.5994 24.8244 45.9141C27.1996 47.2288 29.6065 48.3894 32.0001 49.3809C34.3937 48.3895 36.7998 47.2287 39.1749 45.9141C41.5502 44.5994 43.8021 43.182 45.8947 41.6904C46.1958 39.2075 46.3507 36.6294 46.3507 34C46.3507 31.3706 46.1948 28.7926 45.8937 26.3096C43.8012 24.8181 41.5502 23.3996 39.1749 22.085C36.7999 20.7704 34.3936 19.6105 32.0001 18.6191ZM31.9972 24C32.2069 24 32.4147 24.0357 32.6066 24.1045C32.7972 24.1703 32.9713 24.2649 33.1193 24.3828L39.5294 29.5996C39.8499 29.8604 40.0001 30.1911 40.0001 30.5215C40.0001 30.8519 39.85 31.1825 39.5294 31.4434C38.9097 31.9476 37.8845 31.9476 37.2648 31.4434L33.6105 28.4688V42.6953C33.6105 43.4083 32.884 44 32.008 44C31.1318 44 30.4054 43.4084 30.4054 42.6953V28.4521L26.7296 31.4434C26.11 31.9477 25.0847 31.9476 24.465 31.4434C23.8453 30.939 23.8453 30.104 24.465 29.5996L30.8751 24.3828C31.0246 24.2611 31.1957 24.174 31.3878 24.1045C31.5797 24.0357 31.7875 24 31.9972 24ZM14.6701 28.9434C12.689 30.5781 10.9016 32.2745 9.35073 34C10.9016 35.7255 12.6889 37.4219 14.6701 39.0566C14.5461 37.397 14.4826 35.7081 14.4826 34C14.4826 32.292 14.5461 30.6029 14.6701 28.9434ZM49.3292 28.9434C49.4532 30.603 49.5167 32.292 49.5167 34C49.5167 35.708 49.4532 37.3971 49.3292 39.0566C51.3105 37.4219 53.0976 35.7255 54.6486 34C53.0976 32.2744 51.3104 30.5781 49.3292 28.9434ZM59.9708 18.5176C58.1928 15.5657 53.5542 14.1643 47.2472 14.6738C47.0021 14.6936 46.755 14.717 46.507 14.7422C47.5658 17.7784 48.3594 21.1258 48.8654 24.665C51.8095 26.8549 54.4363 29.1878 56.6496 31.585C56.7964 31.3915 56.9417 31.1977 57.0822 31.0039C60.6962 26.0211 61.7488 21.4697 59.9708 18.5176ZM14.2912 14.5713C9.24332 14.5714 5.56645 15.9639 4.02846 18.5176C2.25061 21.4698 3.30395 26.0211 6.91811 31.0039C7.05847 31.1975 7.20309 31.3907 7.34975 31.584C9.56297 29.1869 12.19 26.8547 15.1339 24.665C15.64 21.1258 16.4345 17.7784 17.4933 14.7422C17.2451 14.717 16.9974 14.6936 16.7521 14.6738C15.9009 14.6051 15.0787 14.5713 14.2912 14.5713ZM20.6749 15.1953C19.8917 17.3458 19.2529 19.6783 18.7667 22.1406C20.204 21.2079 21.6983 20.3101 23.2414 19.4561C24.7843 18.602 26.3423 17.8109 27.9035 17.084C25.4361 16.2564 23.0092 15.6202 20.6749 15.1953ZM43.3244 15.1953C40.9901 15.6203 38.5641 16.2565 36.0968 17.084C37.6578 17.8107 39.2152 18.6021 40.758 19.4561C42.301 20.3101 43.7953 21.2079 45.2326 22.1406C44.7464 19.6783 44.1077 17.3458 43.3244 15.1953ZM32.0001 3.03613C28.4444 3.03613 24.8594 6.18567 22.1652 11.6777C22.0606 11.8911 21.9579 12.1076 21.8566 12.3262C25.1287 12.9652 28.55 13.9806 32.0001 15.3301C35.4503 13.9806 38.8707 12.9651 42.1427 12.3262C42.0414 12.1077 41.9388 11.8911 41.8341 11.6777C39.1401 6.18587 35.5557 3.03636 32.0001 3.03613Z" fill="#8E97A5"/>
</svg>
