<svg width="88" height="88" viewBox="0 0 88 88" fill="none" xmlns="http://www.w3.org/2000/svg">
<g opacity="0.3">
<path d="M40.7927 29.2381C40.7927 28.7121 41.2351 28.2857 41.781 28.2857H46.7218C47.2676 28.2857 47.7101 28.7121 47.7101 29.2381V58.1379C47.7101 58.6638 47.2676 59.0902 46.7218 59.0902H41.781C41.2351 59.0902 40.7927 58.6638 40.7927 58.1379V29.2381Z" fill="#8E97A5"/>
<path d="M19.8408 32.2514C22.8523 27.0219 30.6561 27.0219 33.6676 32.2514L39.3103 42.0496V55.9698L28.0653 36.199C27.6915 35.5417 26.7127 35.5388 26.3348 36.1939L16.3778 53.4573H23.5426L26.3638 49.3785C26.7598 48.806 27.6357 48.8146 28.0195 49.3948L30.707 53.4573L34.6322 59.7143H5.70412C4.95081 59.7143 4.47444 58.9349 4.83982 58.3001L19.8408 32.2514Z" fill="#8E97A5"/>
<path d="M67.3023 28.2857C76.1296 28.2858 83.2858 35.1817 83.2858 43.688C83.2858 52.1944 76.1296 59.0902 67.3023 59.0903H52.0857C51.9202 59.0903 51.7703 59.0275 51.6586 58.9262L58.6859 53.0738H67.1812C72.5603 53.0737 76.921 48.8715 76.9211 43.688C76.9211 38.5045 72.5603 34.3024 67.1812 34.3023H58.8008L51.6596 28.448C51.7711 28.3475 51.9209 28.2857 52.0857 28.2857H67.3023Z" fill="#8E97A5"/>
<path d="M64.9705 42.8494L51.6673 33.0989V54.277L64.9767 44.3609C65.491 43.9777 65.488 43.2287 64.9705 42.8494Z" fill="#8E97A5"/>
</g>
</svg>
