<svg width="24" height="24" viewBox="0 0 24 24" fill="none" xmlns="http://www.w3.org/2000/svg">
<path d="M21 18.1001C21 18.5971 20.5971 19 20.1001 19H3.8999C3.4029 19 3 18.5971 3 18.1001C3 17.6031 3.4029 17.2002 3.8999 17.2002H20.1001C20.5971 17.2002 21 17.6031 21 18.1001Z" fill="#8E97A5"/>
<path d="M13.5 13.6997C13.5 14.1967 13.0971 14.5996 12.6001 14.5996H3.8999C3.4029 14.5996 3 14.1967 3 13.6997C3 13.2027 3.4029 12.7998 3.8999 12.7998H12.6001C13.0971 12.7998 13.5 13.2027 13.5 13.6997Z" fill="#8E97A5"/>
<path d="M18 9.30029C18 9.7973 17.5971 10.2002 17.1001 10.2002H3.8999C3.4029 10.2002 3 9.7973 3 9.30029C3 8.80329 3.4029 8.40039 3.8999 8.40039H17.1001C17.5971 8.40039 18 8.80329 18 9.30029Z" fill="#8E97A5"/>
<path d="M21 4.8999C21 5.3969 20.5971 5.7998 20.1001 5.7998H3.8999C3.4029 5.7998 3 5.3969 3 4.8999C3 4.4029 3.4029 4 3.8999 4H20.1001C20.5971 4 21 4.4029 21 4.8999Z" fill="#8E97A5"/>
</svg>
