<svg width="24" height="24" viewBox="0 0 24 24" fill="none" xmlns="http://www.w3.org/2000/svg">
<path d="M19.5646 10.1697H7.63189L19.6248 6.48185C20.3766 6.27347 20.8051 5.55158 20.5806 4.86741L20.2732 3.93026C20.0935 3.38254 19.5279 3 18.8977 3C18.7591 3.00005 18.6212 3.01829 18.4883 3.05416L18.4785 3.05682L4.01555 7.50424C3.26369 7.71262 2.83521 8.43451 3.05966 9.11868L3.36714 10.0558C3.45191 10.3142 3.62259 10.5358 3.84538 10.6978C3.6686 10.914 3.56385 11.1813 3.56385 11.4704V19.6993C3.56385 20.4165 4.20774 21 4.99922 21H19.5646C20.3561 21 21 20.4165 21 19.6993V11.4705C21 10.7532 20.3561 10.1697 19.5646 10.1697ZM19.9275 11.4704V12.7769H15.7213L17.1789 11.1417H19.5646C19.7647 11.1417 19.9275 11.2891 19.9275 11.4704ZM4.9992 11.1417H8.64958L7.04758 12.5934C6.9904 12.645 6.9469 12.7078 6.92034 12.7769H4.63642V11.4704C4.63642 11.2891 4.79918 11.1417 4.99922 11.1417H4.9992ZM10.0538 11.2437C10.0873 11.2133 10.1163 11.179 10.1399 11.1417H15.8002L14.4721 12.6316C14.4334 12.6751 14.4032 12.7242 14.3829 12.7769H8.36185L10.0537 11.2438L10.0538 11.2437ZM4.33213 8.43286L4.34196 8.43022L18.8016 3.98382C18.8329 3.976 18.8652 3.97201 18.8977 3.97197C19.0568 3.97197 19.1996 4.06874 19.2451 4.20725L19.5525 5.14442C19.6095 5.31818 19.4999 5.5016 19.3081 5.55325L19.2983 5.55589L4.83871 10.0023C4.80742 10.0101 4.7751 10.0141 4.74264 10.0142C4.58353 10.0142 4.44069 9.91739 4.39525 9.77885L4.08779 8.8417C4.03075 8.66795 4.14036 8.48453 4.33213 8.43286ZM19.5646 20.0281H4.9992C4.79918 20.0281 4.6364 19.8806 4.6364 19.6993V13.7488H19.9274V19.6993C19.9275 19.8806 19.7647 20.0281 19.5646 20.0281Z" fill="#4AE7FD"/>
</svg>
