<svg width="16" height="16" viewBox="0 0 16 16" fill="none" xmlns="http://www.w3.org/2000/svg">
<path d="M13.0431 6.77983H5.08793L13.0832 4.32123C13.5844 4.18231 13.8701 3.70105 13.7204 3.24494L13.5155 2.62017C13.3957 2.25502 13.0186 2 12.5985 2C12.506 2.00003 12.4141 2.0122 12.3255 2.0361L12.319 2.03788L2.67703 5.00282C2.17579 5.14175 1.89014 5.62301 2.03977 6.07912L2.24476 6.70389C2.30127 6.87613 2.41506 7.02384 2.56359 7.13186C2.44573 7.27599 2.3759 7.45422 2.3759 7.64696V13.1329C2.3759 13.611 2.80516 14 3.33281 14H13.0431C13.5707 14 14 13.611 14 13.1329V7.64697C14 7.16882 13.5707 6.77983 13.0431 6.77983ZM13.285 7.64696V8.51794H10.4809L11.4526 7.42777H13.0431C13.1765 7.42777 13.285 7.5261 13.285 7.64696ZM3.3328 7.42777H5.76639L4.69839 8.39558C4.66027 8.43003 4.63126 8.47186 4.61356 8.51794H3.09095V7.64696C3.09095 7.5261 3.19945 7.42777 3.33281 7.42777H3.3328ZM6.70251 7.49583C6.72489 7.47555 6.74421 7.45266 6.75994 7.42777H10.5334L9.64808 8.4211C9.62226 8.45004 9.60214 8.4828 9.58861 8.51794H5.57457L6.70249 7.49584L6.70251 7.49583ZM2.88809 5.62191L2.89464 5.62015L12.5344 2.65588C12.5553 2.65067 12.5768 2.64801 12.5984 2.64798C12.7045 2.64798 12.7997 2.71249 12.83 2.80483L13.035 3.42961C13.073 3.54545 12.9999 3.66773 12.8721 3.70216L12.8655 3.70393L3.22581 6.6682C3.20494 6.67342 3.1834 6.67608 3.16176 6.6761C3.05569 6.6761 2.96046 6.61159 2.93017 6.51924L2.72519 5.89447C2.68717 5.77863 2.76024 5.65635 2.88809 5.62191ZM13.0431 13.3521H3.3328C3.19945 13.3521 3.09093 13.2537 3.09093 13.1329V9.16588H13.285V13.1329C13.285 13.2537 13.1765 13.3521 13.0431 13.3521Z" fill="white"/>
</svg>
