<svg width="80" height="80" viewBox="0 0 80 80" fill="none" xmlns="http://www.w3.org/2000/svg">
<path opacity="0.3" d="M9.60172 26.8394H70.3983C71.2851 26.8394 72 26.0868 72 25.1533C72 22.36 69.8483 20.1022 67.2017 20.1022H44.7983C42.1792 20.1022 39.9519 17.8951 40 15.1379C40.0481 12.3085 37.8758 10 35.2017 10H12.8052C10.1517 10 8.00687 12.265 8.00687 15.0511V25.1533C8 26.0868 8.7218 26.8394 9.60172 26.8394ZM70.3983 29.8978H9.60172C8.7218 29.8978 8 30.6576 8 31.5839V66.9489C8 69.735 10.1517 72 12.7983 72H67.1948C69.8415 72 71.9931 69.735 71.9931 66.9489V31.5767C72 30.6504 71.2782 29.8978 70.3983 29.8978ZM60.7742 61.0294C60.2724 61.5649 59.5643 61.8978 58.8013 61.8978H46.7987C45.252 61.8978 44.0009 60.5735 44.0009 58.9525C44.0009 58.142 44.3102 57.4039 44.8258 56.8756C45.3276 56.3401 46.0357 56.0072 46.7987 56.0072H58.7944C60.3411 56.0072 61.5923 57.3315 61.5923 58.9525C61.5991 59.7558 61.2829 60.4939 60.7742 61.0294Z" fill="#8E97A5"/>
</svg>
