<svg width="48" height="48" viewBox="0 0 48 48" fill="none" xmlns="http://www.w3.org/2000/svg">
<path fill-rule="evenodd" clip-rule="evenodd" d="M19.0094 6.03102C19.2621 6.09328 19.4868 6.2463 19.6369 6.46323L23.2235 11.6477H34.3757C35.6891 11.6477 36.9549 12.15 37.8909 13.0519C38.8272 13.9545 39.3578 15.1837 39.3578 16.4703V20.8235H40.7744C42.9744 20.8238 44.5278 22.9483 43.8321 25.005L39.4082 38.0749C39.3838 38.1531 39.3537 38.2309 39.3096 38.3044C39.0942 38.6632 39.0722 38.7752 38.8856 39.1544C38.7049 39.5216 38.4658 39.9058 37.9748 40.5048C37.4122 41.1909 36.8102 41.6039 36.128 41.8138C35.4963 42.0081 34.8613 42 34.3757 42H8.98216C7.66867 42 6.4029 41.4977 5.46695 40.5958C4.53052 39.6933 4.00025 38.464 4 37.1773V10.8226C4.00025 9.536 4.53052 8.30662 5.46695 7.40418C6.4029 6.5023 7.66867 6 8.98216 6H18.7492L19.0094 6.03102ZM13.8993 22.9412C13.4475 22.942 13.0434 23.2213 12.8898 23.6401L7.19203 39.1833C7.18376 39.2058 7.17017 39.2258 7.16055 39.2474C7.66693 39.6535 8.31042 39.8823 8.98216 39.8823H34.3757C34.9262 39.8823 35.2234 39.8748 35.4879 39.7934C35.7014 39.7276 35.9616 39.5884 36.3022 39.173C36.7147 38.6698 36.8564 38.4214 36.9507 38.23C37.0316 38.0656 37.1642 37.7387 37.3935 37.3387L41.7943 24.335C42.0261 23.6495 41.5075 22.9414 40.7744 22.9412H13.8993ZM8.98216 8.11764C8.22331 8.11764 7.49899 8.40783 6.96957 8.91796C6.44119 9.42711 6.14926 10.113 6.149 10.8226V35.7897L10.8688 22.9205C11.3301 21.6627 12.5422 20.8243 13.8993 20.8235H37.2088V16.4703C37.2088 15.7607 36.9166 15.075 36.3882 14.5657C35.8588 14.0555 35.1345 13.7654 34.3757 13.7654H22.6548C22.2998 13.7651 21.967 13.5912 21.7671 13.3022L18.1826 8.11764H8.98216Z" fill="#8E97A5"/>
</svg>
