<svg width="24" height="24" viewBox="0 0 24 24" fill="none" xmlns="http://www.w3.org/2000/svg">
<path d="M18.4531 11V8.44444C18.4531 7.97295 18.2616 7.52076 17.9206 7.18737C17.5797 6.85397 17.1173 6.66667 16.6351 6.66667H11.1811L9.36304 4H4.81801C4.33585 4 3.87343 4.1873 3.53248 4.5207C3.19154 4.8541 3 5.30628 3 5.77778V18.2222C3 18.6937 3.19154 19.1459 3.53248 19.4793C3.87343 19.8127 4.33585 20 4.81801 20H16.6351C17.1173 20 17.5 20 17.9206 19.4793C18.3412 18.9586 18.2737 18.8824 18.5 18.5" stroke="#8E97A5" stroke-linecap="round" stroke-linejoin="round"/>
<path d="M18.5 18.5L20.5613 12.3162C20.7771 11.6687 20.2951 11 19.6126 11H7.10738C6.68612 11 6.31003 11.264 6.16688 11.6602L3.51511 19" stroke="#8E97A5" stroke-linecap="round" stroke-linejoin="round"/>
</svg>
