<svg width="24" height="24" viewBox="0 0 24 24" fill="none" xmlns="http://www.w3.org/2000/svg">
<path d="M20.203 19.6716H16.7159C19.2731 18.0775 21 15.2546 21 12C21 7.05166 16.9483 3 12 3C7.05166 3 3 7.05166 3 12C3 16.9483 7.01845 21 12 21C12.0664 21 12.1328 21 12.1993 21H20.203C20.5683 21 20.8672 20.7011 20.8672 20.3358C20.8672 19.9705 20.5683 19.6716 20.203 19.6716ZM7.64945 14.059C6.5203 14.059 5.59041 13.1292 5.59041 12C5.59041 10.8708 6.5203 9.94096 7.64945 9.94096C8.7786 9.94096 9.70849 10.8708 9.70849 12C9.70849 13.1292 8.81181 14.059 7.64945 14.059ZM12 18.4428C10.8708 18.4428 9.94096 17.5129 9.94096 16.3838C9.94096 15.2546 10.8708 14.3247 12 14.3247C13.1292 14.3247 14.059 15.2546 14.059 16.3838C14.059 17.5129 13.1292 18.4428 12 18.4428ZM12 9.77491C10.8708 9.77491 9.94096 8.84502 9.94096 7.71587C9.94096 6.58672 10.8708 5.65683 12 5.65683C13.1292 5.65683 14.059 6.58672 14.059 7.71587C14.059 8.84502 13.1292 9.77491 12 9.77491ZM14.2251 12C14.2251 10.8708 15.155 9.94096 16.2841 9.94096C17.4133 9.94096 18.3432 10.8708 18.3432 12C18.3432 13.1292 17.4133 14.059 16.2841 14.059C15.155 14.059 14.2251 13.1292 14.2251 12Z" fill="url(#paint0_linear_360_288)"/>
<defs>
<linearGradient id="paint0_linear_360_288" x1="21" y1="12" x2="3" y2="12" gradientUnits="userSpaceOnUse">
<stop stop-color="#4AE7FD"/>
<stop offset="1" stop-color="white"/>
</linearGradient>
</defs>
</svg>
