<svg width="16" height="16" viewBox="0 0 16 16" fill="none" xmlns="http://www.w3.org/2000/svg">
<path fill-rule="evenodd" clip-rule="evenodd" d="M6.50283 2.67594C6.57864 2.69439 6.64606 2.73973 6.69108 2.804L7.76705 4.34015H11.1127C11.5067 4.34015 11.8865 4.48898 12.1673 4.75621C12.4482 5.02363 12.6073 5.38783 12.6073 5.76907V7.0589H13.0323C13.6923 7.05898 14.1584 7.68847 13.9496 8.29787L12.6225 12.1704C12.6151 12.1936 12.6061 12.2167 12.5929 12.2384C12.5282 12.3447 12.5217 12.3779 12.4657 12.4903C12.4115 12.5991 12.3397 12.7129 12.1924 12.8904C12.0237 13.0937 11.8431 13.216 11.6384 13.2783C11.4489 13.3358 11.2584 13.3334 11.1127 13.3334H3.49465C3.1006 13.3334 2.72087 13.1846 2.44008 12.9173C2.15916 12.65 2.00008 12.2857 2 11.9045V4.09567C2.00008 3.71445 2.15916 3.35019 2.44008 3.0828C2.72087 2.81558 3.1006 2.66675 3.49465 2.66675H6.42476L6.50283 2.67594ZM4.96978 7.68635C4.83424 7.68659 4.71303 7.76936 4.66695 7.89346L2.95761 12.4988C2.95513 12.5055 2.95105 12.5114 2.94816 12.5178C3.10008 12.6382 3.29313 12.706 3.49465 12.706H11.1127C11.2779 12.706 11.367 12.7037 11.4464 12.6796C11.5104 12.6601 11.5885 12.6189 11.6907 12.4958C11.8144 12.3467 11.8569 12.2731 11.8852 12.2164C11.9095 12.1677 11.9493 12.0708 12.018 11.9523L13.3383 8.09934C13.4078 7.89624 13.2523 7.68643 13.0323 7.68635H4.96978ZM3.49465 3.2942C3.26699 3.2942 3.0497 3.38018 2.89087 3.53133C2.73236 3.68219 2.64478 3.88542 2.6447 4.09567V11.4933L4.06065 7.68022C4.19903 7.30755 4.56266 7.05914 4.96978 7.0589H11.9626V5.76907C11.9626 5.5588 11.875 5.35563 11.7165 5.20474C11.5576 5.05358 11.3404 4.9676 11.1127 4.9676H7.59643C7.48993 4.96752 7.39011 4.916 7.33012 4.83035L6.25477 3.2942H3.49465Z" fill="#4AE7FD"/>
</svg>
