<svg width="24" height="24" viewBox="0 0 24 24" fill="none" xmlns="http://www.w3.org/2000/svg">
<path d="M18.3855 4C19.3441 4 20.2635 4.39511 20.9413 5.09842C21.6192 5.80172 22 6.75561 22 7.75023V16.2498C22 17.2444 21.6192 18.1983 20.9413 18.9016C20.2635 19.6049 19.3441 20 18.3855 20H5.61454C4.65591 20 3.73653 19.6049 3.05868 18.9016C2.38082 18.1983 2 17.2444 2 16.2498V7.75023C2 6.75561 2.38082 5.80172 3.05868 5.09842C3.73653 4.39511 4.65591 4 5.61454 4H18.3855ZM5.61454 5.50009C5.03936 5.50009 4.48774 5.73716 4.08102 6.15914C3.67431 6.58113 3.44582 7.15346 3.44582 7.75023V16.2498C3.44582 16.8465 3.67431 17.4189 4.08102 17.8409C4.48774 18.2628 5.03936 18.4999 5.61454 18.4999H18.3855C18.9606 18.4999 19.5123 18.2628 19.919 17.8409C20.3257 17.4189 20.5542 16.8465 20.5542 16.2498V7.75023C20.5542 7.15346 20.3257 6.58113 19.919 6.15914C19.5123 5.73716 18.9606 5.50009 18.3855 5.50009H5.61454ZM7.5505 11.1659H10.0865V8.66979H11.4846V15.3332H10.0865V12.3855H7.5505V15.3332H6.14371V8.66979H7.5505V11.1659ZM15.1237 8.66979C15.5921 8.66979 16.0187 8.71479 16.4003 8.8048C16.7893 8.8873 17.1204 9.05082 17.3907 9.29383C17.6683 9.53685 17.8823 9.87587 18.0298 10.3109C18.1773 10.7459 18.251 11.31 18.251 12.0015C18.251 12.6465 18.1787 13.1866 18.0298 13.6141C17.8823 14.0356 17.6683 14.3746 17.3922 14.6312C17.1204 14.8862 16.7893 15.0707 16.4003 15.1787C15.9828 15.2857 15.5538 15.3376 15.1237 15.3332H12.9217V8.66979H15.1237ZM14.3285 14.0851H15.0514C15.3463 14.0851 15.6023 14.0521 15.8177 13.9876C16.0268 13.9322 16.2163 13.8162 16.3642 13.6531C16.5238 13.4705 16.6353 13.2484 16.6881 13.0081C16.7618 12.741 16.7979 12.405 16.7979 12.0015C16.7979 11.5725 16.7618 11.2215 16.6881 10.9544C16.6325 10.7138 16.5179 10.4921 16.3555 10.3109C16.2088 10.1479 16.0185 10.034 15.809 9.98387C15.5603 9.92329 15.3054 9.89507 15.05 9.89987H14.327V14.0851H14.3285Z" fill="#8E97A5"/>
</svg>
