<svg width="24" height="24" viewBox="0 0 24 24" fill="none" xmlns="http://www.w3.org/2000/svg">
<g id="icon">
<path id="Subtract" d="M3.33496 7.43262L3.77832 7.66406L11.7256 11.8096V21C11.4694 20.9685 11.2215 20.8936 10.9961 20.7764L8.49023 19.4854V13.6074C8.48992 13.4249 8.38965 13.2565 8.22949 13.1689L3.23535 10.4443L2.99609 10.3125V8.4043C2.99652 8.08844 3.08926 7.77836 3.26465 7.50488C3.29968 7.45027 3.33795 7.39742 3.37891 7.34668L3.33496 7.43262ZM20.7861 7.60449C20.9231 7.85269 20.9957 8.12609 20.9961 8.4043V10.6221L16.2188 13.2666C16.0599 13.3546 15.9612 13.5225 15.9609 13.7041V19.249L12.9961 20.7764C12.9091 20.8216 12.8184 20.8598 12.7256 20.8926V11.8096L20.6738 7.66406L20.7861 7.60449ZM7.49023 13.9043V18.9707L3.99609 17.1719C3.69252 17.0139 3.44014 16.7871 3.26465 16.5137C3.08914 16.2401 2.99646 15.9293 2.99609 15.6133V11.4512L7.49023 13.9043ZM20.9961 15.6133C20.9957 15.9293 20.9031 16.2401 20.7275 16.5137C20.552 16.7871 20.2997 17.0139 19.9961 17.1719L16.9609 18.7344V13.998L20.9961 11.7646V15.6133ZM7.75879 5.33008L11.9941 7.53711C12.1387 7.61231 12.3124 7.61228 12.457 7.53711L16.6914 5.33008L16.8701 5.23633L19.9961 6.8457C20.0097 6.85278 20.0227 6.86082 20.0361 6.86816L12.2256 10.9424L4.24121 6.77734L4.18457 6.74805L7.35156 5.11719L7.75879 5.33008ZM11.9961 3C12.3471 3 12.6921 3.08307 12.9961 3.24121L15.7822 4.67578L12.2256 6.5293L8.43945 4.55664L10.9961 3.24121C11.3001 3.08307 11.6451 3 11.9961 3Z" fill="#4AE7FD"/>
</g>
</svg>
