<svg width="24" height="24" viewBox="0 0 24 24" fill="none" xmlns="http://www.w3.org/2000/svg">
<mask id="path-1-inside-1_342_178" fill="white">
<path d="M3.33496 7.43262L3.77832 7.66406L11.7256 11.8096V21C11.4694 20.9685 11.2215 20.8936 10.9961 20.7764L8.49023 19.4854V13.6074C8.48992 13.4249 8.38965 13.2565 8.22949 13.1689L3.23535 10.4443L2.99609 10.3125V8.4043C2.99652 8.08844 3.08926 7.77836 3.26465 7.50488C3.29968 7.45027 3.33795 7.39742 3.37891 7.34668L3.33496 7.43262ZM20.7861 7.60449C20.9231 7.85269 20.9957 8.12609 20.9961 8.4043V10.6221L16.2188 13.2666C16.0599 13.3546 15.9612 13.5225 15.9609 13.7041V19.249L12.9961 20.7764C12.9091 20.8216 12.8184 20.8598 12.7256 20.8926V11.8096L20.6738 7.66406L20.7861 7.60449ZM7.49023 13.9043V18.9707L3.99609 17.1719C3.69252 17.0139 3.44014 16.7871 3.26465 16.5137C3.08914 16.2401 2.99646 15.9293 2.99609 15.6133V11.4512L7.49023 13.9043ZM20.9961 15.6133C20.9957 15.9293 20.903 16.2401 20.7275 16.5137C20.552 16.7871 20.2997 17.0139 19.9961 17.1719L16.9609 18.7344V13.998L20.9961 11.7646V15.6133ZM7.75879 5.33008L11.9941 7.53711C12.1387 7.61231 12.3124 7.61228 12.457 7.53711L16.6914 5.33008L16.8701 5.23633L19.9961 6.8457C20.0097 6.85278 20.0227 6.86082 20.0361 6.86816L12.2256 10.9424L4.24121 6.77734L4.18457 6.74805L7.35156 5.11719L7.75879 5.33008ZM11.9961 3C12.3471 3 12.6921 3.08307 12.9961 3.24121L15.7822 4.67578L12.2256 6.5293L8.43945 4.55664L10.9961 3.24121C11.3001 3.08307 11.6451 3 11.9961 3Z"/>
</mask>
<path d="M3.33496 7.43262L2.44462 6.97733C2.19466 7.46613 2.38552 8.06504 2.87219 8.3191L3.33496 7.43262ZM3.77832 7.66406L3.31555 8.55054L3.31583 8.55069L3.77832 7.66406ZM11.7256 11.8096H12.7256C12.7256 11.437 12.5184 11.0953 12.1881 10.9229L11.7256 11.8096ZM11.7256 21L11.6034 21.9925C11.8878 22.0275 12.1735 21.9389 12.3881 21.7491C12.6027 21.5592 12.7256 21.2865 12.7256 21H11.7256ZM10.9961 20.7764L11.4576 19.8892L11.4541 19.8874L10.9961 20.7764ZM8.49023 19.4854H7.49023C7.49023 19.8598 7.6994 20.2028 8.03224 20.3743L8.49023 19.4854ZM8.49023 13.6074H9.49024L9.49023 13.6057L8.49023 13.6074ZM8.22949 13.1689L8.7091 12.2915L8.70842 12.2911L8.22949 13.1689ZM3.23535 10.4443L2.75274 11.3202L2.75643 11.3222L3.23535 10.4443ZM2.99609 10.3125H1.99609C1.99609 10.6769 2.19432 11.0125 2.51349 11.1883L2.99609 10.3125ZM2.99609 8.4043L1.99609 8.40296V8.4043H2.99609ZM3.26465 7.50488L2.42295 6.96494L2.42289 6.96503L3.26465 7.50488ZM3.37891 7.34668L4.26925 7.80197C4.50254 7.34575 4.35324 6.78702 3.92349 6.50797C3.49373 6.22893 2.92258 6.31988 2.60076 6.7186L3.37891 7.34668ZM20.7861 7.60449L21.6617 7.12133C21.3979 6.64344 20.7997 6.46531 20.3175 6.72108L20.7861 7.60449ZM20.9961 8.4043H21.9961V8.40296L20.9961 8.4043ZM20.9961 10.6221L21.4804 11.497C21.7986 11.3208 21.9961 10.9858 21.9961 10.6221H20.9961ZM16.2188 13.2666L15.7344 12.3917L15.7344 12.3917L16.2188 13.2666ZM15.9609 13.7041L14.9609 13.7026V13.7041H15.9609ZM15.9609 19.249L16.4189 20.138C16.7518 19.9665 16.9609 19.6235 16.9609 19.249H15.9609ZM12.9961 20.7764L12.5381 19.8874L12.5346 19.8892L12.9961 20.7764ZM12.7256 20.8926H11.7256C11.7256 21.2172 11.8831 21.5215 12.1481 21.709C12.4131 21.8964 12.7526 21.9436 13.0586 21.8355L12.7256 20.8926ZM12.7256 11.8096L12.2631 10.9229C11.9328 11.0952 11.7256 11.437 11.7256 11.8096H12.7256ZM20.6738 7.66406L21.1363 8.55073L21.1424 8.54748L20.6738 7.66406ZM7.49023 13.9043H8.49023C8.49023 13.5385 8.29047 13.2018 7.96935 13.0265L7.49023 13.9043ZM7.49023 18.9707L7.03252 19.8598C7.34252 20.0194 7.71327 20.006 8.01095 19.8244C8.30862 19.6429 8.49023 19.3194 8.49023 18.9707H7.49023ZM3.99609 17.1719L3.53453 18.059L3.53838 18.061L3.99609 17.1719ZM3.26465 16.5137L2.42295 17.0536L2.42307 17.0538L3.26465 16.5137ZM2.99609 15.6133H1.99609L1.99609 15.6144L2.99609 15.6133ZM2.99609 11.4512L3.47521 10.5734C3.16538 10.4043 2.78932 10.4111 2.48576 10.5912C2.1822 10.7713 1.99609 11.0982 1.99609 11.4512H2.99609ZM20.9961 15.6133L21.9961 15.6144V15.6133H20.9961ZM20.7275 16.5137L21.5691 17.0538L21.5692 17.0536L20.7275 16.5137ZM19.9961 17.1719L20.4538 18.061L20.4577 18.059L19.9961 17.1719ZM16.9609 18.7344H15.9609C15.9609 19.083 16.1425 19.4065 16.4402 19.5881C16.7379 19.7697 17.1086 19.7831 17.4186 19.6235L16.9609 18.7344ZM16.9609 13.998L16.4767 13.1231C16.1584 13.2993 15.9609 13.6343 15.9609 13.998H16.9609ZM20.9961 11.7646H21.9961C21.9961 11.4106 21.8089 11.083 21.5039 10.9032C21.1989 10.7234 20.8216 10.7183 20.5118 10.8897L20.9961 11.7646ZM7.75879 5.33008L7.2955 6.21628L7.29667 6.2169L7.75879 5.33008ZM11.9941 7.53711L11.532 8.42393L11.5327 8.42428L11.9941 7.53711ZM12.457 7.53711L12.9183 8.42439L12.9192 8.42388L12.457 7.53711ZM16.6914 5.33008L17.1536 6.21686L17.156 6.21563L16.6914 5.33008ZM16.8701 5.23633L17.3279 4.34724C17.0382 4.19812 16.6941 4.19944 16.4056 4.35078L16.8701 5.23633ZM19.9961 6.8457L20.4576 5.95856L20.4538 5.95662L19.9961 6.8457ZM20.0361 6.86816L20.4986 7.75479C20.8256 7.58422 21.0322 7.24753 21.0361 6.87876C21.04 6.50999 20.8406 6.16899 20.5173 5.99154L20.0361 6.86816ZM12.2256 10.9424L11.7631 11.829C12.0529 11.9802 12.3983 11.9802 12.6881 11.829L12.2256 10.9424ZM4.24121 6.77734L4.70372 5.89072L4.70063 5.88913L4.24121 6.77734ZM4.18457 6.74805L3.72675 5.859C3.3941 6.0303 3.18491 6.37298 3.18457 6.74714C3.18423 7.12131 3.39281 7.46436 3.72515 7.63626L4.18457 6.74805ZM7.35156 5.11719L7.81485 4.23098C7.52656 4.08027 7.18296 4.07921 6.89374 4.22814L7.35156 5.11719ZM11.9961 3L11.9961 2H11.9961V3ZM12.9961 3.24121L12.5346 4.12837L12.5383 4.13028L12.9961 3.24121ZM15.7822 4.67578L16.2444 5.56258C16.5757 5.38991 16.7831 5.04694 16.7822 4.67332C16.7813 4.2997 16.5722 3.95775 16.24 3.78671L15.7822 4.67578ZM12.2256 6.5293L11.7635 7.41614C12.0531 7.56703 12.3982 7.56701 12.6877 7.4161L12.2256 6.5293ZM8.43945 4.55664L7.98194 3.66744C7.64965 3.8384 7.44041 4.18038 7.43946 4.55408C7.4385 4.92777 7.64598 5.27082 7.97739 5.44349L8.43945 4.55664ZM10.9961 3.24121L11.4536 4.13042L11.4576 4.12837L10.9961 3.24121ZM3.33496 7.43262L2.87219 8.3191L3.31555 8.55054L3.77832 7.66406L4.24109 6.77758L3.79773 6.54614L3.33496 7.43262ZM3.77832 7.66406L3.31583 8.55069L11.2631 12.6962L11.7256 11.8096L12.1881 10.9229L4.24081 6.77744L3.77832 7.66406ZM11.7256 11.8096H10.7256V21H11.7256H12.7256V11.8096H11.7256ZM11.7256 21L11.8477 20.0075C11.7037 19.9898 11.5715 19.9485 11.4576 19.8892L10.9961 20.7764L10.5346 21.6635C10.8715 21.8388 11.2352 21.9472 11.6034 21.9925L11.7256 21ZM10.9961 20.7764L11.4541 19.8874L8.94822 18.5964L8.49023 19.4854L8.03224 20.3743L10.5381 21.6653L10.9961 20.7764ZM8.49023 19.4854H9.49023V13.6074H8.49023H7.49023V19.4854H8.49023ZM8.49023 13.6074L9.49023 13.6057C9.48928 13.0575 9.18896 12.5537 8.7091 12.2915L8.22949 13.1689L7.74989 14.0464C7.59034 13.9592 7.49055 13.7924 7.49024 13.6092L8.49023 13.6074ZM8.22949 13.1689L8.70842 12.2911L3.71428 9.56648L3.23535 10.4443L2.75643 11.3222L7.75057 14.0468L8.22949 13.1689ZM3.23535 10.4443L3.71796 9.5685L3.4787 9.43666L2.99609 10.3125L2.51349 11.1883L2.75275 11.3202L3.23535 10.4443ZM2.99609 10.3125H3.99609V8.4043H2.99609H1.99609V10.3125H2.99609ZM2.99609 8.4043L3.99609 8.40563C3.99625 8.28689 4.03071 8.16277 4.10641 8.04473L3.26465 7.50488L2.42289 6.96503C2.14781 7.39394 1.99678 7.89 1.99609 8.40296L2.99609 8.4043ZM3.26465 7.50488L4.10635 8.04483C4.12105 8.02191 4.13796 7.99842 4.15706 7.97476L3.37891 7.34668L2.60076 6.7186C2.53795 6.79642 2.47832 6.87862 2.42295 6.96494L3.26465 7.50488ZM3.37891 7.34668L2.48856 6.89139L2.44462 6.97733L3.33496 7.43262L4.2253 7.88791L4.26925 7.80197L3.37891 7.34668ZM20.7861 7.60449L19.9106 8.08765C19.9693 8.19397 19.996 8.30232 19.9961 8.40563L20.9961 8.4043L21.9961 8.40296C21.9955 7.94986 21.8769 7.51141 21.6617 7.12133L20.7861 7.60449ZM20.9961 8.4043H19.9961V10.6221H20.9961H21.9961V8.4043H20.9961ZM20.9961 10.6221L20.5118 9.74717L15.7344 12.3917L16.2188 13.2666L16.7031 14.1415L21.4804 11.497L20.9961 10.6221ZM16.2188 13.2666L15.7344 12.3917C15.2562 12.6565 14.9617 13.1598 14.9609 13.7026L15.9609 13.7041L16.9609 13.7056C16.9607 13.8853 16.8636 14.0526 16.7031 14.1415L16.2188 13.2666ZM15.9609 13.7041H14.9609V19.249H15.9609H16.9609V13.7041H15.9609ZM15.9609 19.249L15.503 18.36L12.5381 19.8874L12.9961 20.7764L13.4541 21.6653L16.4189 20.138L15.9609 19.249ZM12.9961 20.7764L12.5346 19.8892C12.4955 19.9095 12.4488 19.9298 12.3926 19.9497L12.7256 20.8926L13.0586 21.8355C13.1881 21.7898 13.3227 21.7337 13.4576 21.6635L12.9961 20.7764ZM12.7256 20.8926H13.7256V11.8096H12.7256H11.7256V20.8926H12.7256ZM12.7256 11.8096L13.188 12.6962L21.1363 8.55071L20.6738 7.66406L20.2114 6.77741L12.2631 10.9229L12.7256 11.8096ZM20.6738 7.66406L21.1424 8.54748L21.2547 8.48791L20.7861 7.60449L20.3175 6.72108L20.2052 6.78065L20.6738 7.66406ZM7.49023 13.9043H6.49023V18.9707H7.49023H8.49023V13.9043H7.49023ZM7.49023 18.9707L7.94795 18.0816L4.45381 16.2828L3.99609 17.1719L3.53838 18.061L7.03252 19.8598L7.49023 18.9707ZM3.99609 17.1719L4.45766 16.2848C4.29967 16.2026 4.18205 16.0917 4.10623 15.9735L3.26465 16.5137L2.42307 17.0538C2.69823 17.4825 3.08537 17.8253 3.53453 18.059L3.99609 17.1719ZM3.26465 16.5137L4.10635 15.9737C4.0309 15.8561 3.99623 15.7315 3.99609 15.6121L2.99609 15.6133L1.99609 15.6144C1.99669 16.1271 2.14738 16.624 2.42295 17.0536L3.26465 16.5137ZM2.99609 15.6133H3.99609V11.4512H2.99609H1.99609V15.6133H2.99609ZM2.99609 11.4512L2.51697 12.3289L7.01112 14.782L7.49023 13.9043L7.96935 13.0265L3.47521 10.5734L2.99609 11.4512ZM20.9961 15.6133L19.9961 15.6121C19.996 15.7315 19.9613 15.8561 19.8858 15.9737L20.7275 16.5137L21.5692 17.0536C21.8448 16.624 21.9955 16.1271 21.9961 15.6144L20.9961 15.6133ZM20.7275 16.5137L19.886 15.9735C19.8101 16.0917 19.6925 16.2026 19.5345 16.2848L19.9961 17.1719L20.4577 18.059C20.9068 17.8253 21.294 17.4825 21.5691 17.0538L20.7275 16.5137ZM19.9961 17.1719L19.5384 16.2828L16.5032 17.8453L16.9609 18.7344L17.4186 19.6235L20.4538 18.061L19.9961 17.1719ZM16.9609 18.7344H17.9609V13.998H16.9609H15.9609V18.7344H16.9609ZM16.9609 13.998L17.4452 14.873L21.4804 12.6396L20.9961 11.7646L20.5118 10.8897L16.4767 13.1231L16.9609 13.998ZM20.9961 11.7646H19.9961V15.6133H20.9961H21.9961V11.7646H20.9961ZM7.75879 5.33008L7.29667 6.2169L11.532 8.42393L11.9941 7.53711L12.4563 6.65029L8.22091 4.44326L7.75879 5.33008ZM11.9941 7.53711L11.5327 8.42428C11.9667 8.65001 12.4847 8.64976 12.9183 8.42439L12.457 7.53711L11.9958 6.64983C12.1402 6.57479 12.3108 6.57462 12.4556 6.64994L11.9941 7.53711ZM12.457 7.53711L12.9192 8.42388L17.1536 6.21685L16.6914 5.33008L16.2292 4.4433L11.9948 6.65034L12.457 7.53711ZM16.6914 5.33008L17.156 6.21563L17.3347 6.12188L16.8701 5.23633L16.4056 4.35078L16.2269 4.44453L16.6914 5.33008ZM16.8701 5.23633L16.4124 6.12542L19.5384 7.73479L19.9961 6.8457L20.4538 5.95662L17.3279 4.34724L16.8701 5.23633ZM19.9961 6.8457L19.5346 7.73283C19.5274 7.72913 19.5222 7.72623 19.5196 7.72479C19.5172 7.72345 19.5161 7.72278 19.5181 7.72394C19.5192 7.7246 19.52 7.72507 19.5223 7.72636C19.5241 7.72744 19.5268 7.72898 19.5298 7.73068C19.5357 7.73404 19.5445 7.73907 19.555 7.74479L20.0361 6.86816L20.5173 5.99154C20.521 5.99359 20.5232 5.99485 20.5225 5.99442C20.5199 5.99295 20.5213 5.99374 20.5143 5.98972C20.506 5.98498 20.4841 5.97236 20.4576 5.95857L19.9961 6.8457ZM20.0361 6.86816L19.5736 5.98154L11.7631 10.0558L12.2256 10.9424L12.6881 11.829L20.4986 7.75479L20.0361 6.86816ZM12.2256 10.9424L12.6881 10.0558L4.70371 5.89073L4.24121 6.77734L3.77871 7.66396L11.7631 11.829L12.2256 10.9424ZM4.24121 6.77734L4.70063 5.88913L4.64399 5.85983L4.18457 6.74805L3.72515 7.63626L3.78179 7.66556L4.24121 6.77734ZM4.18457 6.74805L4.64239 7.63709L7.80938 6.00623L7.35156 5.11719L6.89374 4.22814L3.72675 5.859L4.18457 6.74805ZM7.35156 5.11719L6.88827 6.00339L7.2955 6.21628L7.75879 5.33008L8.22208 4.44387L7.81485 4.23098L7.35156 5.11719ZM11.9961 3L11.9961 4C12.1909 4 12.377 4.0464 12.5346 4.12836L12.9961 3.24121L13.4576 2.35406C13.0071 2.11974 12.5033 2 11.9961 2L11.9961 3ZM12.9961 3.24121L12.5383 4.13028L15.3244 5.56485L15.7822 4.67578L16.24 3.78671L13.4539 2.35214L12.9961 3.24121ZM15.7822 4.67578L15.3201 3.78898L11.7634 5.6425L12.2256 6.5293L12.6877 7.4161L16.2444 5.56258L15.7822 4.67578ZM12.2256 6.5293L12.6877 5.64245L8.90152 3.66979L8.43945 4.55664L7.97739 5.44349L11.7635 7.41614L12.2256 6.5293ZM8.43945 4.55664L8.89696 5.44585L11.4536 4.13042L10.9961 3.24121L10.5386 2.35201L7.98194 3.66744L8.43945 4.55664ZM10.9961 3.24121L11.4576 4.12837C11.6151 4.0464 11.8012 4 11.9961 4V3V2C11.4889 2 10.9851 2.11975 10.5346 2.35406L10.9961 3.24121Z" fill="#8E97A5" mask="url(#path-1-inside-1_342_178)"/>
</svg>
