<svg width="24" height="24" viewBox="0 0 24 24" fill="none" xmlns="http://www.w3.org/2000/svg">
<g id="icon/start">
<path id="Subtract" d="M7.71296 4.08703C9.67922 3.02187 11.9718 2.72623 14.1436 3.2589C16.3153 3.79159 18.2107 5.11405 19.461 6.96789C20.7113 8.82205 21.2266 11.0759 20.9063 13.2892C20.586 15.5024 19.4532 17.5169 17.7286 18.9405C16.004 20.3642 13.811 21.0952 11.5772 20.9903C9.34368 20.8854 7.22914 19.9528 5.64558 18.3741C4.82145 17.5504 4.16378 16.5749 3.70905 15.5021C2.83891 13.442 2.76679 11.1319 3.50691 9.0216C4.24703 6.91128 5.74665 5.15228 7.71296 4.08703ZM11.1055 8.74816C10.9177 8.73883 10.7306 8.78128 10.5655 8.87121C10.3814 8.98 10.2294 9.13615 10.126 9.32336C10.0227 9.51063 9.97149 9.72284 9.97761 9.93664V14.0236C9.97229 14.239 10.0258 14.4522 10.1319 14.6398C10.2381 14.8273 10.3937 14.9826 10.5811 15.089C10.7288 15.1695 10.8944 15.2125 11.0626 15.213C11.2686 15.2113 11.4699 15.1499 11.6417 15.0362L14.7471 12.9884C14.916 12.8767 15.0546 12.7249 15.1495 12.546C15.2444 12.367 15.2924 12.1666 15.2901 11.964C15.2931 11.7672 15.2472 11.5727 15.1553 11.3986C15.0634 11.2244 14.929 11.0756 14.7647 10.9669L11.6309 8.92394C11.4755 8.81801 11.2934 8.75755 11.1055 8.74816Z" fill="#4AE7FD"/>
</g>
</svg>
