<svg width="24" height="24" viewBox="0 0 24 24" fill="none" xmlns="http://www.w3.org/2000/svg">
<g id="icon/start">
<path id="Vector" d="M5.64513 18.3736C7.22883 19.9526 9.34364 20.8853 11.5775 20.9902C13.8114 21.095 16.0042 20.3644 17.7289 18.9407C19.4535 17.517 20.5863 15.5023 20.9065 13.289C21.2268 11.0757 20.7116 8.82241 19.4613 6.96824C18.211 5.11408 16.3151 3.79183 14.1432 3.25913C11.9712 2.72643 9.67874 3.02146 7.71243 4.08671C5.74612 5.15196 4.24683 6.91113 3.5067 9.02145C2.76657 11.1318 2.83862 13.4421 3.70882 15.5021C4.16355 16.5749 4.821 17.5499 5.64513 18.3736Z" fill="#4AE7FD"/>
<path id="Vector_2" d="M10.5809 15.0889C10.7286 15.1695 10.894 15.212 11.0623 15.2125C11.2685 15.2109 11.4697 15.1495 11.6417 15.0357L14.7474 12.9886C14.9164 12.8768 15.0546 12.7245 15.1495 12.5455C15.2444 12.3665 15.2929 12.1666 15.2906 11.964C15.2936 11.767 15.247 11.5724 15.1551 11.3982C15.0631 11.224 14.9288 11.0757 14.7645 10.9671L11.631 8.92421C11.4756 8.8182 11.2939 8.75713 11.106 8.74774C10.9181 8.73834 10.7312 8.78098 10.566 8.87096C10.3817 8.97976 10.23 9.13594 10.1266 9.32325C10.0232 9.51057 9.97191 9.72218 9.97803 9.93605V14.0239C9.97271 14.2393 10.026 14.4522 10.1321 14.6398C10.2383 14.8274 10.3934 14.9826 10.5809 15.0889Z" fill="#111621"/>
</g>
</svg>
