<svg width="24" height="24" viewBox="0 0 24 24" fill="none" xmlns="http://www.w3.org/2000/svg">
<path d="M18.1523 3C19.1727 3.00009 19.9998 3.80931 20 4.80762V9.60352C20 9.93636 19.724 10.2061 19.3838 10.2061C19.0437 10.2059 18.7686 9.93627 18.7686 9.60352V4.80762C18.7683 4.47501 18.4923 4.20517 18.1523 4.20508H4.84766C4.50769 4.20517 4.23168 4.47501 4.23145 4.80762V19.1924C4.23168 19.525 4.50769 19.7948 4.84766 19.7949H11.1924C11.5324 19.7951 11.8076 20.0647 11.8076 20.3975C11.8075 20.7301 11.5324 20.9998 11.1924 21H4.84766C3.82734 20.9999 3.00023 20.1907 3 19.1924V4.80762C3.00023 3.80931 3.82734 3.00009 4.84766 3H18.1523Z" fill="#4AE7FD"/>
<path fill-rule="evenodd" clip-rule="evenodd" d="M16.2402 12.0293C16.7505 11.1645 17.8808 10.868 18.7646 11.3672L19.0312 11.5186C19.9149 12.0179 20.2183 13.1235 19.708 13.9883L16.417 19.5645C16.1925 19.9448 15.8344 20.2323 15.4092 20.373L13.8584 20.8857C13.5064 21.0021 13.1303 20.7892 13.0576 20.4326L12.7383 18.8633C12.6507 18.4329 12.726 17.9865 12.9502 17.6064L16.2402 12.0293ZM14.0166 18.209C13.9419 18.3357 13.9171 18.4845 13.9463 18.6279L14.1289 19.5244L15.0146 19.2314C15.1563 19.1845 15.2758 19.0886 15.3506 18.9619L17.707 14.9688L16.373 14.2148L14.0166 18.209ZM18.1484 12.4111C17.8539 12.245 17.4777 12.3439 17.3076 12.6318L16.9893 13.1709L18.3223 13.9248L18.6406 13.3857C18.8107 13.0975 18.7096 12.7289 18.415 12.5625L18.1484 12.4111Z" fill="#4AE7FD"/>
<path d="M11.418 15.666C11.758 15.6661 12.0339 15.9359 12.0342 16.2686C12.0342 16.6014 11.7581 16.872 11.418 16.8721H6.49023C6.1501 16.872 5.87402 16.6014 5.87402 16.2686C5.87426 15.9359 6.15024 15.6661 6.49023 15.666H11.418Z" fill="#4AE7FD"/>
<path d="M14.0869 11.3975C14.4271 11.3975 14.7031 11.6671 14.7031 12C14.7031 12.3329 14.4271 12.6025 14.0869 12.6025H6.49023C6.1501 12.6025 5.87402 12.3328 5.87402 12C5.87403 11.6672 6.1501 11.3975 6.49023 11.3975H14.0869Z" fill="#4AE7FD"/>
<path d="M16.5098 7.12793C16.8499 7.12798 17.126 7.39862 17.126 7.73145C17.1258 8.06408 16.8498 8.33393 16.5098 8.33398H6.49023C6.15024 8.33393 5.87425 8.06408 5.87402 7.73145C5.87402 7.39862 6.1501 7.12799 6.49023 7.12793H16.5098Z" fill="#4AE7FD"/>
</svg>
