<svg width="24" height="24" viewBox="0 0 24 24" fill="none" xmlns="http://www.w3.org/2000/svg">
<path d="M13.8983 8.71382V3.82598C13.8983 3.60355 13.9774 3.40992 14.1354 3.24571C14.2935 3.08211 14.4896 3 14.7237 3H19.2593C19.4119 3 19.5498 3.03799 19.6723 3.11397C19.7955 3.18995 19.8954 3.29289 19.9713 3.42157C20.0466 3.54616 20.0865 3.68897 20.0865 3.83455C20.0865 3.98014 20.0466 4.12295 19.9713 4.24754C19.8954 4.37622 19.7955 4.4761 19.6723 4.54656C19.5498 4.61703 19.4119 4.65195 19.2593 4.65195H15.5503V12.0349C15.5503 12.1758 15.5154 12.3106 15.4449 12.4393C15.3175 12.9288 15.08 13.3827 14.7507 13.7665C14.4158 14.1597 13.9987 14.4747 13.5288 14.6893C13.0497 14.9116 12.5275 15.0257 11.9994 15.0232C11.3752 15.0283 10.7604 14.8708 10.2156 14.5661C9.68169 14.2722 9.23565 13.8414 8.92333 13.318C8.60909 12.7987 8.44472 12.2025 8.44845 11.5955C8.44845 10.9742 8.60715 10.4032 8.92333 9.88171C9.23766 9.36212 9.68341 8.93456 10.2156 8.64213C10.7604 8.33747 11.3752 8.17993 11.9994 8.18502C12.6795 8.18502 13.3119 8.36088 13.8983 8.7126V8.71382ZM11.4197 3.01716C11.5606 3.00551 11.701 3.03186 11.8413 3.09681C11.9822 3.16115 12.0962 3.2549 12.1844 3.37745C12.272 3.50061 12.3217 3.63848 12.3333 3.79105C12.3457 3.93985 12.3153 4.08908 12.2457 4.2212C12.1769 4.35441 12.0736 4.46676 11.9467 4.54656C11.818 4.62867 11.6771 4.66972 11.5251 4.66972C10.2503 4.74282 9.01821 5.15534 7.9564 5.86457C6.92953 6.55019 6.08985 7.48104 5.51334 8.57289C4.90967 9.69694 4.61831 10.9622 4.66958 12.2371C4.71615 13.5324 5.074 14.731 5.7419 15.832C6.3806 16.8932 7.28275 17.7713 8.36082 18.3811C9.46641 19.0204 10.7222 19.3542 11.9994 19.348C12.9491 19.348 13.8597 19.1721 14.7329 18.821C15.6007 18.473 16.3942 17.9629 17.0712 17.3179C17.7536 16.672 18.3029 15.8986 18.6882 15.0416C19.0804 14.174 19.2973 13.2689 19.3384 12.3253C19.3807 11.3908 19.2434 10.4569 18.9339 9.57411C18.6268 8.68932 18.1525 7.8718 17.5369 7.16603C17.4638 7.08579 17.4081 6.99129 17.3733 6.88847C17.3385 6.78566 17.3253 6.67675 17.3346 6.56861C17.3524 6.34619 17.4462 6.15807 17.6159 6.00611C17.6956 5.93226 17.7901 5.87607 17.893 5.84122C17.996 5.80638 18.1051 5.79366 18.2133 5.80391C18.4419 5.82168 18.6263 5.91236 18.7673 6.07658C19.6696 7.09775 20.3252 8.31263 20.6834 9.62742C21.0351 10.9166 21.0939 12.223 20.8592 13.5471C20.6298 14.8831 20.0976 16.1489 19.3034 17.2475C18.5151 18.3538 17.4838 19.2648 16.2887 19.9105C15.1218 20.5385 13.832 20.9045 12.5092 20.9828C11.1541 21.0675 9.79774 20.839 8.54526 20.3149C7.28759 19.7973 6.1659 18.9972 5.26701 17.9766C4.38503 16.9845 3.73639 15.8074 3.36869 14.5318C2.98265 13.232 2.8984 11.8612 3.12237 10.5239C3.33638 9.18513 3.8601 7.91488 4.65181 6.81432C5.40793 5.72852 6.39926 4.82727 7.55198 4.17769C8.73602 3.50146 10.0589 3.10472 11.4197 3.01777V3.01716ZM11.9994 13.3707C12.3309 13.3729 12.6576 13.2914 12.9491 13.1335C13.2327 12.984 13.472 12.7628 13.6434 12.492C13.8131 12.2224 13.8983 11.9264 13.8983 11.6041C13.8983 11.2818 13.8125 10.9859 13.6434 10.7169C13.472 10.4457 13.2324 10.2243 12.9485 10.0747C12.6556 9.91663 12.3364 9.83759 11.9908 9.83759C11.6452 9.83759 11.329 9.91725 11.041 10.0747C10.7613 10.2262 10.5254 10.4471 10.356 10.7163C10.1862 10.9859 10.1011 11.2818 10.1011 11.6047C10.1011 11.9264 10.1862 12.2224 10.356 12.492C10.5257 12.7616 10.7543 12.9754 11.0416 13.1335C11.3284 13.2916 11.6483 13.3707 11.9994 13.3707Z" fill="#8E97A5"/>
</svg>
