<svg width="24" height="24" viewBox="0 0 24 24" fill="none" xmlns="http://www.w3.org/2000/svg">
<path d="M18.3623 12.5L18 18.5C17.7737 18.8824 18.3415 18.9588 17.9209 19.4795C17.5003 20.0002 17.1169 20 16.6348 20H4.81836C4.72393 20 4.63024 19.9906 4.53809 19.9766L7.04688 12.834C7.11726 12.6339 7.30646 12.5001 7.51855 12.5H18.3623ZM9.36328 4L11.1807 6.66699H16.6348C17.1169 6.66699 17.58 6.8541 17.9209 7.1875C18.2617 7.52085 18.4531 7.97298 18.4531 8.44434V11L18.4229 11.5H7.51855C6.88185 11.5001 6.31453 11.9022 6.10352 12.5029L3.62402 19.5605C3.59304 19.5341 3.56149 19.5081 3.53223 19.4795C3.19141 19.1462 3.00012 18.694 3 18.2227V5.77734C3.00012 5.30602 3.19141 4.8538 3.53223 4.52051C3.87317 4.18711 4.33619 4 4.81836 4H9.36328Z" fill="#4AE7FD"/>
<path d="M18.0785 19.2673L19.6203 13.7098C19.7971 13.0727 19.3179 12.4425 18.6567 12.4425H7.73507C7.31132 12.4425 6.93359 12.7096 6.79229 13.1091L4.35515 20H17.1149C17.5642 20 17.9584 19.7003 18.0785 19.2673Z" fill="#4AE7FD"/>
</svg>
