<svg width="24" height="24" viewBox="0 0 24 24" fill="none" xmlns="http://www.w3.org/2000/svg">
<path d="M18.6494 2.99902C19.9489 2.99926 21.0029 4.05299 21.0029 5.35254V18.6484C21.0027 19.9478 19.9488 21.0017 18.6494 21.002H5.35352C4.05396 21.002 3.00023 19.9479 3 18.6484V5.35254C3 4.05284 4.05382 2.99902 5.35352 2.99902H18.6494ZM4 18.6484C4.00023 19.3957 4.60625 20.002 5.35352 20.002H7.25V16.751H4V18.6484ZM8.25 16.2412C8.25006 16.2444 8.25098 16.2478 8.25098 16.251C8.25098 16.2539 8.25005 16.2568 8.25 16.2598V20.002H15.752V12.5H8.25V16.2412ZM16.752 20.002H18.6494C19.3965 20.0017 20.0027 19.3955 20.0029 18.6484V16.751H16.752V20.002ZM4 15.751H7.25V12.5H4V15.751ZM16.752 15.751H20.0029V12.5H16.752V15.751ZM4 11.5H7.25V8.24902H4V11.5ZM8.25 7.73926C8.25006 7.74251 8.25097 7.74576 8.25098 7.74902C8.25098 7.75186 8.25005 7.75499 8.25 7.75781V11.5H15.752V3.99902H8.25V7.73926ZM16.752 8.24902V11.5H20.0029V8.24902H16.752ZM16.752 7.24902H20.0029V5.35254C20.0029 4.60528 19.3966 3.99926 18.6494 3.99902H16.752V7.24902ZM5.35352 3.99902C4.6061 3.99902 4 4.60513 4 5.35254V7.24902H7.25V3.99902H5.35352Z" fill="#8E97A5"/>
</svg>
