<svg width="24" height="24" viewBox="0 0 24 24" fill="none" xmlns="http://www.w3.org/2000/svg">
<path d="M20.3589 6.47706H8.18722C7.83259 6.47706 7.54608 6.16649 7.54608 5.78208C7.54608 5.39767 7.83259 5.0871 8.18722 5.0871H20.3589C20.7135 5.0871 21 5.39767 21 5.78208C21 6.16649 20.7135 6.47706 20.3589 6.47706Z" fill="#4AE7FD"/>
<path d="M7.65428 8.56419H3.71928C3.36465 8.56419 3.07814 8.25362 3.07814 7.86921V3.69498C3.07814 3.31057 3.36465 3 3.71928 3H7.65428C8.00891 3 8.29541 3.31057 8.29541 3.69498V7.87138C8.29541 8.25362 8.00891 8.56419 7.65428 8.56419ZM4.36042 7.17423H7.01314V4.38996H4.36042V7.17423ZM20.2827 18.9129H8.10908C7.75445 18.9129 7.46794 18.6023 7.46794 18.2179C7.46794 17.8335 7.75445 17.5229 8.10908 17.5229H20.2807C20.6354 17.5229 20.9219 17.8335 20.9219 18.2179C20.9219 18.6023 20.6354 18.9129 20.2827 18.9129Z" fill="#4AE7FD"/>
<path d="M7.57814 21H3.64114C3.28651 21 3 20.6894 3 20.305V16.1308C3 15.7464 3.28651 15.4358 3.64114 15.4358H7.57614C7.93077 15.4358 8.21727 15.7464 8.21727 16.1308V20.3072C8.21928 20.6894 7.93277 21 7.57814 21ZM4.28228 19.61H6.935V16.8258H4.28228V19.61Z" fill="#4AE7FD"/>
<path d="M15.8729 13.0316H3.69925C3.34461 13.0316 3.05811 12.7211 3.05811 12.3366C3.05811 11.9522 3.34461 11.6417 3.69925 11.6417H15.8709C16.2255 11.6417 16.512 11.9522 16.512 12.3366C16.512 12.7211 16.2255 13.0316 15.8729 13.0316Z" fill="#4AE7FD"/>
<path d="M20.3408 15.1188H16.4038C16.0492 15.1188 15.7627 14.8082 15.7627 14.4238V10.2495C15.7627 9.86513 16.0492 9.55457 16.4038 9.55457H20.3388C20.6935 9.55457 20.98 9.86513 20.98 10.2495V14.4238C20.982 14.8082 20.6935 15.1188 20.3408 15.1188ZM17.045 13.7288H19.6977V10.9445H17.045V13.7288Z" fill="#4AE7FD"/>
</svg>
