<svg width="24" height="24" viewBox="0 0 24 24" fill="none" xmlns="http://www.w3.org/2000/svg">
<circle cx="12" cy="12" r="12" fill="#121212"/>
<path d="M6.39779 18C6.25307 18 6.14608 17.9573 6.07928 17.8763C5.99517 17.7705 5.97786 17.5992 6.02795 17.3814L7.15911 13.5625L14.4118 6.30928C14.614 6.10701 14.8447 6 15.0766 6C15.1931 6.00289 15.3079 6.02912 15.4141 6.07715C15.5204 6.12517 15.6159 6.19401 15.6951 6.27959L17.7217 8.30598C18.1021 8.68639 18.0928 9.1899 17.6921 9.58825L10.4394 16.8402L6.6192 17.9728C6.54666 17.9902 6.47238 17.9993 6.39779 18ZM6.9074 17.0926L10.0077 16.1845L7.81529 13.993L6.9074 17.0926ZM8.19132 13.4369L8.24017 13.4858L9.27547 14.5212L10.5445 15.7905L15.7173 10.6181L13.3604 8.26454L8.19132 13.4369ZM15.0525 6.6866C14.9288 6.6866 14.8249 6.79113 14.6659 6.96186L13.8292 7.79876L16.1824 10.1524L17.021 9.31423C17.3822 8.95546 17.3828 8.90536 17.021 8.54289L16.9808 8.50206L15.4798 6.99773C15.2931 6.79918 15.1799 6.6866 15.0525 6.6866Z" fill="white"/>
</svg>
