<svg width="24" height="24" viewBox="0 0 24 24" fill="none" xmlns="http://www.w3.org/2000/svg">
<path d="M19.8525 4.68848C20.0216 4.70875 20.1759 4.79204 20.2822 4.91992C20.3886 5.04784 20.4386 5.21108 20.4219 5.37402C20.4051 5.53682 20.3226 5.68659 20.1924 5.79199L15.21 9.61816V20.3721C15.21 20.5386 15.1411 20.6986 15.0186 20.8164C14.896 20.9339 14.7298 21 14.5566 21C14.3835 20.9999 14.2172 20.934 14.0947 20.8164C13.9722 20.6986 13.9033 20.5386 13.9033 20.3721V9.31641C13.9035 9.12577 13.9938 8.94538 14.1484 8.82617L19.376 4.81152H19.377C19.5128 4.71266 19.6835 4.66822 19.8525 4.68848ZM10.1953 8.86035C10.3104 8.85965 10.4235 8.8886 10.5234 8.94336C10.6234 8.99816 10.7067 9.07731 10.7646 9.17285C10.8226 9.26854 10.8533 9.37758 10.8535 9.48828V14.0576C10.8535 14.2233 10.7849 14.3826 10.6641 14.5L5.43652 19.5586C5.31313 19.6711 5.14864 19.7333 4.97852 19.7314C4.80844 19.7296 4.64611 19.664 4.52539 19.5488C4.40466 19.4336 4.33515 19.2777 4.33203 19.1143C4.32901 18.9511 4.39186 18.7931 4.50781 18.6738L9.54688 13.7988V10.5889L6.66016 12.2275C6.51097 12.3122 6.33285 12.3363 6.16504 12.2949C5.99708 12.2534 5.85287 12.1493 5.76465 12.0059C5.67654 11.8625 5.65129 11.6915 5.69434 11.5303C5.73754 11.3689 5.84581 11.2303 5.99512 11.1455L9.86719 8.94727C9.96647 8.89108 10.0801 8.86111 10.1953 8.86035ZM19.1885 15.0264C19.2234 15.0264 19.2576 15.0363 19.2861 15.0557C19.3148 15.0751 19.3369 15.103 19.3486 15.1348L19.7363 16.1445C19.745 16.1666 19.7589 16.1865 19.7764 16.2031C19.7938 16.2198 19.8148 16.2331 19.8379 16.2412L20.8877 16.6143C20.9205 16.6257 20.9487 16.6473 20.9688 16.6748C20.9888 16.7023 21 16.735 21 16.7686C20.9999 16.802 20.9887 16.8349 20.9688 16.8623C20.9487 16.8896 20.9204 16.9105 20.8877 16.9219L19.8379 17.2949C19.8148 17.3031 19.7938 17.3164 19.7764 17.333C19.759 17.3496 19.745 17.3695 19.7363 17.3916L19.3486 18.4014C19.3369 18.433 19.3147 18.4601 19.2861 18.4795C19.2576 18.4989 19.2235 18.5097 19.1885 18.5098C19.1534 18.5098 19.1185 18.4989 19.0898 18.4795C19.0615 18.4601 19.0401 18.4329 19.0283 18.4014L18.6396 17.3916C18.631 17.3697 18.6179 17.3496 18.6006 17.333C18.5832 17.3164 18.5621 17.3031 18.5391 17.2949L17.4873 16.9219C17.4547 16.9103 17.4262 16.8887 17.4062 16.8613C17.3865 16.8339 17.376 16.801 17.376 16.7676C17.376 16.7342 17.3864 16.7013 17.4062 16.6738C17.4261 16.6465 17.4547 16.6259 17.4873 16.6143L18.5391 16.2412C18.5621 16.233 18.5832 16.2197 18.6006 16.2031C18.6179 16.1866 18.631 16.1665 18.6396 16.1445L19.0283 15.1348C19.0401 15.103 19.0612 15.0751 19.0898 15.0557C19.1185 15.0362 19.1534 15.0264 19.1885 15.0264ZM4.81152 4.35156C4.84646 4.35156 4.88059 4.36158 4.90918 4.38086C4.93785 4.40031 4.95993 4.42819 4.97168 4.45996L5.35938 5.46973C5.368 5.49184 5.382 5.51166 5.39941 5.52832C5.41687 5.54499 5.43784 5.55824 5.46094 5.56641L6.51074 5.93945C6.54359 5.95087 6.57271 5.97253 6.59277 6C6.61268 6.0274 6.62305 6.06033 6.62305 6.09375C6.62298 6.1272 6.61277 6.16011 6.59277 6.1875C6.57271 6.21494 6.54356 6.23566 6.51074 6.24707L5.46094 6.62012C5.43782 6.62828 5.41689 6.64153 5.39941 6.6582C5.38201 6.67482 5.36803 6.69473 5.35938 6.7168L4.97168 7.72656C4.95992 7.75827 4.9378 7.78527 4.90918 7.80469C4.88052 7.82411 4.8466 7.83496 4.81152 7.83496C4.77645 7.83496 4.74252 7.82411 4.71387 7.80469C4.68525 7.78527 4.66313 7.75827 4.65137 7.72656L4.26367 6.7168C4.25502 6.69473 4.24104 6.67482 4.22363 6.6582C4.20616 6.64153 4.18523 6.62828 4.16211 6.62012L3.11133 6.24707C3.07872 6.23548 3.05018 6.21393 3.03027 6.18652C3.01052 6.15911 3 6.12612 3 6.09277C3.00008 6.05936 3.01037 6.02643 3.03027 5.99902C3.05016 5.97164 3.07875 5.95105 3.11133 5.93945L4.16309 5.56641C4.18606 5.55823 4.20723 5.54492 4.22461 5.52832C4.24189 5.51174 4.25508 5.49169 4.26367 5.46973L4.65234 4.45996C4.66411 4.42829 4.68527 4.40026 4.71387 4.38086C4.74246 4.36158 4.77659 4.35156 4.81152 4.35156ZM12.3779 3C12.6925 3 13.0043 3.0592 13.2949 3.1748C13.5857 3.29052 13.8497 3.46099 14.0723 3.6748C14.2948 3.88862 14.4714 4.14251 14.5918 4.42188C14.7121 4.70116 14.7744 5.00045 14.7744 5.30273C14.7744 5.60506 14.7122 5.90428 14.5918 6.18359C14.4714 6.46296 14.2948 6.71685 14.0723 6.93066C13.8498 7.14441 13.5856 7.314 13.2949 7.42969C13.0042 7.54535 12.6925 7.60547 12.3779 7.60547C11.7425 7.6054 11.1329 7.36242 10.6836 6.93066C10.2343 6.49889 9.98149 5.91331 9.98145 5.30273C9.98145 4.69218 10.2344 4.1066 10.6836 3.6748C11.1329 3.24305 11.7425 3.00007 12.3779 3ZM12.3789 4.25586C12.2358 4.2559 12.0931 4.28328 11.9609 4.33594C11.8289 4.38859 11.7085 4.46533 11.6074 4.5625C11.5064 4.65968 11.4268 4.77543 11.3721 4.90234C11.3174 5.02925 11.2891 5.16539 11.2891 5.30273C11.2891 5.44024 11.3173 5.57708 11.3721 5.7041C11.4269 5.83102 11.5072 5.94681 11.6084 6.04395C11.7096 6.141 11.8298 6.21798 11.9619 6.27051C12.0941 6.32306 12.2359 6.34965 12.3789 6.34961C12.6679 6.34959 12.9451 6.23932 13.1494 6.04297C13.3537 5.84662 13.4688 5.58035 13.4688 5.30273C13.4687 5.0251 13.3537 4.75882 13.1494 4.5625C12.9451 4.36615 12.6679 4.25587 12.3789 4.25586Z" fill="#4AE7FD"/>
</svg>
