<svg width="12" height="12" viewBox="0 0 12 12" fill="none" xmlns="http://www.w3.org/2000/svg">
<path d="M5.10407 6.37917L5.22938 6.50556C5.26279 6.53927 5.29621 6.57086 5.32962 6.60035C5.36304 6.62985 5.39645 6.66144 5.42986 6.69515L5.58023 6.84682C5.7473 7.01534 5.81413 7.16279 5.78072 7.28918C5.7473 7.41557 5.64288 7.56303 5.46746 7.73155C5.39227 7.81581 5.26906 7.9443 5.09781 8.11704C4.92656 8.28977 4.74278 8.47725 4.54647 8.67947C4.35016 8.8817 4.16011 9.0755 3.97633 9.26087C3.79255 9.44624 3.65054 9.5937 3.5503 9.70324C3.39993 9.8549 3.29551 9.98761 3.23703 10.1014C3.17856 10.2151 3.20362 10.3268 3.31222 10.4363C3.3874 10.5121 3.48347 10.6132 3.60042 10.7396C3.71737 10.866 3.81761 10.9714 3.90115 11.0556C4.04316 11.1989 4.09537 11.3252 4.05778 11.4348C4.02019 11.5443 3.89697 11.6075 3.68813 11.6244C3.47094 11.6496 3.22868 11.6791 2.96136 11.7128C2.69405 11.7465 2.41838 11.7781 2.13435 11.8076C1.85033 11.8371 1.57257 11.8687 1.30108 11.9024C1.02959 11.9361 0.781065 11.9656 0.555517 11.9909C0.338322 12.0162 0.187957 11.9888 0.10442 11.9087C0.0208841 11.8287 -0.0125305 11.6876 0.00417682 11.4853C0.0208841 11.2747 0.0438566 11.0388 0.0730943 10.7776C0.102332 10.5163 0.133658 10.2488 0.167073 9.97498C0.200487 9.70113 0.231813 9.42939 0.261051 9.15976C0.290289 8.89013 0.317438 8.64156 0.342499 8.41406C0.36756 8.1697 0.436478 8.01382 0.549252 7.94641C0.662026 7.879 0.789419 7.91692 0.931431 8.06016C1.01497 8.14442 1.12356 8.24764 1.25722 8.36982C1.39088 8.492 1.50365 8.59943 1.59554 8.69211C1.68743 8.7848 1.77515 8.81429 1.85868 8.78059C1.94222 8.74688 2.03829 8.67947 2.14688 8.57836C2.25548 8.46882 2.40376 8.31716 2.59172 8.12336C2.77967 7.92956 2.97598 7.72944 3.18065 7.523C3.38531 7.31657 3.58371 7.11434 3.77584 6.91633C3.96798 6.71832 4.12252 6.56033 4.23947 6.44237C4.28959 6.39181 4.34598 6.34336 4.40863 6.29702C4.47128 6.25067 4.5402 6.21908 4.61538 6.20222C4.69057 6.18537 4.76784 6.18959 4.8472 6.21486C4.92656 6.24014 5.01218 6.29491 5.10407 6.37917ZM11.4445 0.00910011C11.6617 -0.016178 11.812 0.0112066 11.8956 0.0912538C11.9791 0.171301 12.0125 0.312437 11.9958 0.514661C11.9791 0.725312 11.9561 0.96124 11.9269 1.22245C11.8977 1.48365 11.8663 1.75118 11.8329 2.02503C11.7995 2.29887 11.7682 2.57272 11.7389 2.84656C11.7097 3.12041 11.6826 3.37108 11.6575 3.59858C11.6324 3.84294 11.5635 3.99671 11.4507 4.05991C11.338 4.1231 11.2106 4.08308 11.0686 3.93984C10.985 3.85558 10.8702 3.74604 10.724 3.61122C10.5778 3.47641 10.4588 3.36266 10.3669 3.26997C10.275 3.17728 10.1956 3.13726 10.1288 3.1499C10.062 3.16254 9.97842 3.21941 9.87818 3.32053C9.76123 3.43849 9.60877 3.59437 9.42081 3.78817C9.23286 3.98197 9.03446 4.1863 8.82562 4.40116C8.61678 4.61603 8.41211 4.82457 8.21163 5.02679L7.748 5.49444C7.69788 5.545 7.64358 5.59555 7.5851 5.64611C7.52663 5.69666 7.46189 5.73458 7.39088 5.75986C7.31987 5.78514 7.24469 5.78935 7.16533 5.7725C7.08597 5.75565 7.00453 5.70088 6.92099 5.60819L6.44483 5.12791C6.27776 4.95939 6.20466 4.80561 6.22555 4.66658C6.24643 4.52755 6.34041 4.37378 6.50748 4.20526C6.58267 4.12942 6.70797 4.00093 6.8834 3.81977C7.05882 3.63861 7.24678 3.44692 7.44727 3.24469C7.64776 3.04247 7.84198 2.84446 8.02993 2.65066C8.21789 2.45686 8.36617 2.3094 8.47477 2.20829C8.62513 2.05662 8.71911 1.93234 8.7567 1.83544C8.79429 1.73854 8.75879 1.63532 8.65019 1.52578C8.57501 1.44995 8.48521 1.35726 8.38079 1.24773C8.27637 1.13819 8.18239 1.04129 8.09885 0.957027C7.95684 0.813785 7.90463 0.687395 7.94222 0.577856C7.97981 0.468318 8.10303 0.40091 8.31187 0.375632C8.52071 0.350354 8.76088 0.320863 9.03237 0.287159C9.30386 0.253455 9.58162 0.221857 9.86565 0.192366C10.1497 0.162875 10.4274 0.131277 10.6989 0.0975733C10.9704 0.0638692 11.2189 0.0343782 11.4445 0.00910011Z" fill="white"/>
</svg>
