<svg width="16" height="16" viewBox="0 0 16 16" fill="none" xmlns="http://www.w3.org/2000/svg">
<path d="M8.49326 6.97327C8.52427 6.9976 8.54796 7.02544 8.56803 7.06193L12.3598 13.3211C12.4912 13.5366 12.409 13.8095 12.1918 13.9346L12.1737 13.9399C11.9565 14.065 11.6682 13.9868 11.5387 13.78L7.7451 7.51389C7.72685 7.47739 7.70679 7.44258 7.70131 7.40608L8.49326 6.97327Z" fill="white"/>
<path d="M5.02999 2.0977C5.28361 1.95865 5.59203 1.96913 5.83653 2.12208L8.56265 3.85675L11.6079 2.70088C11.8798 2.59832 12.1827 2.64876 12.3999 2.83649C12.617 3.02247 12.7028 3.30578 12.6225 3.57345L11.7339 6.57875L13.8231 8.97049C14.011 9.18602 14.053 9.47976 13.9308 9.73527C13.8104 9.99075 13.5495 10.1542 13.2557 10.1611L11.7886 10.1959L11.7649 9.30587L12.8779 9.27989L10.9621 7.08107C10.8015 6.89684 10.7467 6.65002 10.8142 6.41886L11.6335 3.64821L8.82715 4.71371C8.59361 4.80234 8.32909 4.7762 8.12109 4.64238L5.60852 3.04503L5.80555 5.91654C5.82195 6.15638 5.71428 6.38577 5.51724 6.53351L3.14511 8.31695L6.07376 9.02611C6.31824 9.0852 6.51532 9.25375 6.60108 9.47795L7.63026 12.1321L8.17947 11.2248L8.21225 11.1727L8.98051 11.6785C8.98203 11.677 8.98309 11.6755 8.9841 11.674L8.25604 12.8761C8.11737 13.109 7.86925 13.2446 7.59556 13.2446C7.57367 13.2446 7.55169 13.2428 7.52797 13.2411C7.23058 13.2167 6.9806 13.036 6.87659 12.7684L5.75267 9.86734L2.57591 9.09904C2.29309 9.03125 2.07769 8.8175 2.01748 8.54634C1.95544 8.27346 2.06129 7.99707 2.29119 7.82499L4.86394 5.89215L4.65052 2.77563C4.63228 2.49753 4.7782 2.23849 5.02999 2.0977Z" fill="white"/>
</svg>
