<svg width="24" height="24" viewBox="0 0 24 24" fill="none" xmlns="http://www.w3.org/2000/svg">
<path fill-rule="evenodd" clip-rule="evenodd" d="M16.1794 13.0259C19.0453 14.5297 21 17.5284 21 21H3C3 17.5284 4.95464 14.5322 7.82059 13.0284C8.94445 13.9899 10.4043 14.5635 12 14.5635C13.5958 14.5635 15.0556 13.9874 16.1794 13.0259ZM16.2648 14.5677C15.0096 15.3982 13.5258 15.8478 12 15.8478C10.473 15.8478 8.98925 15.3993 7.73521 14.5702C6.80631 15.1866 6.01829 15.9984 5.42997 16.9507C4.9069 17.7974 4.55583 18.7364 4.39202 19.7157H19.608C19.4442 18.736 19.0932 17.7963 18.57 16.949C17.9828 15.9983 17.1962 15.186 16.2648 14.5677Z" fill="#4AE7FD"/>
<path fill-rule="evenodd" clip-rule="evenodd" d="M12 3C14.8403 3 17.1429 5.29997 17.1429 8.13712C17.1429 10.9743 14.8403 13.2742 12 13.2742C9.15968 13.2742 6.85714 10.9743 6.85714 8.13712C6.85714 5.29997 9.15968 3 12 3ZM12 4.28428C10.9697 4.28428 10.0014 4.68536 9.27288 5.41304C8.54438 6.14077 8.14286 7.10799 8.14286 8.13712C8.14286 9.16625 8.54438 10.1335 9.27288 10.8612C10.0014 11.5889 10.9697 11.99 12 11.99C13.0303 11.99 13.9986 11.5889 14.7271 10.8612C15.4556 10.1335 15.8571 9.16625 15.8571 8.13712C15.8571 7.10799 15.4556 6.14077 14.7271 5.41304C13.9986 4.68536 13.0303 4.28428 12 4.28428Z" fill="#4AE7FD"/>
</svg>
