<svg width="24" height="24" viewBox="0 0 24 24" fill="none" xmlns="http://www.w3.org/2000/svg">
<path fill-rule="evenodd" clip-rule="evenodd" d="M6.56506 12.1787C6.92062 12.1277 7.27696 12.3315 7.32775 12.6885C7.68338 14.8301 9.71491 16.4619 12.0006 16.4619C14.3371 16.4619 16.3178 14.83 16.6735 12.6885C16.7242 12.3826 17.0797 12.1279 17.4352 12.1787C17.7907 12.2297 18.0455 12.5356 17.9947 12.8926C17.5375 15.4931 15.3528 17.4304 12.6608 17.7363V19.6738H14.693C15.0483 19.674 15.353 19.9802 15.3531 20.3369C15.3531 20.6937 15.0484 20.9998 14.693 21H9.30822C8.95275 20.9999 8.64807 20.6938 8.64807 20.3369C8.64819 19.9801 8.95282 19.6739 9.30822 19.6738H11.3404V17.7363C8.59761 17.4304 6.41289 15.4931 6.00646 12.8926C5.95569 12.5358 6.20976 12.2299 6.56506 12.1787ZM12.0006 3C14.0831 3.00001 15.81 4.7335 15.8102 6.875V10.8525C15.8102 12.9942 14.134 14.7285 12.0006 14.7285C9.86724 14.7285 8.19104 12.9942 8.19104 10.8525V6.875C8.1912 4.73349 9.91814 3 12.0006 3ZM12.0006 4.17285C10.5277 4.17285 9.35917 5.39638 9.359 6.875V10.8525C9.359 12.3313 10.5276 13.5557 12.0006 13.5557C13.4736 13.5557 14.6422 12.3313 14.6422 10.8525V6.875C14.642 5.39639 13.4735 4.17286 12.0006 4.17285Z" fill="#8E97A5"/>
</svg>
