<svg width="24" height="24" viewBox="0 0 24 24" fill="none" xmlns="http://www.w3.org/2000/svg">
<path fill-rule="evenodd" clip-rule="evenodd" d="M6.56506 12.1787C6.9206 12.1277 7.27696 12.3315 7.32775 12.6885C7.68337 14.8301 9.71503 16.4619 12.0006 16.4619C14.3368 16.4617 16.3179 14.83 16.6735 12.6885C16.7242 12.3825 17.0796 12.1277 17.4352 12.1787C17.7906 12.2298 18.0445 12.5357 17.9938 12.8926C17.5366 15.493 15.3525 17.4303 12.6608 17.7363V19.6738H14.692C15.0475 19.6738 15.352 19.9801 15.3522 20.3369C15.3522 20.6939 15.0476 21 14.692 21H9.30822C8.95268 21 8.64807 20.6939 8.64807 20.3369C8.6482 19.9801 8.95276 19.6738 9.30822 19.6738H11.3395V17.7363C8.59698 17.4302 6.41285 15.4929 6.00647 12.8926C5.95569 12.5358 6.20973 12.2299 6.56506 12.1787ZM12.0006 3C14.0828 3.00023 15.809 4.73363 15.8092 6.875V10.8525C15.8092 12.9941 14.1337 14.7283 12.0006 14.7285C9.86735 14.7285 8.19104 12.9942 8.19104 10.8525V6.875C8.1912 4.73349 9.91824 3 12.0006 3ZM12.0006 4.17285C10.5277 4.17285 9.35917 5.39638 9.359 6.875V10.8525C9.359 12.3313 10.5276 13.5557 12.0006 13.5557C13.4734 13.5554 14.6412 12.3312 14.6412 10.8525V6.875C14.6411 5.39652 13.4733 4.17308 12.0006 4.17285Z" fill="#4AE7FD"/>
</svg>
