<svg width="18" height="18" viewBox="0 0 18 18" fill="none" xmlns="http://www.w3.org/2000/svg">
<path d="M3.31811 11.9976L3.35031 12H17.5235C17.6345 12 17.742 12.0494 17.8272 12.1395C17.9123 12.2296 17.9698 12.3547 17.9896 12.493L17.9972 12.601V13.8005C17.9972 13.8792 17.9849 13.9572 17.9611 14.03C17.9373 14.1028 17.9024 14.1689 17.8584 14.2246C17.8145 14.2803 17.7623 14.3244 17.7048 14.3546C17.6473 14.3847 17.5857 14.4002 17.5235 14.4002H3.79172V17.4002C3.79172 17.5261 3.76044 17.6488 3.70232 17.7509C3.6442 17.853 3.56218 17.9294 3.46788 17.9692C3.37357 18.009 3.27177 18.0103 3.17689 17.9727C3.08201 17.9352 2.99886 17.8608 2.93922 17.7601L0.0975636 12.956C0.0447906 12.8669 0.0126542 12.761 0.0047554 12.65C-0.00314345 12.5391 0.0135073 12.4276 0.0528419 12.3279C0.0921765 12.2283 0.152641 12.1445 0.22746 12.086C0.302279 12.0274 0.388496 11.9964 0.476451 11.9964H3.31811V11.9976ZM15.0636 0.239904L17.9053 5.04398C17.958 5.13309 17.9902 5.23904 17.9981 5.34998C18.006 5.46091 17.9893 5.57243 17.95 5.67206C17.9107 5.77168 17.8502 5.85547 17.7754 5.91402C17.7006 5.97258 17.6143 6.0036 17.5264 6.0036H0.473609C0.411414 6.0036 0.349828 5.98808 0.292367 5.95794C0.234906 5.9278 0.182696 5.88363 0.138717 5.82793C0.0947381 5.77224 0.0598524 5.70612 0.0360513 5.63336C0.0122502 5.56059 -2.9154e-09 5.4826 0 5.40384V4.20432C-2.9154e-09 4.12556 0.0122502 4.04757 0.0360513 3.9748C0.0598524 3.90203 0.0947381 3.83592 0.138717 3.78022C0.182696 3.72453 0.234906 3.68035 0.292367 3.65021C0.349828 3.62007 0.411414 3.60456 0.473609 3.60456H14.2102V0.59976C14.2102 0.473881 14.2415 0.351193 14.2996 0.249074C14.3577 0.146956 14.4397 0.0705841 14.534 0.0307777C14.6283 -0.00902883 14.7301 -0.0102521 14.825 0.027281C14.9199 0.0648141 15.003 0.139201 15.0627 0.239904H15.0636Z" fill="white"/>
</svg>
