<svg width="24" height="24" viewBox="0 0 24 24" fill="none" xmlns="http://www.w3.org/2000/svg">
<path d="M3.85919 20H20.1838C20.6563 20 21 19.6022 21 19.1602C21 18.674 20.6134 18.3204 20.1838 18.3204H3.85919C3.38663 18.3204 3 18.7182 3 19.1602C3.04296 19.6022 3.38663 20 3.85919 20ZM3.85919 16.7293H19.0668C19.3675 16.7293 19.6253 16.5967 19.7542 16.3315C19.926 16.0663 19.926 15.8011 19.7971 15.5359L16.3604 7.9779C16.2315 7.66851 15.9308 7.49171 15.6301 7.49171C15.3294 7.49171 15.0286 7.66851 14.8568 7.9337L13.2673 11.0718L10.3031 4.48619C10.1742 4.1768 9.87351 4 9.57279 4C9.27208 4 8.97136 4.1768 8.79952 4.44199L3.12888 15.4917C3 15.7569 3 16.0663 3.12888 16.3315C3.30072 16.5967 3.55847 16.7293 3.85919 16.7293ZM9.48687 6.78453L12.494 13.3702C12.6229 13.6796 12.9236 13.8564 13.2243 13.8564C13.5251 13.8564 13.8258 13.6796 13.9976 13.4144L15.5871 10.2762L17.778 15.0939H5.23389C5.23389 15.0497 9.48687 6.78453 9.48687 6.78453Z" fill="#8E97A5"/>
</svg>
