<svg width="16" height="16" viewBox="0 0 16 16" fill="none" xmlns="http://www.w3.org/2000/svg">
<path fill-rule="evenodd" clip-rule="evenodd" d="M3.4082 3.35742C3.45825 3.35647 3.50788 3.35821 3.55664 3.3623H10.9297C10.9365 3.36192 10.9433 3.36036 10.9502 3.36035C11.7107 3.34583 12.3394 3.92979 12.3574 4.66602V10.2549C12.3574 10.4422 12.1999 10.5947 12.0049 10.5947C11.8099 10.5947 11.6543 10.4422 11.6543 10.2549V4.66602C11.6365 4.30961 11.3289 4.03262 10.9619 4.04102L10.9609 4.04199H4.63965C4.74619 4.22623 4.80991 4.43732 4.81543 4.66309V11.4863C4.81529 11.5036 4.81227 11.5205 4.80957 11.5371V12.6914C4.82757 13.0515 5.14075 13.3309 5.5127 13.3164C5.51593 13.3164 5.51925 13.3173 5.52246 13.3174H12.6514C13.0233 13.3 13.3118 12.9968 13.2969 12.6367C13.3119 12.2766 13.0234 11.9725 12.6514 11.9551H12.168C12.1651 11.9551 12.162 11.9561 12.1592 11.9561H6.21973C6.02487 11.9561 5.8684 11.8033 5.86816 11.6162C5.86816 11.4274 6.02622 11.2764 6.21973 11.2764H12.6514C13.4118 11.2938 14.0133 11.9016 14 12.6377C14.015 13.3739 13.4119 13.9826 12.6514 14H5.51465C5.5028 13.9998 5.49104 13.9973 5.47949 13.9961C4.73403 13.9932 4.12321 13.4168 4.10547 12.6914V6.81934C4.10559 6.80472 4.10839 6.79051 4.11035 6.77637V4.66309C4.09318 4.31963 3.80714 4.05361 3.45801 4.04199H3.40332C3.39741 4.04199 3.39158 4.04032 3.38574 4.04004C3.02305 4.03663 2.72078 4.30979 2.70312 4.66309V6.04395C2.70312 6.04558 2.70217 6.0472 2.70215 6.04883L2.71387 6.10059C2.73716 6.14793 2.79105 6.17871 2.84277 6.17871C2.91165 6.1787 2.98315 6.12413 2.9834 6.04883C2.9864 5.86005 3.14146 5.70898 3.33496 5.70898C3.52837 5.70909 3.68555 5.86157 3.68555 6.04883C3.67783 6.48993 3.30188 6.84294 2.84473 6.83594C2.38736 6.8432 2.00922 6.49154 2 6.04883C2 6.04568 2.00089 6.04219 2.00098 6.03906V4.66309C2.01898 3.92691 2.64776 3.34444 3.4082 3.35742ZM10.29 9.7373C10.464 9.7373 10.6035 9.88935 10.6035 10.0781C10.602 10.2654 10.463 10.4179 10.2891 10.418H6.18164C6.00773 10.4179 5.86819 10.2654 5.86816 10.0781C5.86816 9.88941 6.00922 9.73741 6.18164 9.7373H10.29ZM12.3906 2.00293C13.1368 2.00496 13.7478 2.58076 13.7656 3.30664V8.54297C13.7656 8.72884 13.6081 8.88184 13.4131 8.88184C13.2197 8.88165 13.0625 8.7287 13.0625 8.54004V3.30566C13.0445 2.94569 12.7312 2.66639 12.3594 2.68066C12.3563 2.68066 12.3527 2.67977 12.3496 2.67969H6.10645C5.91322 2.67949 5.75602 2.52691 5.75586 2.33984C5.75586 2.15264 5.91312 2.0002 6.10645 2H12.3691C12.3763 2 12.3836 2.00252 12.3906 2.00293ZM8.71387 8.2002C8.88779 8.2002 9.02722 8.35283 9.02734 8.54004C9.02734 8.72736 8.88637 8.87988 8.71387 8.87988H6.18164C6.00772 8.87978 5.86816 8.7273 5.86816 8.54004C5.86829 8.35289 6.00929 8.2003 6.18164 8.2002H8.71387ZM7.8916 6.66309C8.08661 6.66309 8.24316 6.81561 8.24316 7.00293C8.24441 7.19005 8.08645 7.3418 7.8916 7.3418H6.21973C6.02488 7.3418 5.86841 7.19005 5.86816 7.00293C5.86816 6.81561 6.02622 6.66309 6.21973 6.66309H7.8916ZM10.248 5.12305C10.431 5.12305 10.5899 5.25554 10.6064 5.43262C10.6244 5.63577 10.4616 5.80445 10.2578 5.80469H6.22656C6.04367 5.80457 5.88466 5.67219 5.86816 5.49512C5.85021 5.2933 6.01425 5.12305 6.21973 5.12305H10.248Z" fill="#8E97A5"/>
</svg>
