<svg width="24" height="24" viewBox="0 0 24 24" fill="none" xmlns="http://www.w3.org/2000/svg">
<path fill-rule="evenodd" clip-rule="evenodd" d="M10.6797 3C14.9211 3 18.3605 6.43826 18.3608 10.6797L18.3509 11.0748C18.2644 12.7835 17.6163 14.3425 16.5917 15.5777C16.5982 15.5838 16.6064 15.5882 16.6128 15.5946L20.7894 19.7712C21.07 20.0525 21.0704 20.5084 20.7894 20.7894C20.5084 21.0704 20.0525 21.07 19.7712 20.7894L15.5946 16.6128C15.5885 16.6066 15.5836 16.5994 15.5777 16.5931C14.2479 17.6957 12.5419 18.3608 10.6797 18.3608L10.2845 18.3509C6.22673 18.145 3 14.7886 3 10.6797C3.00027 6.43842 6.43843 3.00025 10.6797 3ZM10.6797 4.44003C7.23374 4.44028 4.44029 7.23372 4.44003 10.6797C4.44003 14.1259 7.23357 16.9205 10.6797 16.9207C14.126 16.9207 16.9207 14.126 16.9207 10.6797C16.9205 7.23356 14.1258 4.44003 10.6797 4.44003Z" fill="#8E97A5"/>
</svg>
