<svg width="24" height="24" viewBox="0 0 24 24" fill="none" xmlns="http://www.w3.org/2000/svg">
<path d="M21.3749 10.0445C22.6305 10.3553 22.7231 12.1546 21.4384 12.5815L17.126 14.0144C16.4373 14.2434 15.8934 14.7793 15.6531 15.4624L15.6538 15.4631L13.6057 20.214L13.5967 20.234L13.5898 20.2547C13.1872 21.4732 11.5047 21.4772 11.0915 20.3169L11.0852 20.2996L11.0777 20.2837L8.99984 15.5639L8.99915 15.5633C8.76627 14.948 8.22861 14.4953 7.66711 14.2602L7.45304 14.1829L3.21869 12.5739L3.20349 12.5684L3.18692 12.5629C1.95252 12.1881 1.95042 10.3981 3.24147 10.0307L7.36741 9.22484L7.38537 9.2207L7.40401 9.21587C8.15117 9.01067 8.74888 8.44772 9.00053 7.71603L11.0231 3.03904L11.0321 3.01901L11.039 2.9983L11.0797 2.88712C11.5448 1.78013 13.1377 1.81136 13.538 2.93546L13.5442 2.9541L13.5525 2.97344L15.6511 7.63385C15.8999 8.30329 16.3853 8.86518 17.1606 9.05497L17.1647 9.05635L21.3749 10.0459V10.0445Z" stroke="#121212"/>
</svg>
