<svg width="24" height="24" viewBox="0 0 24 24" fill="none" xmlns="http://www.w3.org/2000/svg">
<path d="M10.5212 6.13452C10.8997 4.9914 12.5046 4.9561 12.9049 6.08209L14.3544 9.30608C14.4944 9.70016 14.7586 9.99613 15.1654 10.0954L18.0784 10.7779C19.303 11.0767 19.354 12.7965 18.1501 13.1974L15.1654 14.1912C14.7825 14.3187 14.4812 14.6205 14.3544 15.0036L12.9346 18.2919C12.5562 19.435 10.9513 19.4703 10.551 18.3443L9.11495 15.0796C8.98294 14.7082 8.61688 14.4226 8.23951 14.3083L5.31016 13.1974C4.10519 12.8323 4.14683 11.1142 5.36878 10.7779L8.23951 10.214C8.65134 10.1007 8.98063 9.78775 9.11495 9.38205L10.5212 6.13452Z" fill="url(#paint0_radial_360_256)"/>
<defs>
<radialGradient id="paint0_radial_360_256" cx="0" cy="0" r="1" gradientUnits="userSpaceOnUse" gradientTransform="translate(11.7279 12.2132) rotate(135) scale(6)">
<stop stop-color="#A9F4FF"/>
<stop offset="1" stop-color="#4AE7FD"/>
</radialGradient>
</defs>
</svg>
