<svg width="24" height="24" viewBox="0 0 24 24" fill="none" xmlns="http://www.w3.org/2000/svg">
<path fill-rule="evenodd" clip-rule="evenodd" d="M7.3424 12.1992C7.41331 12.1992 7.48325 12.2191 7.54358 12.2568C7.60391 12.2946 7.65247 12.3488 7.6842 12.4131L11.6451 20.4395C11.6742 20.4984 11.688 20.5641 11.6852 20.6299C11.6823 20.6958 11.6628 20.7603 11.6285 20.8164C11.5943 20.8725 11.5467 20.9191 11.4899 20.9512C11.433 20.9833 11.3685 21 11.3033 21H3.38244C3.31732 21 3.2528 20.9833 3.19592 20.9512C3.13908 20.9191 3.09148 20.8725 3.05725 20.8164C3.02301 20.7603 3.00352 20.6958 3.00061 20.6299C2.99775 20.5641 3.01155 20.4984 3.04065 20.4395L7.00158 12.4131C7.03332 12.3488 7.08189 12.2946 7.14221 12.2568C7.2024 12.2192 7.27167 12.1993 7.3424 12.1992ZM5.23694 19.4512H9.44885L7.3424 15.1826L5.23694 19.4512Z" fill="#4AE7FD"/>
<path fill-rule="evenodd" clip-rule="evenodd" d="M20.236 12.6777C20.4386 12.6777 20.6327 12.7591 20.776 12.9043C20.9192 13.0494 20.9995 13.246 20.9996 13.4512V20.2256C20.9996 20.4309 20.9193 20.6282 20.776 20.7734C20.6327 20.9185 20.4385 21 20.236 21H13.5504C13.3479 20.9999 13.1536 20.9185 13.0104 20.7734C12.8671 20.6282 12.7867 20.4309 12.7867 20.2256V13.4512C12.7869 13.246 12.8672 13.0494 13.0104 12.9043C13.1536 12.7592 13.3479 12.6778 13.5504 12.6777H20.236ZM14.3151 19.4512H19.4723V14.2256H14.3151V19.4512Z" fill="#4AE7FD"/>
<path fill-rule="evenodd" clip-rule="evenodd" d="M11.4498 11.3223H3.23596V3H11.4498V11.3223ZM4.76428 9.77441H9.92151V4.54883H4.76428V9.77441Z" fill="#4AE7FD"/>
<path fill-rule="evenodd" clip-rule="evenodd" d="M16.8932 3C19.1575 3 20.9995 4.86669 20.9996 7.16113C20.9996 9.45565 19.1576 11.3223 16.8932 11.3223C14.6288 11.3222 12.7867 9.45561 12.7867 7.16113C12.7868 4.86673 14.6289 3.00007 16.8932 3ZM16.8932 4.54883C16.3833 4.54885 15.8846 4.70125 15.4606 4.98828C15.0366 5.27532 14.7065 5.68383 14.5114 6.16113C14.3162 6.63851 14.2644 7.16411 14.3639 7.6709C14.4634 8.17773 14.7093 8.64338 15.0699 9.00879C15.4306 9.3742 15.8901 9.62281 16.3903 9.72363C16.8905 9.82445 17.4093 9.77296 17.8805 9.5752C18.3515 9.37742 18.7545 9.04283 19.0377 8.61328C19.3211 8.18359 19.4723 7.67792 19.4723 7.16113C19.4715 6.46844 19.1988 5.80426 18.7155 5.31445C18.2321 4.82475 17.5767 4.5496 16.8932 4.54883Z" fill="#4AE7FD"/>
</svg>
