<svg width="24" height="24" viewBox="0 0 24 24" fill="none" xmlns="http://www.w3.org/2000/svg">
<path d="M20.236 21H13.5507C13.348 21 13.1537 20.9184 13.0104 20.7732C12.8671 20.6281 12.7866 20.4311 12.7866 20.2258V13.4516C12.7866 13.2463 12.8671 13.0494 13.0104 12.9042C13.1537 12.759 13.348 12.6774 13.5507 12.6774H20.236C20.4386 12.6774 20.6329 12.759 20.7762 12.9042C20.9195 13.0494 21 13.2463 21 13.4516V20.2258C21 20.4311 20.9195 20.6281 20.7762 20.7732C20.6329 20.9184 20.4386 21 20.236 21ZM14.3147 19.4516H19.4719V14.2258H14.3147V19.4516ZM11.3037 21H3.38205C3.31692 21 3.25287 20.9831 3.19598 20.951C3.1391 20.9189 3.09127 20.8725 3.05703 20.8164C3.0228 20.7602 3.0033 20.6961 3.00038 20.6302C2.99747 20.5643 3.01124 20.4987 3.04039 20.4397L7.00119 12.413C7.03293 12.3487 7.0817 12.2946 7.14204 12.2568C7.20239 12.2191 7.27192 12.199 7.34286 12.199C7.4138 12.199 7.48334 12.2191 7.54368 12.2568C7.60403 12.2946 7.6528 12.3487 7.68453 12.413L11.6453 20.4397C11.6745 20.4987 11.6883 20.5643 11.6853 20.6302C11.6824 20.6961 11.6629 20.7602 11.6287 20.8164C11.5945 20.8725 11.5466 20.9189 11.4897 20.951C11.4329 20.9831 11.3688 21 11.3037 21ZM5.23651 19.4516H9.44921L7.34286 15.1827L5.23651 19.4516ZM16.8933 11.3226C14.6289 11.3226 12.7866 9.45581 12.7866 7.16129C12.7866 4.86677 14.6289 3 16.8933 3C19.1577 3 21 4.86677 21 7.16129C21 9.45581 19.1577 11.3226 16.8933 11.3226ZM16.8933 4.54839C16.3833 4.54839 15.8848 4.70163 15.4607 4.98874C15.0367 5.27585 14.7061 5.68393 14.511 6.16138C14.3158 6.63882 14.2647 7.16419 14.3642 7.67104C14.4637 8.1779 14.7093 8.64347 15.0699 9.00889C15.4306 9.37431 15.89 9.62317 16.3902 9.72399C16.8904 9.82481 17.4089 9.77306 17.8801 9.5753C18.3513 9.37753 18.754 9.04263 19.0374 8.61294C19.3207 8.18325 19.4719 7.67807 19.4719 7.16129C19.4712 6.46854 19.1993 5.80439 18.7158 5.31454C18.2324 4.82469 17.577 4.54916 16.8933 4.54839ZM11.4496 11.3226H3.23617V3H11.4496V11.3226ZM4.76424 9.77419H9.92148V4.54839H4.76424V9.77419Z" fill="#4AE7FD"/>
</svg>
