<svg width="12" height="12" viewBox="0 0 12 12" fill="none" xmlns="http://www.w3.org/2000/svg">
<path fill-rule="evenodd" clip-rule="evenodd" d="M6 0C9.31371 0 12 2.68629 12 6C12 9.31371 9.31371 12 6 12C2.68629 12 0 9.31371 0 6C0 2.68629 2.68629 0 6 0ZM3.9043 2C3.75872 2.00004 3.61178 2.04718 3.50065 2.14063C3.2774 2.32754 3.27746 2.63114 3.50065 2.81901L7.28646 5.99935L3.50065 9.18034C3.27722 9.3673 3.27722 9.67241 3.50065 9.85938C3.72408 10.0472 4.08579 10.0472 4.30924 9.85938L8.49935 6.33789C8.72248 6.15092 8.72265 5.84639 8.49935 5.65951L4.30924 2.14063C4.19696 2.04622 4.05104 2 3.9043 2Z" fill="#4AE7FD"/>
</svg>
