<svg width="24" height="24" viewBox="0 0 24 24" fill="none" xmlns="http://www.w3.org/2000/svg">
<path fill-rule="evenodd" clip-rule="evenodd" d="M15.2539 3C15.4954 3 15.7285 3.08909 15.9043 3.25C15.9877 3.32621 16.0542 3.41841 16.0996 3.52051C16.145 3.62253 16.1679 3.7326 16.168 3.84375C16.168 3.95503 16.1451 4.06582 16.0996 4.16797C16.0541 4.27004 15.9877 4.36229 15.9043 4.43848L14.1621 6.03027H19.875C20.1734 6.03027 20.4599 6.14565 20.6709 6.35059C20.8817 6.5555 21 6.83332 21 7.12305V18.9072C21 19.1971 20.8819 19.4757 20.6709 19.6807C20.4599 19.8855 20.1733 20 19.875 20H4.125C3.82672 20 3.54007 19.8855 3.3291 19.6807C3.11811 19.4757 3 19.1971 3 18.9072V7.12305C3 6.83327 3.11817 6.55551 3.3291 6.35059C3.54009 6.14565 3.82662 6.03027 4.125 6.03027H9.87012L8.12988 4.43848C8.0466 4.36227 7.97993 4.26999 7.93457 4.16797C7.88922 4.06594 7.86622 3.95586 7.86621 3.84473C7.86621 3.73359 7.88922 3.62351 7.93457 3.52148C7.97993 3.41944 8.04659 3.32719 8.12988 3.25098C8.30557 3.09052 8.53813 3.00098 8.7793 3.00098C9.02027 3.00107 9.25216 3.09066 9.42773 3.25098L10.2236 3.97754L11.8965 5.50781C11.9417 5.54917 11.981 5.59578 12.0156 5.64551C12.0505 5.59509 12.0919 5.54868 12.1377 5.50684L12.9326 4.78027L14.6045 3.25C14.7802 3.08921 15.0125 3.00008 15.2539 3ZM5.96191 7.9043C5.66353 7.9043 5.377 8.01967 5.16602 8.22461C4.95517 8.42951 4.83694 8.70737 4.83691 8.99707V17.0332C4.83691 17.323 4.95503 17.6017 5.16602 17.8066C5.37699 18.0115 5.66359 18.126 5.96191 18.126H18.0381C18.3364 18.126 18.623 18.0116 18.834 17.8066C19.045 17.6017 19.1631 17.323 19.1631 17.0332V8.99707C19.1631 8.70742 19.0448 8.42949 18.834 8.22461C18.623 8.01969 18.3364 7.90432 18.0381 7.9043H5.96191ZM10.8838 10.4004C10.9954 10.4129 11.1034 10.4502 11.1982 10.5088L14.4941 12.6758C14.5547 12.7115 14.6057 12.761 14.6416 12.8203C14.6774 12.8796 14.6975 12.947 14.7002 13.0156C14.7001 13.1466 14.6245 13.2702 14.4941 13.3564L11.1982 15.5234C11.1033 15.5818 10.9954 15.6186 10.8838 15.6309C10.7722 15.6431 10.6587 15.6309 10.5527 15.5947C10.3382 15.5215 10.2004 15.3605 10.2002 15.1826V10.8486C10.2002 10.6717 10.3381 10.5098 10.5527 10.4365C10.6587 10.4005 10.7722 10.388 10.8838 10.4004Z" fill="#4AE7FD"/>
</svg>
