<svg width="18" height="18" viewBox="0 0 18 18" fill="none" xmlns="http://www.w3.org/2000/svg">
<path d="M9 11.7047C9.11819 11.7047 9.23522 11.6815 9.34441 11.6363C9.45361 11.5911 9.55282 11.5248 9.63639 11.4413C9.71997 11.3578 9.78626 11.2587 9.83149 11.1496C9.87672 11.0405 9.9 10.9235 9.9 10.8054V3.61083H12.663C12.7741 3.61056 12.8812 3.56924 12.9636 3.49481L13.0203 3.43366C13.0925 3.33892 13.1241 3.21943 13.1083 3.10142C13.0924 2.9834 13.0303 2.87649 12.9357 2.80414L9.4401 0.13854C9.3222 0.0485287 9.17791 -0.000162125 9.02955 0C8.88118 0.000162125 8.73699 0.0491695 8.6193 0.139439L5.1498 2.80503C5.07548 2.86228 5.02092 2.94132 4.99377 3.03108C4.96663 3.12084 4.96824 3.21684 4.99839 3.30564C5.02854 3.39444 5.08572 3.4716 5.16193 3.52632C5.23814 3.58104 5.32956 3.61059 5.4234 3.61083H8.1V10.8054C8.1 10.9235 8.12328 11.0405 8.16851 11.1496C8.21374 11.2587 8.28003 11.3578 8.3636 11.4413C8.44718 11.5248 8.54639 11.5911 8.65558 11.6363C8.76478 11.6815 8.88181 11.7047 9 11.7047ZM13.8447 5.41577C13.6169 5.44284 13.4081 5.55581 13.2608 5.73158C13.1136 5.90736 13.0391 6.13268 13.0525 6.3615C13.066 6.59033 13.1664 6.80539 13.3332 6.96274C13.5 7.1201 13.7206 7.20787 13.95 7.20812H16.2V16.2014H1.8V7.20812H4.05C4.28869 7.20812 4.51761 7.11337 4.6864 6.94471C4.85518 6.77606 4.95 6.54731 4.95 6.3088C4.95 6.07028 4.85518 5.84154 4.6864 5.67288C4.51761 5.50422 4.28869 5.40947 4.05 5.40947H1.8C1.56362 5.40947 1.32956 5.456 1.11117 5.54639C0.892784 5.63678 0.694353 5.76927 0.527208 5.93629C0.360062 6.10331 0.227475 6.30159 0.137017 6.51981C0.0465584 6.73803 -2.77007e-09 6.97192 0 7.20812V16.2014C-2.77007e-09 16.4376 0.0465584 16.6714 0.137017 16.8897C0.227475 17.1079 0.360062 17.3062 0.527208 17.4732C0.694353 17.6402 0.892784 17.7727 1.11117 17.8631C1.32956 17.9535 1.56362 18 1.8 18H16.2C16.4364 18 16.6704 17.9535 16.8888 17.8631C17.1072 17.7727 17.3056 17.6402 17.4728 17.4732C17.6399 17.3062 17.7725 17.1079 17.863 16.8897C17.9534 16.6714 18 16.4376 18 16.2014V7.20812C18 6.97192 17.9534 6.73803 17.863 6.51981C17.7725 6.30159 17.6399 6.10331 17.4728 5.93629C17.3056 5.76927 17.1072 5.63678 16.8888 5.54639C16.6704 5.456 16.4364 5.40947 16.2 5.40947H13.95L13.8447 5.41577Z" fill="white"/>
</svg>
