<svg width="12" height="12" viewBox="0 0 12 12" fill="none" xmlns="http://www.w3.org/2000/svg">
<path d="M11.0431 4.77983H3.08793L11.0832 2.32123C11.5844 2.18231 11.8701 1.70105 11.7204 1.24494L11.5155 0.620171C11.3957 0.255023 11.0186 0 10.5985 0C10.506 3.4267e-05 10.4141 0.0121953 10.3255 0.0361045L10.319 0.0378774L0.677035 3.00282C0.175792 3.14175 -0.109858 3.62301 0.0397726 4.07912L0.244759 4.70389C0.301274 4.87613 0.415059 5.02384 0.563586 5.13186C0.445734 5.27599 0.375901 5.45422 0.375901 5.64696V11.1329C0.375901 11.611 0.805158 12 1.33281 12H11.0431C11.5707 12 12 11.611 12 11.1329V5.64697C12 5.16882 11.5707 4.77983 11.0431 4.77983ZM11.285 5.64696V6.51794H8.4809L9.45258 5.42777H11.0431C11.1765 5.42777 11.285 5.5261 11.285 5.64696ZM1.3328 5.42777H3.76639L2.69839 6.39558C2.66027 6.43003 2.63126 6.47186 2.61356 6.51794H1.09095V5.64696C1.09095 5.5261 1.19945 5.42777 1.33281 5.42777H1.3328ZM4.70251 5.49583C4.72489 5.47555 4.74421 5.45266 4.75994 5.42777H8.53345L7.64808 6.4211C7.62226 6.45004 7.60214 6.4828 7.58861 6.51794H3.57457L4.70249 5.49584L4.70251 5.49583ZM0.888086 3.62191L0.894641 3.62015L10.5344 0.655883C10.5553 0.650667 10.5768 0.64801 10.5984 0.647981C10.7045 0.647981 10.7997 0.71249 10.83 0.804834L11.035 1.42961C11.073 1.54545 10.9999 1.66773 10.8721 1.70216L10.8655 1.70393L1.22581 4.6682C1.20494 4.67342 1.1834 4.67608 1.16176 4.6761C1.05569 4.6761 0.960463 4.61159 0.930165 4.51924L0.725193 3.89447C0.687167 3.77863 0.760242 3.65635 0.888086 3.62191ZM11.0431 11.3521H1.3328C1.19945 11.3521 1.09093 11.2537 1.09093 11.1329V7.16588H11.285V11.1329C11.285 11.2537 11.1765 11.3521 11.0431 11.3521Z" fill="#121212"/>
</svg>
