<svg width="24" height="24" viewBox="0 0 24 24" fill="none" xmlns="http://www.w3.org/2000/svg">
<path fill-rule="evenodd" clip-rule="evenodd" d="M12 8.11111C14.1242 8.11111 15.8462 9.85223 15.8462 12C15.8462 14.1478 14.1242 15.8889 12 15.8889C9.87583 15.8889 8.15385 14.1478 8.15385 12C8.15385 9.85223 9.87583 8.11111 12 8.11111ZM12 9.66667C10.7255 9.66667 9.69231 10.7113 9.69231 12C9.69231 13.2887 10.7255 14.3333 12 14.3333C13.2745 14.3333 14.3077 13.2887 14.3077 12C14.3077 10.7113 13.2745 9.66667 12 9.66667Z" fill="#8E97A5"/>
<path fill-rule="evenodd" clip-rule="evenodd" d="M12 5C17.5228 5 22 12 22 12C22 12 17.5228 19 12 19C6.47715 19 2 12 2 12C2 12 6.47715 5 12 5ZM12 6.55556C9.85276 6.55556 7.72584 7.94732 5.99189 9.62413C5.1548 10.4336 4.47318 11.2492 3.9997 11.8633C3.96409 11.9095 3.93215 11.9563 3.89904 12C3.93215 12.0437 3.96409 12.0905 3.9997 12.1367C4.47318 12.7508 5.1548 13.5664 5.99189 14.3759C7.72584 16.0527 9.85276 17.4444 12 17.4444C14.1472 17.4444 16.2742 16.0527 18.0081 14.3759C18.8452 13.5664 19.5268 12.7508 20.0003 12.1367C20.0357 12.0908 20.0665 12.0434 20.0995 12C20.0665 11.9566 20.0357 11.9092 20.0003 11.8633C19.5268 11.2492 18.8452 10.4336 18.0081 9.62413C16.2742 7.94732 14.1472 6.55556 12 6.55556Z" fill="#8E97A5"/>
</svg>
