<svg width="21" height="19" viewBox="0 0 21 19" fill="none" xmlns="http://www.w3.org/2000/svg">
<path d="M7.63825 11.7208C7.54351 11.7687 7.43661 11.7964 7.32308 11.7964C7.06065 11.7964 6.83242 11.6518 6.71264 11.4383L6.66671 11.3376L4.75502 7.14289C4.73439 7.09708 4.72149 7.04568 4.72149 6.99558C4.72149 6.80217 4.8782 6.64532 5.0716 6.64532C5.15015 6.64532 5.22258 6.67129 5.28117 6.71485L7.53687 8.32082C7.7018 8.42887 7.89859 8.49204 8.11025 8.49204C8.23683 8.49204 8.35713 8.46854 8.4695 8.42755L19.0784 3.70585C17.177 1.46478 14.045 0 10.5008 0C4.70124 0 0 3.91777 0 8.75066C0 11.3876 1.41454 13.761 3.62833 15.3651C3.80605 15.4917 3.92218 15.7 3.92218 15.9352C3.92218 16.0128 3.90549 16.0842 3.88539 16.1582C3.70856 16.818 3.42541 17.8739 3.41221 17.9234C3.39017 18.0061 3.35559 18.0926 3.35559 18.1793C3.35559 18.3725 3.51244 18.5293 3.70585 18.5293C3.78204 18.5293 3.8439 18.5011 3.9081 18.4641L6.20699 17.1371C6.37989 17.0371 6.56298 16.9754 6.76459 16.9754C6.87187 16.9754 6.9756 16.9918 7.07336 17.0217C8.14574 17.3301 9.30281 17.5016 10.5008 17.5016C16.3002 17.5016 21.0018 13.5838 21.0018 8.75071C21.0018 7.287 20.5682 5.90832 19.8057 4.6958L7.71482 11.6766L7.63825 11.7208Z" fill="#00C800"/>
</svg>
