<svg width="21" height="21" viewBox="0 0 21 21" fill="none" xmlns="http://www.w3.org/2000/svg">
<path d="M4.692 11.742C4.44655 11.9416 4.18145 12.2296 4.10618 12.5978C4.00309 13.0996 4.08491 13.7296 4.56982 14.2216C5.15618 14.8195 6.04909 14.9836 6.43582 15.0115C7.48309 15.0867 8.59909 14.5685 9.44073 13.9756C9.77127 13.7438 10.3336 13.2775 10.8753 12.5553C9.66545 11.9318 8.15618 11.2407 6.54382 11.3084C5.71418 11.3438 5.12345 11.5151 4.692 11.742ZM20.0247 14.5031C20.5742 13.2147 20.8566 11.8282 20.8549 10.4275C20.8549 4.67836 16.1765 2.34375e-08 10.4275 0C4.67564 0.00218182 2.34375e-08 4.68 0 10.4296C0 16.1787 4.67836 20.8571 10.4275 20.8571C13.8982 20.8571 16.9756 19.1531 18.8716 16.5371C16.6862 15.4478 14.4971 14.366 12.3044 13.2916C11.4371 14.2805 10.1531 15.2716 8.70218 15.7053C7.79073 15.9747 6.97036 16.0805 6.11236 15.9049C5.26145 15.7315 4.63582 15.3327 4.27036 14.934C4.08491 14.7305 3.87218 14.4725 3.71727 14.1633L3.74073 14.2265C3.74073 14.2265 3.65182 14.0738 3.58364 13.8305C3.52518 13.6242 3.50068 13.4098 3.51109 13.1956C3.50088 13.0314 3.51262 12.8664 3.546 12.7053C3.63055 12.2929 3.80618 11.8124 4.26327 11.3673C5.26145 10.3898 6.6 10.3364 7.29382 10.3407C8.32036 10.3451 10.1062 10.7951 11.6084 11.3275C12.0256 10.4416 12.2902 9.492 12.4642 8.862H6.21818V8.18673H9.42655V6.83673H5.54073V6.16145H9.42436V4.80491C9.42436 4.61945 9.46145 4.46673 9.76145 4.46673H11.2805V6.15491H15.5013V6.82964H11.2827V8.17964H14.6602C14.6602 8.17964 14.3204 10.0713 13.2611 11.9345C15.6142 12.7756 18.9229 14.0716 20.0247 14.5031Z" fill="#458EFF"/>
</svg>
