<svg width="24" height="24" viewBox="0 0 24 24" fill="none" xmlns="http://www.w3.org/2000/svg">
<path d="M11.431 3.43318C11.6101 2.85561 12.3899 2.85561 12.569 3.43318L14.2835 8.96222C14.3636 9.22051 14.5933 9.39539 14.8525 9.39539H20.4006C20.9801 9.39539 21.2211 10.1725 20.7522 10.5295L16.2637 13.9466C16.054 14.1062 15.9663 14.3892 16.0464 14.6475L17.7608 20.1765C17.9399 20.7541 17.3091 21.2344 16.8402 20.8774L12.3517 17.4603C12.142 17.3007 11.858 17.3007 11.6483 17.4603L7.15981 20.8774C6.69094 21.2344 6.06007 20.7541 6.23916 20.1765L7.95363 14.6475C8.03372 14.3892 7.94598 14.1062 7.73629 13.9466L3.24776 10.5295C2.77889 10.1725 3.01986 9.39539 3.59942 9.39539H9.14755C9.40674 9.39539 9.63645 9.22051 9.71654 8.96222L11.431 3.43318Z" stroke="#4AE7FD"/>
</svg>
