<svg width="16" height="16" viewBox="0 0 16 16" fill="none" xmlns="http://www.w3.org/2000/svg">
<path d="M12.4875 13.7966C12.4875 14.3475 12.05 14.7958 11.513 14.7958H4.4875C4.22904 14.7954 3.98127 14.69 3.79851 14.5027C3.61575 14.3154 3.5129 14.0615 3.5125 13.7966V3.18975H12.4875V13.7966ZM5.4625 1.39632C5.4625 1.28102 5.55 1.19135 5.6625 1.19135H10.35C10.4625 1.19135 10.5495 1.28102 10.5495 1.39632V1.9984H5.4625V1.39632ZM15.4125 1.9984H11.7125V1.39632C11.7125 0.627702 11.1 0 10.35 0H5.6625C5.30139 0.000812168 4.95529 0.148185 4.69994 0.409869C4.4446 0.671553 4.30079 1.02624 4.3 1.39632V1.9984H0.5875C0.2625 1.9984 0 2.26741 0 2.60048C0 2.93355 0.2625 3.20256 0.5875 3.20256H2.3375V13.7966C2.3375 14.381 2.56402 14.9414 2.96722 15.3546C3.37042 15.7679 3.91728 16 4.4875 16H11.5125C12.0827 16 12.6296 15.7679 13.0328 15.3546C13.436 14.9414 13.6625 14.381 13.6625 13.7966V3.18975H15.4125C15.7375 3.18975 16 2.92074 16 2.58767C16 2.2546 15.7375 1.9984 15.4125 1.9984ZM8 12.9896C8.325 12.9896 8.5875 12.7206 8.5875 12.3875V5.98239C8.5875 5.64932 8.3255 5.3803 8 5.3803C7.675 5.3803 7.4125 5.64932 7.4125 5.98239V12.3875C7.4125 12.7206 7.675 12.9896 8 12.9896ZM5.2625 12.9896C5.5875 12.9896 5.85 12.7206 5.85 12.3875V5.98239C5.85 5.64932 5.5875 5.3803 5.2625 5.3803C4.9375 5.3803 4.675 5.64932 4.675 5.98239V12.3875C4.6875 12.7206 4.95 12.9896 5.2625 12.9896ZM10.7375 12.9896C11.0625 12.9896 11.3255 12.7206 11.3255 12.3875V5.98239C11.3255 5.64932 11.063 5.3803 10.7375 5.3803C10.413 5.3803 10.15 5.64932 10.15 5.98239V12.3875C10.15 12.7206 10.4125 12.9896 10.7375 12.9896Z" fill="white"/>
</svg>
