<svg width="24" height="24" viewBox="0 0 24 24" fill="none" xmlns="http://www.w3.org/2000/svg">
<path d="M18.75 5.96973C19.9876 5.96973 21 6.94737 21 8.14258V15.3135C21 16.5087 19.9876 17.4873 18.75 17.4873H17.5498V21L12.1504 17.5234H7.9873C6.74988 17.5234 5.73754 16.5456 5.7373 15.3506V8.14258C5.73732 6.94737 6.74975 5.96973 7.9873 5.96973H18.75ZM7.9873 7.41797C7.57479 7.41797 7.23732 7.74418 7.2373 8.14258V15.3135C7.2373 15.7119 7.57478 16.0381 7.9873 16.0381H12.5996L16.0498 18.2842V16.0381H18.75C19.1625 16.0381 19.5 15.7119 19.5 15.3135V8.14258C19.5 7.74418 19.1625 7.41797 18.75 7.41797H7.9873ZM16.125 3C16.5374 3 16.8748 3.32537 16.875 3.72363C16.875 4.12204 16.5375 4.44824 16.125 4.44824H6.1875C5.24995 4.44824 4.5 5.13652 4.5 6.04199V14.5898C4.49987 14.988 4.16227 15.3142 3.75 15.3145C3.33756 15.3145 3.00013 14.9881 3 14.5898V6.04199C3 4.37592 4.4249 3 6.1875 3H16.125ZM9.8623 10.6416C10.4623 10.6416 10.9502 11.1129 10.9502 11.6924C10.95 12.2717 10.4622 12.7422 9.8623 12.7422C9.26243 12.7421 8.77459 12.2717 8.77441 11.6924C8.77441 11.1129 9.26232 10.6417 9.8623 10.6416ZM13.4248 10.6416C14.0248 10.6416 14.5127 11.1129 14.5127 11.6924C14.5125 12.2717 14.0247 12.7422 13.4248 12.7422C12.825 12.742 12.3752 12.2716 12.375 11.6924C12.375 11.113 12.8624 10.6418 13.4248 10.6416ZM17.0254 10.6416C17.6254 10.6417 18.1133 11.1129 18.1133 11.6924C18.1131 12.2717 17.6253 12.7421 17.0254 12.7422C16.4255 12.7422 15.9377 12.2717 15.9375 11.6924C15.9375 11.1129 16.4254 10.6416 17.0254 10.6416Z" fill="white"/>
</svg>
