<svg width="16" height="16" viewBox="0 0 16 16" fill="none" xmlns="http://www.w3.org/2000/svg">
<path d="M0.530386 16C0.337427 16 0.19477 15.9431 0.105712 15.8351C-0.0064353 15.694 -0.0295244 15.4656 0.037269 15.1753L1.54548 10.0833L11.2157 0.412371C11.4853 0.14268 11.7929 0 12.1021 0C12.2575 0.00385577 12.4106 0.0388325 12.5522 0.102862C12.6938 0.166892 12.8212 0.258674 12.9267 0.372783L15.629 3.07464C16.1361 3.58186 16.1238 4.2532 15.5894 4.78433L5.91921 14.4536L0.825596 15.9637C0.728884 15.9869 0.629845 15.9991 0.530386 16ZM1.20986 14.7901L5.34363 13.5794L2.42039 10.6573L1.20986 14.7901ZM2.92175 9.91588L2.9869 9.98103L4.3673 11.3616L6.05939 13.054L12.9564 6.15753L9.81384 3.01938L2.92175 9.91588ZM12.07 0.915464C11.9051 0.915464 11.7665 1.05485 11.5546 1.28247L10.4389 2.39835L13.5765 5.53649L14.6947 4.41897C15.1763 3.94062 15.1771 3.87381 14.6947 3.39052L14.6411 3.33608L12.6398 1.33031C12.3907 1.06557 12.2398 0.915464 12.07 0.915464Z" fill="white"/>
</svg>
