<svg width="16" height="16" viewBox="0 0 16 16" fill="none" xmlns="http://www.w3.org/2000/svg">
<path d="M14 12.0667C14 12.3981 13.7314 12.6667 13.4001 12.6667H2.59993C2.2686 12.6667 2 12.3981 2 12.0667C2 11.7354 2.2686 11.4668 2.59993 11.4668H13.4001C13.7314 11.4668 14 11.7354 14 12.0667Z" fill="#8E97A5"/>
<path d="M9 9.13313C9 9.46446 8.7314 9.73306 8.40007 9.73306H2.59993C2.2686 9.73306 2 9.46446 2 9.13313C2 8.80179 2.2686 8.53319 2.59993 8.53319H8.40007C8.7314 8.53319 9 8.80179 9 9.13313Z" fill="#8E97A5"/>
<path d="M12 6.20019C12 6.53152 11.7314 6.80012 11.4001 6.80012H2.59993C2.2686 6.80012 2 6.53152 2 6.20019C2 5.86885 2.2686 5.60025 2.59993 5.60025H11.4001C11.7314 5.60025 12 5.86885 12 6.20019Z" fill="#8E97A5"/>
<path d="M14 3.26659C14 3.59793 13.7314 3.86653 13.4001 3.86653H2.59993C2.2686 3.86653 2 3.59793 2 3.26659C2 2.93526 2.2686 2.66666 2.59993 2.66666H13.4001C13.7314 2.66666 14 2.93526 14 3.26659Z" fill="#8E97A5"/>
</svg>
