<svg width="24" height="24" viewBox="0 0 24 24" fill="none" xmlns="http://www.w3.org/2000/svg">
<path d="M13.166 3.87402C13.5176 5.20461 14.1063 6.5147 14.9277 7.80273L15.1289 8.11035C15.5407 8.72651 16.0003 9.29859 16.4297 9.84473C16.8645 10.3978 17.2712 10.928 17.6104 11.4902C18.276 12.5938 18.681 13.8195 18.4199 15.5127C17.9076 18.837 14.7207 20.4999 11.7949 20.5C8.94635 20.5 5.5 18.0565 5.5 14.2988C5.50003 11.9882 6.14912 10.3554 7.37988 9.30078L7.38184 9.30469C7.6345 9.93588 8.04533 10.4946 8.5752 10.9316L8.58398 10.9385L8.71387 11.041L9.67188 11.7949L9.51953 10.585L9.49316 10.3799C9.37758 9.26745 9.61702 8.17257 10.2314 7.08301C10.8035 6.06854 11.7714 4.99653 13.166 3.87402Z" stroke="#8E97A5"/>
</svg>
