<svg width="120" height="60" viewBox="0 0 120 60" fill="none" xmlns="http://www.w3.org/2000/svg">
<g id="logo">
<g id="logo_2">
<g id="Group 3" filter="url(#filter0_d_1647_1469)">
<path id="Vector" d="M35.0532 24.541C35.2595 24.7896 35.507 25.1315 35.7015 25.3853C35.9451 25.7272 36.2751 26.2643 36.6916 26.9964C36.6916 26.9964 37.0629 26.784 37.8703 26.4266C39.6914 25.6236 42.9741 24.282 45.1959 23.422C46.4336 22.9455 47.0877 22.7175 47.1054 22.7486C46.6045 21.8058 46.5868 21.7695 45.4317 20.029C45.1134 19.5887 44.6596 19.0188 44.3237 18.5889C44.4592 18.7495 44.0172 19.283 42.9859 20.1119C41.1707 21.5779 38.218 23.4169 36.3969 24.2146C35.6072 24.5617 35.1593 24.6549 35.0532 24.5306V24.541Z" fill="url(#paint0_linear_1647_1469)"/>
<path id="Vector_2" d="M36.7742 37.3931C36.5384 37.4967 36.3381 37.6262 36.1671 37.7764C36.0434 37.88 35.8725 38.0147 35.7428 38.1131C35.454 38.3048 35.4069 38.3359 35.1122 38.4758C35.0592 38.5017 35.012 38.5276 34.959 38.5483L34.7586 38.6312L34.6761 38.6622C36.4854 37.9992 38.9135 39.3978 40.1747 41.8688C41.4772 44.4071 41.0528 47.1164 39.2259 47.9142C39.1787 47.9349 39.1257 47.9556 39.0726 47.9763L39.3614 47.8675L40.0922 47.5671C41.4124 46.9506 41.6717 46.7849 42.9093 45.9871C43.3513 45.6608 43.9171 45.2049 44.3414 44.8578C45.5024 43.8269 45.2313 41.7548 43.5576 39.8641C41.6363 37.6935 38.607 36.585 36.7801 37.3879L36.7742 37.3931Z" fill="url(#paint1_linear_1647_1469)"/>
<path id="Vector_3" d="M36.674 15.1542C36.0198 17.5371 34.0101 20.1117 32.189 20.9147C31.5525 21.1944 31.0221 21.2203 30.6273 21.0338C31.0221 21.2358 31.5349 21.5259 31.912 21.7487C32.2224 21.949 32.6644 22.2736 33.2381 22.7226C33.4797 22.9246 33.9865 22.8832 34.7291 22.5568C36.5502 21.7539 39.1257 19.5471 40.4871 17.6148C41.2886 16.4752 41.4831 15.693 41.1354 15.4029C40.3338 14.7346 40.2985 14.7139 38.6719 13.595C37.9234 13.1443 36.8979 12.5745 36.12 12.1704C36.8508 12.5175 37.0983 13.6002 36.674 15.1491V15.1542Z" fill="url(#paint2_linear_1647_1469)"/>
<path id="Vector_4" d="M29.425 13.6106C30.1027 16.2733 29.1774 19.081 27.3564 19.8839C27.0735 20.0082 26.7847 20.0756 26.4959 20.0963L26.8083 20.0859C27.268 20.0859 27.3446 20.1015 27.9516 20.174C28.1873 20.2154 28.4938 20.2828 28.7236 20.3294C29.313 20.4486 29.6666 20.3398 30.1322 20.1636C31.9533 19.3607 33.5033 16.6152 33.5858 14.0302C33.6152 12.7403 33.3383 11.0982 31.8531 10.6268C31.2814 10.4921 30.5094 10.3471 29.9318 10.2383C28.6058 10.0518 28.3936 10.0466 26.7316 10L25.7592 10.0311C27.321 9.93784 28.8533 11.3676 29.4309 13.6158L29.425 13.6106Z" fill="url(#paint3_linear_1647_1469)"/>
<path id="Vector_5" d="M22.9421 16.0814C24.5982 18.0344 24.8221 20.1687 23.5904 21.1892C23.6788 21.1166 23.8085 21.0234 23.9028 20.9509C24.2328 20.7281 24.3035 20.697 24.6866 20.5105C24.7043 20.5054 24.7219 20.495 24.7396 20.4898L24.887 20.4277L25.1168 20.3448C25.1934 20.3189 25.27 20.2878 25.3467 20.2567C27.1677 19.4538 27.6451 16.7342 26.4075 14.1699C25.2229 11.7145 22.895 10.3003 21.0974 10.896L20.2841 11.1861L19.5534 11.4866C18.2332 12.103 17.9739 12.2688 16.7363 13.0665C16.4121 13.2945 16.0055 13.6208 15.6931 13.8643C15.8522 13.7296 16.0408 13.6156 16.253 13.5224C18.0741 12.7195 21.0739 13.8643 22.948 16.0763L22.9421 16.0814Z" fill="url(#paint4_linear_1647_1469)"/>
<path id="Vector_6" d="M11.5912 21.0443C13.4123 20.2414 16.9307 20.547 19.4473 21.7178C21.1446 22.5103 21.952 23.4894 21.7398 24.2923C21.8223 24.0126 21.9461 23.6396 22.0463 23.3599C22.229 22.9351 22.2585 22.8781 22.5649 22.3549L22.6415 22.241C23.0423 21.5986 23.3606 20.2155 21.0149 18.2004C18.4277 16.1335 14.2728 15.1855 12.7876 17.0607L12.5755 17.3871C11.9743 18.3558 11.9036 18.5008 11.2494 19.9306C11.0137 20.5574 10.7426 21.4018 10.5481 22.0338C10.6483 21.6452 10.9901 21.2982 11.5854 21.0392L11.5912 21.0443Z" fill="url(#paint5_linear_1647_1469)"/>
<path id="Vector_7" d="M46.8639 34.1347C44.3355 33.0209 40.8053 32.7671 38.9843 33.57C38.3772 33.8394 38.0354 34.1865 37.947 34.5802C37.8468 34.9998 37.8409 35.0257 37.5875 35.7095C37.4225 36.1084 37.393 36.1498 37.0865 36.6834C37.281 36.3829 37.5816 36.1291 38.0059 35.9426C39.827 35.1397 43.1392 35.9271 45.3964 37.6935C47.135 39.0559 47.7479 40.5996 47.1114 41.6046C47.6713 40.7032 47.7243 40.5841 48.3844 39.144C48.738 38.2737 48.7557 38.2115 49.1918 36.6005C49.3745 35.8234 48.5553 34.8858 46.8697 34.1399L46.8639 34.1347Z" fill="url(#paint6_linear_1647_1469)"/>
<path id="Vector_8" d="M49.5512 30.7514C49.4569 29.7569 49.4451 29.7207 49.0562 27.8508L48.8204 26.9703C48.7497 26.7217 47.9718 26.6336 46.5573 26.7735C44.0821 27.0169 40.599 27.8612 38.7779 28.6588C37.9941 29.0007 37.6464 29.2804 37.6994 29.472L37.835 29.9796C37.9705 30.5442 37.9764 30.5649 38.112 31.606C38.1355 31.8857 38.1473 32.2586 38.1591 32.5383C38.1591 32.1913 38.5009 31.8339 39.2022 31.5283C41.0233 30.7255 44.6007 30.5235 47.1938 31.0725C48.7851 31.4092 49.6337 31.9479 49.6337 32.5021C49.6278 31.9789 49.5748 31.2797 49.5453 30.7566L49.5512 30.7514Z" fill="url(#paint7_linear_1647_1469)"/>
<path id="Vector_9" d="M19.5769 29.0367C21.6397 28.902 21.8047 29.2128 21.8636 29.3319L21.7988 29.0885C21.6632 28.5239 21.6573 28.5032 21.5218 27.4621C21.4982 27.1099 21.4805 26.6334 21.4746 26.276C21.4864 25.6959 20.6378 25.1106 19.0347 24.7325C16.4416 24.1161 12.8642 24.2663 11.0431 25.0692C10.3477 25.3747 10.0059 25.7321 10 26.0895C10 26.7577 10.0413 27.6486 10.0825 28.3167C10.1768 29.3112 10.1886 29.3475 10.5776 31.2173L10.6836 31.6368C10.5835 30.8858 15.2511 29.3837 19.571 29.0315L19.5769 29.0367Z" fill="url(#paint8_linear_1647_1469)"/>
<path id="Vector_10" d="M24.7809 34.7617C24.5157 34.4457 24.1856 34.0106 23.9381 33.6842C23.6945 33.3423 23.3645 32.8053 22.948 32.0732L22.7948 31.7779C22.7358 31.695 21.3096 32.1871 20.8381 32.3477C18.575 33.1351 15.2688 34.4146 13.4418 35.2176C12.6344 35.5698 12.2572 35.7719 12.2808 35.8185L12.5342 36.321C12.8681 36.9495 13.4261 37.856 14.2079 39.0406C14.6205 39.6052 15.2098 40.3357 15.6518 40.8796C15.7697 41.0143 16.2294 40.9314 17.0132 40.5843C18.8343 39.7814 21.7457 37.9009 23.5138 36.3728C24.5157 35.5077 24.9341 34.943 24.7809 34.7669V34.7617Z" fill="url(#paint9_linear_1647_1469)"/>
<path id="Vector_11" d="M29.2364 38.1443L29.0949 38.0821C28.594 37.8438 28.5645 37.8231 27.7276 37.3258C27.3858 37.0978 26.9497 36.7767 26.6256 36.5332C27.0027 36.8337 26.8377 37.6418 26.0657 38.8177C24.7632 40.7965 22.2349 43.0448 20.4138 43.8425C19.6712 44.1689 19.1644 44.2051 18.9051 43.9979C19.5062 44.459 20.3372 45.0443 20.9619 45.4743C21.9167 46.0804 21.9815 46.1167 23.6906 46.9818L23.9853 47.1164C24.386 47.2978 24.9165 47.2719 25.5412 46.9973C27.3623 46.1944 29.3189 43.5939 29.9082 41.1799C30.2972 39.5947 29.9966 38.4913 29.2305 38.1443H29.2364Z" fill="url(#paint10_linear_1647_1469)"/>
<path id="Vector_12" d="M33.3088 38.9627C33.1673 38.9731 32.9728 38.9783 32.8255 38.9835C32.3658 38.9835 32.2892 38.9679 31.6822 38.8954C31.5112 38.8695 31.2873 38.8229 31.1223 38.7866C32.2479 39.0353 33.02 40.3252 33.0082 42.2263C32.9905 44.832 31.4995 47.5879 29.6725 48.3908C29.1774 48.6084 28.7118 48.6602 28.2934 48.5669C28.7118 48.6602 29.2776 48.7534 29.7019 48.8363C31.028 49.0228 31.2401 49.028 32.9021 49.0746C33.3559 49.0694 33.9629 49.028 34.4167 49.0072C36.4323 48.8156 38.053 46.1115 37.1572 42.5371C36.6563 40.7707 35.3774 38.9006 33.3029 38.9679L33.3088 38.9627Z" fill="url(#paint11_linear_1647_1469)"/>
</g>
<ellipse id="Ellipse 2" cx="1.97496" cy="2.45104" rx="1.97496" ry="2.45104" transform="matrix(0.869078 -0.494675 0.505343 0.862918 26.8469 27.5859)" fill="#1651A0"/>
<path id="Vector 4" d="M29.8198 28.5629C29.8198 28.5629 29.8198 28.5629 29.8198 28.5629C30.5503 27.9166 31.3311 27.2354 32.0859 26.5958C45.0658 14.9641 65.3862 5.93905 80.1016 17.2288C80.9004 17.7901 81.6377 18.3569 82.4044 18.9927C83.0237 18.2075 83.643 17.4224 84.2622 16.6372C83.4022 15.9915 82.5736 15.42 81.6782 14.8547C64.7545 3.40804 44.2669 14.3585 31.9861 26.4839C31.2636 27.1616 30.5162 27.8801 29.8198 28.5629Z" fill="url(#paint12_linear_1647_1469)"/>
<path id="~" d="M89.2793 15.0911C89.2793 16.6505 88.9642 17.8199 88.3342 18.5996C87.7293 19.3793 86.822 19.7691 85.6123 19.7691C84.9823 19.7691 84.4026 19.6774 83.8734 19.4939C83.3441 19.2875 82.8401 19.0582 82.3612 18.806C81.9076 18.5308 81.4792 18.29 81.0759 18.0837C80.6727 17.8773 80.282 17.7741 79.904 17.7741C78.9211 17.7741 78.4297 18.3703 78.4297 19.5627H75.4054C75.4054 18.0034 75.7078 16.8339 76.3127 16.0543C76.9427 15.2746 77.8626 14.8848 79.0723 14.8848C79.6772 14.8848 80.2442 14.988 80.7735 15.1943C81.3027 15.3778 81.7942 15.6071 82.2478 15.8823C82.7267 16.1345 83.1677 16.3638 83.5709 16.5702C83.9994 16.7766 84.4152 16.8798 84.8185 16.8798C85.8013 16.8798 86.2928 16.2836 86.2928 15.0911H89.2793Z" fill="#4AE7FD" stroke="#4AE7FD"/>
</g>
<path id="AI" d="M66.6005 24.0259H70.4531L77.9091 44.856H74.6132L72.3427 38.5864H66.5273L67.6406 35.5103H71.2294L68.5341 28.0688L62.4404 44.856H59.1445L66.6005 24.0259ZM80.5605 24.0259H83.6513V44.856H80.5605V24.0259Z" fill="white"/>
<path id="D" d="M101.24 24.0259H112.314C113.398 24.0259 114.385 24.2896 115.273 24.8169C116.172 25.3442 116.885 26.0522 117.412 26.9409C117.939 27.8198 118.203 28.8013 118.203 29.8853V39.0552C118.203 40.1196 117.939 41.0913 117.412 41.9702C116.885 42.8491 116.172 43.5522 115.273 44.0796C114.385 44.5972 113.398 44.856 112.314 44.856H101.24V24.0259ZM112.314 41.7651C113.095 41.7651 113.76 41.4966 114.306 40.9595C114.853 40.4224 115.127 39.7729 115.127 39.0112V29.8853C115.127 29.1138 114.853 28.4595 114.306 27.9224C113.76 27.3755 113.095 27.1021 112.314 27.1021H104.331V41.7651H112.314Z" fill="white"/>
<ellipse id="Ellipse 6" cx="92.2522" cy="34.4215" rx="1.98198" ry="1.95373" fill="#FD9B4A"/>
</g>
<defs>
<filter id="filter0_d_1647_1469" x="0" y="0" width="59.6337" height="59.0747" filterUnits="userSpaceOnUse" color-interpolation-filters="sRGB">
<feFlood flood-opacity="0" result="BackgroundImageFix"/>
<feColorMatrix in="SourceAlpha" type="matrix" values="0 0 0 0 0 0 0 0 0 0 0 0 0 0 0 0 0 0 127 0" result="hardAlpha"/>
<feOffset/>
<feGaussianBlur stdDeviation="5"/>
<feComposite in2="hardAlpha" operator="out"/>
<feColorMatrix type="matrix" values="0 0 0 0 0.290196 0 0 0 0 0.489085 0 0 0 0 0.992157 0 0 0 1 0"/>
<feBlend mode="normal" in2="BackgroundImageFix" result="effect1_dropShadow_1647_1469"/>
<feBlend mode="normal" in="SourceGraphic" in2="effect1_dropShadow_1647_1469" result="shape"/>
</filter>
<linearGradient id="paint0_linear_1647_1469" x1="35.0532" y1="22.7911" x2="47.1053" y2="22.7911" gradientUnits="userSpaceOnUse">
<stop stop-color="#0E59FA"/>
<stop offset="1" stop-color="#78EBFF"/>
</linearGradient>
<linearGradient id="paint1_linear_1647_1469" x1="34.6761" y1="42.5495" x2="45.0492" y2="42.5495" gradientUnits="userSpaceOnUse">
<stop stop-color="#0E59FA"/>
<stop offset="1" stop-color="#78EBFF"/>
</linearGradient>
<linearGradient id="paint2_linear_1647_1469" x1="30.6273" y1="17.5061" x2="41.3004" y2="17.5061" gradientUnits="userSpaceOnUse">
<stop stop-color="#0E59FA"/>
<stop offset="1" stop-color="#78EBFF"/>
</linearGradient>
<linearGradient id="paint3_linear_1647_1469" x1="25.7592" y1="15.1879" x2="33.5877" y2="15.1879" gradientUnits="userSpaceOnUse">
<stop stop-color="#0E59FA"/>
<stop offset="1" stop-color="#78EBFF"/>
</linearGradient>
<linearGradient id="paint4_linear_1647_1469" x1="15.6931" y1="15.9729" x2="27.0957" y2="15.9729" gradientUnits="userSpaceOnUse">
<stop stop-color="#0E59FA"/>
<stop offset="1" stop-color="#78EBFF"/>
</linearGradient>
<linearGradient id="paint5_linear_1647_1469" x1="10.5481" y1="20.1708" x2="22.9217" y2="20.1708" gradientUnits="userSpaceOnUse">
<stop stop-color="#0E59FA"/>
<stop offset="1" stop-color="#78EBFF"/>
</linearGradient>
<linearGradient id="paint6_linear_1647_1469" x1="37.0865" y1="37.3513" x2="49.2167" y2="37.3513" gradientUnits="userSpaceOnUse">
<stop stop-color="#0E59FA"/>
<stop offset="1" stop-color="#78EBFF"/>
</linearGradient>
<linearGradient id="paint7_linear_1647_1469" x1="37.6942" y1="29.6217" x2="49.6336" y2="29.6217" gradientUnits="userSpaceOnUse">
<stop stop-color="#0E59FA"/>
<stop offset="1" stop-color="#78EBFF"/>
</linearGradient>
<linearGradient id="paint8_linear_1647_1469" x1="10" y1="27.9936" x2="21.8634" y2="27.9936" gradientUnits="userSpaceOnUse">
<stop stop-color="#0E59FA"/>
<stop offset="1" stop-color="#78EBFF"/>
</linearGradient>
<linearGradient id="paint9_linear_1647_1469" x1="12.2797" y1="36.3531" x2="24.8115" y2="36.3531" gradientUnits="userSpaceOnUse">
<stop stop-color="#0E59FA"/>
<stop offset="1" stop-color="#78EBFF"/>
</linearGradient>
<linearGradient id="paint10_linear_1647_1469" x1="18.9051" y1="41.8808" x2="30.0781" y2="41.8808" gradientUnits="userSpaceOnUse">
<stop stop-color="#0E59FA"/>
<stop offset="1" stop-color="#78EBFF"/>
</linearGradient>
<linearGradient id="paint11_linear_1647_1469" x1="28.2934" y1="43.9288" x2="37.4098" y2="43.9288" gradientUnits="userSpaceOnUse">
<stop stop-color="#0E59FA"/>
<stop offset="1" stop-color="#78EBFF"/>
</linearGradient>
<linearGradient id="paint12_linear_1647_1469" x1="82.8378" y1="20.2228" x2="30.3153" y2="20.2228" gradientUnits="userSpaceOnUse">
<stop stop-color="#4AE7FD"/>
<stop offset="1" stop-color="#0E59FA" stop-opacity="0.5"/>
</linearGradient>
</defs>
</svg>
