<svg width="294" height="166" viewBox="0 0 294 166" fill="none" xmlns="http://www.w3.org/2000/svg">
<g id="pic">
<path id="Rectangle 14" opacity="0.15" d="M8 0.5H286C290.142 0.500001 293.5 3.85787 293.5 8V165.5H0.5V8C0.500003 3.85787 3.85787 0.5 8 0.5Z" fill="#8E97A5" stroke="#006C8F"/>
<g id="Group 245" opacity="0.2">
<g id="logo">
<path id="AID" d="M146.1 95V74H149.58C150.68 74 151.79 74.09 152.91 74.27C154.05 74.45 155.14 74.76 156.18 75.2C157.24 75.62 158.18 76.22 159 77C159.84 77.76 160.5 78.72 160.98 79.88C161.46 81.02 161.7 82.41 161.7 84.05V95H158.22V88.01H149.58V95H146.1ZM149.58 84.71H158.22V84.08C158.22 82.58 157.95 81.37 157.41 80.45C156.89 79.53 156.2 78.83 155.34 78.35C154.48 77.85 153.54 77.51 152.52 77.33C151.52 77.15 150.54 77.06 149.58 77.06V84.71ZM165.289 95V74H168.769V95H165.289ZM172.965 95V74H176.445C177.525 74 178.635 74.09 179.775 74.27C180.915 74.43 182.015 74.73 183.075 75.17C184.135 75.59 185.085 76.18 185.925 76.94C186.765 77.7 187.435 78.66 187.935 79.82C188.455 80.98 188.725 82.39 188.745 84.05V84.95C188.745 86.59 188.495 88 187.995 89.18C187.495 90.34 186.815 91.3 185.955 92.06C185.115 92.82 184.165 93.42 183.105 93.86C182.045 94.28 180.935 94.58 179.775 94.76C178.635 94.92 177.525 95 176.445 95H172.965ZM176.445 91.79C177.425 91.79 178.425 91.72 179.445 91.58C180.465 91.42 181.415 91.11 182.295 90.65C183.175 90.19 183.885 89.5 184.425 88.58C184.965 87.66 185.235 86.44 185.235 84.92V84.08C185.235 82.56 184.965 81.35 184.425 80.45C183.885 79.53 183.175 78.84 182.295 78.38C181.415 77.92 180.465 77.62 179.445 77.48C178.425 77.32 177.425 77.24 176.445 77.24V91.79Z" fill="white"/>
</g>
<g id="Group 244">
<path id="Vector" d="M134.971 91.696C135.448 91.8936 135.925 92.094 136.439 92.3084C136.02 92.7995 135.557 93.1692 135.041 93.4655C134.538 93.7506 134.013 93.9961 133.472 94.2727C133.747 94.5775 134.128 94.6424 134.468 94.8766C134.37 94.9726 134.291 95.0742 134.193 95.1447C133.702 95.5032 133.225 95.8842 132.711 96.2059C130.3 97.7045 127.684 98.6951 124.93 99.3329C122.572 99.8776 120.183 100.086 117.769 99.9679C115.563 99.8606 113.399 99.4768 111.282 98.8333C109.132 98.1786 107.074 97.3178 105.166 96.1212C104.702 95.8305 104.27 95.4919 103.827 95.1701C103.726 95.0968 103.636 95.0008 103.512 94.8879C103.869 94.696 104.186 94.5239 104.503 94.3517C104.458 94.1485 104.309 94.14 104.197 94.0921C103.459 93.776 102.76 93.4006 102.14 92.8842C101.949 92.7261 101.778 92.5455 101.545 92.3254C102.086 92.0968 102.569 91.8936 103.131 91.6537C102.956 91.5239 102.853 91.4364 102.74 91.363C102.179 90.999 101.648 90.5926 101.216 90.0733C101.143 89.9858 101.081 89.887 101 89.7685C101.255 89.6443 101.477 89.5399 101.699 89.4326C102.227 89.1758 102.709 88.8513 103.131 88.4364C103.509 88.0611 103.714 87.6208 103.776 87.0789C103.959 85.4703 104.262 83.887 104.902 82.3885C105.042 82.0611 105.048 81.745 104.91 81.4176C104.267 79.8598 103.88 78.237 103.661 76.5691C103.473 75.1411 103.439 73.7074 103.557 72.2709C103.686 70.73 103.95 69.2117 104.43 67.7356C104.556 67.3518 104.711 66.9708 104.891 66.6096C105.166 66.0734 105.514 65.9238 106.103 66.0339C106.608 66.127 107.102 66.2794 107.546 66.5362C108.349 67.0047 109.16 67.4619 109.924 67.9868C111.723 69.2229 113.323 70.682 114.659 72.4233C114.791 72.5926 114.914 72.7704 115.032 72.9482C115.355 73.4336 115.521 73.4844 116.076 73.3574C116.621 73.2304 117.168 73.1119 117.721 73.0385C119.094 72.8495 120.45 72.9511 121.789 73.3095C122.572 73.5183 122.622 73.4844 123.088 72.8297C123.858 71.7432 124.77 70.7808 125.749 69.8862C127.156 68.6021 128.677 67.4788 130.375 66.6068C130.864 66.3556 131.369 66.1496 131.911 66.0423C132.52 65.921 132.848 66.0677 133.149 66.6209C133.494 67.2559 133.702 67.9445 133.879 68.6387C134.443 70.8231 134.642 73.047 134.471 75.2935C134.314 77.3678 133.867 79.3856 133.095 81.3188C132.938 81.7111 132.935 82.0667 133.095 82.459C133.589 83.6471 133.89 84.8861 134.05 86.1645C134.092 86.5088 134.148 86.8503 134.182 87.1975C134.224 87.6349 134.409 87.9961 134.704 88.3122C135.218 88.8654 135.846 89.2464 136.523 89.554C136.672 89.6217 136.823 89.6838 137 89.76C136.464 90.5784 135.689 91.0695 134.945 91.5944C134.951 91.6283 134.956 91.665 134.962 91.6989L134.971 91.696ZM123.815 87.5135C123.796 87.5079 123.779 87.5023 123.759 87.4966C123.776 87.3978 123.776 87.2878 123.818 87.2003C123.987 86.8334 124.121 86.4383 124.354 86.1137C125.34 84.7309 127.358 84.2172 128.868 85.5295C130.199 86.6838 130.443 88.8146 129.421 90.2595C129.342 90.3724 129.264 90.4825 129.146 90.649C129.421 90.6264 129.564 90.4994 129.699 90.3752C130.474 89.681 130.771 88.7807 130.738 87.7675C130.707 86.8673 130.384 86.0658 129.814 85.3659C128.77 84.0874 126.945 83.4919 125.253 84.4402C124.169 85.047 123.532 85.9896 123.265 87.1975C123.044 88.205 123.201 89.1504 123.765 90.0112C124.467 91.0808 125.699 91.5606 126.867 91.2445C128.683 90.7506 129.396 88.7158 128.632 87.1946C128.248 86.427 127.641 85.9134 126.782 85.761C125.657 85.5606 124.571 86.0996 124.026 87.1128C123.953 87.2454 123.886 87.3809 123.818 87.5164L123.815 87.5135ZM114.266 87.7139L114.238 87.7196C114.117 87.474 114.016 87.2172 113.876 86.983C113.003 85.5126 111.024 85.2784 109.831 86.5004C108.896 87.4571 108.759 89.046 109.542 90.1325C110.168 91.0046 111.046 91.4251 112.107 91.3263C113.233 91.2219 114.011 90.5672 114.479 89.5483C115.24 87.903 114.586 85.7779 113.225 84.7337C112.498 84.1777 111.675 83.8927 110.754 83.9858C109.629 84.1015 108.714 84.6236 108.043 85.5324C107.293 86.5455 107.001 87.6744 107.352 88.919C107.538 89.5822 107.902 90.1354 108.478 90.5305C108.554 90.5841 108.649 90.6067 108.736 90.6434C108.731 90.5248 108.697 90.4627 108.655 90.4091C107.633 89.1758 107.647 87.2229 108.728 85.9331C109.432 85.0949 110.336 84.6631 111.439 84.7901C112.801 84.9482 113.89 85.9698 114.204 87.3357C114.232 87.4571 114.249 87.5813 114.269 87.7055L114.266 87.7139ZM104.658 73.6058C104.674 75.0141 104.781 76.3857 105.14 77.7206C105.314 78.364 105.556 78.9905 105.775 79.6199C105.834 79.7892 105.915 79.967 106.126 79.9896C106.345 80.0122 106.423 79.8315 106.521 79.6792C106.645 79.4872 106.766 79.2982 106.895 79.1091C108.076 77.3847 109.528 75.968 111.453 75.0931C111.495 75.0733 111.54 75.0536 111.58 75.0282C111.768 74.9097 111.824 74.7827 111.751 74.5738C111.689 74.3932 111.608 74.2182 111.521 74.0489C110.777 72.5955 109.881 71.2465 108.775 70.0414C108.242 69.46 107.675 68.9125 107.001 68.4948C106.83 68.3876 106.648 68.3001 106.462 68.2211C106.201 68.1054 105.966 68.1872 105.78 68.3819C105.668 68.5005 105.561 68.6416 105.5 68.7911C105.359 69.1185 105.227 69.4544 105.129 69.7987C104.767 71.0489 104.677 72.3386 104.658 73.603V73.6058ZM133.373 73.524C133.337 72.9031 133.32 72.2794 133.261 71.6613C133.185 70.8626 133.039 70.0724 132.764 69.3161C132.652 69.0056 132.486 68.7065 132.304 68.4327C132.135 68.1787 131.869 68.1054 131.577 68.2324C131.436 68.2916 131.285 68.3509 131.164 68.4412C130.754 68.7488 130.328 69.0395 129.957 69.3895C128.568 70.6933 127.481 72.2286 126.586 73.905C126.479 74.1053 126.381 74.3113 126.294 74.5202C126.185 74.7855 126.232 74.9068 126.485 75.0479C126.527 75.0705 126.569 75.0931 126.614 75.1128C128.096 75.7902 129.314 76.809 130.325 78.0761C130.749 78.6067 131.114 79.1824 131.504 79.7412C131.596 79.8739 131.686 80.0065 131.866 79.9924C132.046 79.9783 132.119 79.8344 132.183 79.6848C132.267 79.4872 132.354 79.2897 132.43 79.0893C133.084 77.2944 133.371 75.4346 133.376 73.524H133.373ZM123.178 93.9453C122.987 93.8776 122.892 94.0018 122.788 94.0949C122.418 94.4307 121.994 94.6593 121.508 94.7722C120.711 94.9528 119.973 94.8456 119.338 94.284C119.038 94.0187 118.99 94.0187 118.684 94.2896C118.182 94.7327 117.595 94.902 116.935 94.8371C116.284 94.775 115.726 94.5154 115.24 94.0808C115.136 93.9876 115.018 93.8324 114.878 93.9538C114.724 94.0836 114.858 94.2416 114.937 94.3686C114.999 94.4702 115.072 94.5718 115.161 94.6452C115.378 94.8287 115.596 95.0177 115.838 95.1673C115.992 95.2633 116.085 95.3705 116.135 95.5399C116.276 96.0309 116.537 96.4571 116.871 96.8381C117.82 97.9359 119.417 98.1588 120.624 97.3573C121.253 96.9397 121.671 96.3555 121.904 95.6414C121.982 95.4044 122.081 95.2238 122.319 95.1052C122.639 94.9415 122.903 94.6932 123.105 94.3912C123.192 94.2614 123.276 94.1288 123.187 93.9453H123.178ZM119.021 90.7901C118.903 90.7901 118.782 90.7816 118.665 90.7901C118.224 90.8296 117.794 90.9228 117.404 91.1485C116.854 91.4703 116.761 91.9641 117.154 92.4721C117.177 92.5004 117.199 92.5286 117.225 92.554C118.185 93.4938 119.465 93.7816 120.655 92.6753C121.34 92.0403 121.208 91.3658 120.346 91.0074C119.922 90.8296 119.476 90.7732 119.018 90.7873L119.021 90.7901ZM126.134 80.2916C125.303 80.2944 124.556 80.6613 124.065 81.2991C123.874 81.5474 123.726 81.8212 123.703 82.1429C123.686 82.3828 123.74 82.6001 123.953 82.7384C124.169 82.8795 124.391 82.8315 124.593 82.7102C124.767 82.6058 124.927 82.4816 125.093 82.3631C125.472 82.0865 125.884 81.8776 126.331 81.7393C126.502 81.6857 126.673 81.6434 126.844 81.5954C127.091 81.5277 127.288 81.3922 127.319 81.1213C127.352 80.8532 127.198 80.6669 126.99 80.5258C126.724 80.348 126.426 80.2803 126.134 80.2916ZM112.026 80.3C111.956 80.3 111.883 80.2944 111.813 80.3C111.47 80.3254 111.156 80.4186 110.923 80.6895C110.653 81.0028 110.735 81.3725 111.111 81.539C111.198 81.5785 111.291 81.6067 111.38 81.6265C112.076 81.7873 112.688 82.1175 113.255 82.5465C113.368 82.6312 113.488 82.7158 113.62 82.7666C113.991 82.9162 114.342 82.7215 114.373 82.3207C114.389 82.1175 114.345 81.8833 114.255 81.6998C113.806 80.7713 113.022 80.3537 112.026 80.2972V80.3Z" fill="white"/>
<circle id="Ellipse 14" cx="113" cy="89" r="1" fill="#FD9B4A"/>
<circle id="Ellipse 15" cx="125" cy="89" r="1" fill="#FD9B4A"/>
</g>
</g>
</g>
</svg>
