<svg width="15" height="14" viewBox="0 0 15 14" fill="none" xmlns="http://www.w3.org/2000/svg">
<path d="M6.09221 0.877436C6.47068 -0.265684 8.07557 -0.300982 8.47587 0.82501L9.92534 4.049C10.0654 4.44308 10.3296 4.73905 10.7364 4.8383L13.6494 5.52081C14.874 5.81964 14.925 7.53942 13.7211 7.94028L10.7364 8.93411C10.3535 9.0616 10.0522 9.36342 9.92534 9.74653L8.50561 13.0348C8.12715 14.1779 6.52226 14.2132 6.12196 13.0872L4.68595 9.82247C4.55393 9.45113 4.18787 9.16552 3.81051 9.0512L0.881148 7.94028C-0.323818 7.57526 -0.282176 5.85708 0.93977 5.52081L3.81051 4.95695C4.22233 4.84362 4.55163 4.53067 4.68595 4.12497L6.09221 0.877436Z" fill="url(#paint0_radial_1642_489)"/>
<defs>
<radialGradient id="paint0_radial_1642_489" cx="0" cy="0" r="1" gradientUnits="userSpaceOnUse" gradientTransform="translate(7.29891 6.95611) rotate(135) scale(6)">
<stop stop-color="#A9F4FF"/>
<stop offset="1" stop-color="#4AE7FD"/>
</radialGradient>
</defs>
</svg>
