<svg width="112" height="34" viewBox="0 0 112 34" fill="none" xmlns="http://www.w3.org/2000/svg">
<path opacity="0.2" d="M16.128 33.6L8.064 7.48797H7.776V33.6H-4.76837e-06V-2.67029e-05H12.624L20.64 26.544H21.264V-2.67029e-05H29.04V33.6H16.128ZM38.6212 33.6V-2.67029e-05H62.2372V6.52798H46.5412V13.728H60.1732V19.824H46.5412V27.072H62.2372V33.6H38.6212ZM93.7747 33.6L90.0307 11.856H89.8387L86.0467 33.6H76.3987L68.2387 -2.67029e-05H76.4947L81.2947 25.344H81.4867L86.2867 -2.67029e-05H93.5347L98.3347 25.344H98.5267L103.327 -2.67029e-05H111.583L103.423 33.6H93.7747Z" fill="url(#paint0_linear_453_278)"/>
<defs>
<linearGradient id="paint0_linear_453_278" x1="113.12" y1="16.6" x2="-2.88" y2="16.6" gradientUnits="userSpaceOnUse">
<stop stop-color="#4AE7FD"/>
<stop offset="1" stop-color="white"/>
</linearGradient>
</defs>
</svg>
