<svg width="17" height="18" viewBox="0 0 17 18" fill="none" xmlns="http://www.w3.org/2000/svg">
<path d="M15.1523 0C16.1727 8.97621e-05 16.9998 0.809307 17 1.80762V6.60352C17 6.93636 16.724 7.20605 16.3838 7.20605C16.0437 7.20591 15.7686 6.93627 15.7686 6.60352V1.80762C15.7683 1.47501 15.4923 1.20517 15.1523 1.20508H1.84766C1.50769 1.20517 1.23168 1.47501 1.23145 1.80762V16.1924C1.23168 16.525 1.50769 16.7948 1.84766 16.7949H8.19238C8.5324 16.7951 8.80762 17.0647 8.80762 17.3975C8.80754 17.7301 8.53236 17.9998 8.19238 18H1.84766C0.827343 17.9999 0.00023123 17.1907 0 16.1924V1.80762C0.000231098 0.809307 0.827343 8.97937e-05 1.84766 0H15.1523Z" fill="#4AE7FD"/>
<path fill-rule="evenodd" clip-rule="evenodd" d="M13.2402 9.0293C13.7505 8.16455 14.8808 7.86799 15.7646 8.36719L16.0312 8.51855C16.9149 9.01787 17.2183 10.1235 16.708 10.9883L13.417 16.5645C13.1925 16.9448 12.8344 17.2323 12.4092 17.373L10.8584 17.8857C10.5064 18.0021 10.1303 17.7892 10.0576 17.4326L9.73828 15.8633C9.65068 15.4329 9.72597 14.9865 9.9502 14.6064L13.2402 9.0293ZM11.0166 15.209C10.9419 15.3357 10.9171 15.4845 10.9463 15.6279L11.1289 16.5244L12.0146 16.2314C12.1563 16.1845 12.2758 16.0886 12.3506 15.9619L14.707 11.9688L13.373 11.2148L11.0166 15.209ZM15.1484 9.41113C14.8539 9.24496 14.4777 9.3439 14.3076 9.63184L13.9893 10.1709L15.3223 10.9248L15.6406 10.3857C15.8107 10.0975 15.7096 9.72892 15.415 9.5625L15.1484 9.41113Z" fill="#4AE7FD"/>
<path d="M8.41797 12.666C8.75797 12.6661 9.03394 12.9359 9.03418 13.2686C9.03418 13.6014 8.75811 13.872 8.41797 13.8721H3.49023C3.1501 13.872 2.87402 13.6014 2.87402 13.2686C2.87426 12.9359 3.15024 12.6661 3.49023 12.666H8.41797Z" fill="#4AE7FD"/>
<path d="M11.0869 8.39746C11.4271 8.39746 11.7031 8.66714 11.7031 9C11.7031 9.33286 11.4271 9.60254 11.0869 9.60254H3.49023C3.1501 9.60248 2.87402 9.33282 2.87402 9C2.87403 8.66718 3.1501 8.39752 3.49023 8.39746H11.0869Z" fill="#4AE7FD"/>
<path d="M13.5098 4.12793C13.8499 4.12798 14.126 4.39862 14.126 4.73145C14.1258 5.06408 13.8498 5.33393 13.5098 5.33398H3.49023C3.15024 5.33393 2.87425 5.06408 2.87402 4.73145C2.87402 4.39862 3.1501 4.12799 3.49023 4.12793H13.5098Z" fill="#4AE7FD"/>
</svg>
