<svg width="18" height="18" viewBox="0 0 18 18" fill="none" xmlns="http://www.w3.org/2000/svg">
<path fill-rule="evenodd" clip-rule="evenodd" d="M4.34216 9.19922C4.41307 9.19922 4.48301 9.21908 4.54334 9.25684C4.60367 9.29461 4.65223 9.34882 4.68396 9.41309L8.6449 17.4395C8.674 17.4984 8.68779 17.5641 8.68494 17.6299C8.68202 17.6958 8.66253 17.7603 8.6283 17.8164C8.59407 17.8725 8.54647 17.9191 8.48963 17.9512C8.43274 17.9833 8.36823 18 8.3031 18H0.382204C0.317083 18 0.25256 17.9833 0.19568 17.9512C0.138835 17.9191 0.0912383 17.8725 0.0570084 17.8164C0.0227735 17.7603 0.00328117 17.6958 0.000367803 17.6299C-0.00248628 17.5641 0.0113085 17.4984 0.0404069 17.4395L4.00134 9.41309C4.03308 9.34883 4.08165 9.29461 4.14197 9.25684C4.20216 9.21918 4.27143 9.1993 4.34216 9.19922ZM2.2367 16.4512H6.44861L4.34216 12.1826L2.2367 16.4512Z" fill="#4AE7FD"/>
<path fill-rule="evenodd" clip-rule="evenodd" d="M17.2357 9.67773C17.4383 9.67773 17.6325 9.75914 17.7758 9.9043C17.9189 10.0494 17.9993 10.246 17.9994 10.4512V17.2256C17.9994 17.4309 17.919 17.6282 17.7758 17.7734C17.6325 17.9185 17.4383 18 17.2357 18H10.5502C10.3477 17.9999 10.1534 17.9185 10.0101 17.7734C9.86685 17.6282 9.7865 17.4309 9.7865 17.2256V10.4512C9.78662 10.246 9.867 10.0494 10.0101 9.9043C10.1534 9.75916 10.3476 9.6778 10.5502 9.67773H17.2357ZM11.3148 16.4512H16.472V11.2256H11.3148V16.4512Z" fill="#4AE7FD"/>
<path fill-rule="evenodd" clip-rule="evenodd" d="M8.44959 8.32227H0.235719V0H8.44959V8.32227ZM1.76404 6.77441H6.92127V1.54883H1.76404V6.77441Z" fill="#4AE7FD"/>
<path fill-rule="evenodd" clip-rule="evenodd" d="M13.8929 0C16.1573 0 17.9993 1.86669 17.9994 4.16113C17.9994 6.45565 16.1574 8.32227 13.8929 8.32227C11.6286 8.3222 9.7865 6.45561 9.7865 4.16113C9.78658 1.86673 11.6286 6.60402e-05 13.8929 0ZM13.8929 1.54883C13.383 1.54885 12.8843 1.70125 12.4603 1.98828C12.0364 2.27532 11.7063 2.68383 11.5111 3.16113C11.316 3.63851 11.2642 4.16411 11.3636 4.6709C11.4631 5.17773 11.7091 5.64338 12.0697 6.00879C12.4303 6.3742 12.8898 6.62281 13.39 6.72363C13.8902 6.82445 14.4091 6.77296 14.8803 6.5752C15.3512 6.37742 15.7542 6.04283 16.0375 5.61328C16.3208 5.18359 16.472 4.67792 16.472 4.16113C16.4712 3.46844 16.1986 2.80426 15.7152 2.31445C15.2318 1.82475 14.5765 1.5496 13.8929 1.54883Z" fill="#4AE7FD"/>
</svg>
