<svg width="16" height="16" viewBox="0 0 16 16" fill="none" xmlns="http://www.w3.org/2000/svg">
<path d="M11.889 2C12.0952 2.00004 12.293 2.0791 12.4388 2.21973C12.5845 2.36037 12.6663 2.55117 12.6663 2.75V13.25C12.6663 13.4489 12.5846 13.6396 12.4388 13.7803C12.293 13.9209 12.0952 14 11.889 14H4.11163C3.90536 14 3.70671 13.9209 3.56085 13.7803C3.4152 13.6396 3.33331 13.4488 3.33331 13.25V2.75C3.33331 2.55128 3.41527 2.36034 3.56085 2.21973C3.70671 2.07907 3.90536 2 4.11163 2H11.889ZM4.11163 13.25H11.889V2.75H4.11163V13.25ZM9.55597 11.75H6.44464V11H9.55597V11.75Z" fill="#8E97A5"/>
</svg>
