<svg width="12" height="12" viewBox="0 0 12 12" fill="none" xmlns="http://www.w3.org/2000/svg">
<path fill-rule="evenodd" clip-rule="evenodd" d="M8.78627 6.68395C10.6969 7.68643 12 9.68562 12 12H0C5.5661e-07 9.68562 1.30309 7.68811 3.21373 6.68562C3.96296 7.3266 4.93618 7.70903 6 7.70903C7.06384 7.70903 8.03704 7.32492 8.78627 6.68395ZM8.84319 7.71182C8.00637 8.26549 7.01717 8.56522 6 8.56522C4.98201 8.56522 3.99283 8.26619 3.15681 7.71349C2.53754 8.12442 2.01219 8.66562 1.61998 9.30045C1.27127 9.8649 1.03722 10.4909 0.928013 11.1438H11.072C10.9628 10.4906 10.7288 9.86421 10.38 9.29933C9.9885 8.66554 9.46417 8.12399 8.84319 7.71182Z" fill="#8E97A5"/>
<path fill-rule="evenodd" clip-rule="evenodd" d="M6 0C7.89356 0 9.42857 1.53331 9.42857 3.42475C9.42857 5.31619 7.89356 6.8495 6 6.8495C4.10645 6.8495 2.57143 5.31619 2.57143 3.42475C2.57143 1.53331 4.10645 0 6 0ZM6 0.856187C5.31315 0.856187 4.66761 1.12357 4.18192 1.6087C3.69625 2.09385 3.42857 2.73866 3.42857 3.42475C3.42857 4.11084 3.69625 4.75565 4.18192 5.2408C4.66761 5.72593 5.31315 5.99331 6 5.99331C6.68685 5.99331 7.3324 5.72593 7.81808 5.2408C8.30375 4.75565 8.57143 4.11084 8.57143 3.42475C8.57143 2.73866 8.30375 2.09385 7.81808 1.6087C7.3324 1.12357 6.68685 0.856187 6 0.856187Z" fill="#8E97A5"/>
</svg>
