<svg width="16" height="16" viewBox="0 0 16 16" fill="none" xmlns="http://www.w3.org/2000/svg">
<path d="M8.00006 14C7.44859 14 6.81936 13.8048 6.12984 13.4197C5.59037 13.1185 5.02575 12.7035 4.53985 12.2511C3.72214 11.471 3.08606 10.52 2.69601 9.49678L2.66669 9.41989V3.70554L3.2235 3.70977C3.85356 3.71 4.47907 3.61003 5.07329 3.41412L5.08508 3.4104C6.02062 3.12693 6.9053 2.71359 7.70949 2.18422L7.98937 2L8.27596 2.17499C9.10454 2.68064 9.99235 3.09582 10.922 3.41239C11.3863 3.55266 11.8145 3.64608 12.1974 3.69074C12.358 3.70945 12.5012 3.71894 12.6231 3.71894C12.6677 3.71894 12.7074 3.71759 12.7418 3.71528L12.7602 3.71381L13.3334 3.63672V9.41963L13.3042 9.4964C12.9148 10.5205 12.2786 11.4718 11.4642 12.2473C10.9743 12.7031 10.4099 13.1178 9.87109 13.4188C9.18089 13.8045 8.55138 14 8.00006 14ZM7.9732 3.15775C7.17437 3.64484 6.31028 4.03117 5.40332 4.30672C4.86626 4.48301 4.30703 4.59344 3.73961 4.63524L3.67651 4.63992V9.25508L3.68082 9.26591C4.02812 10.1384 4.55745 10.9183 5.2541 11.5835C6.20103 12.4643 7.3043 13.0556 8.00006 13.0556C8.69506 13.0556 9.7984 12.4643 10.7457 11.5839C11.4435 10.9187 11.9727 10.1391 12.3194 9.2661L12.3237 9.25534V4.65216L12.2613 4.6469C12.1983 4.64159 12.1354 4.63524 12.0726 4.62787C11.6239 4.57558 11.1298 4.46819 10.6036 4.3087L10.5871 4.30338C9.70102 4.00237 8.84985 3.61821 8.04658 3.15679L8.00965 3.13551L7.9732 3.15775ZM5.421 8.40253C5.37397 8.35879 5.33669 8.30675 5.31131 8.24943C5.28593 8.19212 5.27296 8.13066 5.27315 8.06863C5.27315 7.94252 5.32563 7.82392 5.421 7.73472C5.51637 7.64552 5.64312 7.59644 5.77802 7.59644C5.91293 7.59644 6.03968 7.64559 6.13505 7.73472L7.44599 8.96077L10.0746 6.50226C10.1701 6.41306 10.2968 6.36398 10.4317 6.36398C10.5666 6.36398 10.6934 6.41306 10.7888 6.50226C10.9856 6.68642 10.9856 6.98598 10.7888 7.17007L7.44599 10.2964L5.421 8.40253Z" fill="#8E97A5"/>
</svg>
